SplineFontDB: 3.2
FontName: NotoSansMongolian-Regular
FullName: Noto Sans Mongolian Regular
FamilyName: Noto Sans Mongolian
Weight: Book
Copyright: Copyright 2018 Google Inc. All Rights Reserved.
Version: 2.001; ttfautohint (v1.8.3) -l 8 -r 50 -G 200 -x 14 -D mong -f none -a qsq -X ""
ItalicAngle: 0
UnderlinePosition: -125
UnderlineWidth: 50
Ascent: 800
Descent: 200
InvalidEm: 0
sfntRevision: 0x00020042
LayerCount: 2
Layer: 0 1 "+BBcEMAQ0BD0EOAQ5 +BD8EOwQwBD0A" 1
Layer: 1 1 "+BB8ENQRABDUENAQ9BDgEOQAA +BD8EOwQwBD0A" 0
HasVMetrics: 1
XUID: [1021 59 1751208496 25435]
StyleMap: 0x0040
FSType: 0
OS2Version: 4
OS2_WeightWidthSlopeOnly: 1
OS2_UseTypoMetrics: 0
CreationTime: 1569262972
ModificationTime: 1632297495
PfmFamily: 17
TTFWeight: 400
TTFWidth: 5
LineGap: 0
VLineGap: 0
Panose: 2 11 5 2 4 5 4 2 2 4
OS2TypoAscent: 1457
OS2TypoAOffset: 0
OS2TypoDescent: -293
OS2TypoDOffset: 0
OS2TypoLinegap: 0
OS2WinAscent: 1457
OS2WinAOffset: 0
OS2WinDescent: 293
OS2WinDOffset: 0
HheadAscent: 1457
HheadAOffset: 0
HheadDescent: -293
HheadDOffset: 0
OS2SubXSize: 650
OS2SubYSize: 600
OS2SubXOff: 0
OS2SubYOff: 75
OS2SupXSize: 650
OS2SupYSize: 600
OS2SupXOff: 0
OS2SupYOff: 350
OS2StrikeYSize: 50
OS2StrikeYPos: 266
OS2CapHeight: 714
OS2XHeight: 444
OS2Vendor: 'GOOG'
OS2CodePages: 00000001.00000000
OS2UnicodeRanges: 80000003.02012400.00020002.00000000
Lookup: 4 0 1 "'rlig' Required Ligatures in +BBwEPgQ9BDMEPgQ7BEwEQQQ6BDgEOQAA lookup 0" { "'rlig' Required Ligatures in +BBwEPgQ9BDMEPgQ7BEwEQQQ6BDgEOQAA lookup 0 subtable"  } ['rlig' ('mong' <'dflt' > ) ]
Lookup: 4 0 0 "'isol' Isolated Forms in +BBwEPgQ9BDMEPgQ7BEwEQQQ6BDgEOQAA lookup 1" { "'isol' Isolated Forms in +BBwEPgQ9BDMEPgQ7BEwEQQQ6BDgEOQAA lookup 1 subtable"  } ['isol' ('mong' <'dflt' > ) ]
Lookup: 1 0 0 "'isol' Isolated Forms in +BBwEPgQ9BDMEPgQ7BEwEQQQ6BDgEOQAA lookup 2" { "'isol' Isolated Forms in +BBwEPgQ9BDMEPgQ7BEwEQQQ6BDgEOQAA lookup 2 subtable"  } ['isol' ('mong' <'dflt' > ) ]

StartChar: .notdef
Encoding: 224 -1 0
Width: 600
VWidth: 1750
Flags: W
LayerCount: 2
Fore
SplineSet
94 0 m 1,0,-1
 94 714 l 1,1,-1
 505 714 l 1,2,-1
 505 0 l 1,3,-1
 94 0 l 1,0,-1
145 51 m 1,4,-1
 454 51 l 1,5,-1
 454 663 l 1,6,-1
 145 663 l 1,7,-1
 145 51 l 1,4,-1
EndSplineSet
EndChar

StartChar: u1820.fin
Encoding: 225 -1 5
Width: 427
VWidth: 1750
GlyphClass: 2
Flags: W
LayerCount: 2
Fore
SplineSet
228 53 m 1,0,1
 148 58 148 58 89 102.5 c 128,-1,2
 30 147 30 147 -1.5 216 c 128,-1,3
 -33 285 -33 285 -33 364 c 2,4,-1
 -33 444 l 1,5,-1
 41 444 l 1,6,7
 41 378 41 378 49 323 c 128,-1,8
 57 268 57 268 81 225.5 c 128,-1,9
 105 183 105 183 151 156 c 1,10,11
 151 375 151 375 199 555 c 0,12,13
 247 734 247 734 325 836 c 1,14,-1
 417 836 l 1,15,16
 372 781 372 781 336.5 708.5 c 128,-1,17
 301 636 301 636 277 547 c 0,18,19
 253 459 253 459 240.5 361 c 128,-1,20
 228 263 228 263 228 156 c 2,21,-1
 228 53 l 1,0,1
EndSplineSet
EndChar

StartChar: u1823.med
Encoding: 226 -1 6
Width: 573
VWidth: 1750
GlyphClass: 2
Flags: W
LayerCount: 2
Fore
SplineSet
197 40 m 0,0,1
 100 40 100 40 50 95 c 128,-1,2
 0 150 0 150 0 249 c 0,3,4
 0 316 0 316 20 364 c 1,5,-1
 0 364 l 1,6,-1
 0 444 l 1,7,-1
 603 444 l 1,8,-1
 603 364 l 1,9,-1
 373 364 l 1,10,11
 395 316 395 316 395 249 c 0,12,13
 395 155 395 155 343.5 97.5 c 128,-1,14
 292 40 292 40 197 40 c 0,0,1
197 123 m 0,15,16
 253 123 253 123 284.5 155 c 128,-1,17
 316 187 316 187 316 251 c 0,18,19
 316 316 316 316 296 364 c 1,20,-1
 99 364 l 1,21,22
 79 316 79 316 79 251 c 0,23,24
 79 123 79 123 197 123 c 0,15,16
EndSplineSet
Substitution2: "Single Substitution lookup 18 subtable" u1823.medV1
EndChar

StartChar: u1823.fin
Encoding: 227 -1 7
Width: 634
VWidth: 1750
GlyphClass: 2
Flags: W
LayerCount: 2
Fore
SplineSet
225 40 m 0,0,1
 110 40 110 40 54.5 132.5 c 128,-1,2
 -1 225 -1 225 -1 408 c 0,3,4
 -1 516 -1 516 31 600.5 c 128,-1,5
 63 685 63 685 127.5 733.5 c 128,-1,6
 192 782 192 782 289 782 c 0,7,8
 357 782 357 782 410 753.5 c 128,-1,9
 463 725 463 725 501 674.5 c 128,-1,10
 539 624 539 624 561.5 558.5 c 128,-1,11
 584 493 584 493 589 419 c 1,12,-1
 509 409 l 1,13,14
 503 491 503 491 477 556.5 c 128,-1,15
 451 622 451 622 404.5 660.5 c 128,-1,16
 358 699 358 699 289 699 c 256,17,18
 220 699 220 699 174 666 c 128,-1,19
 128 633 128 633 104 575.5 c 128,-1,20
 80 518 80 518 78 444 c 1,21,-1
 382 444 l 1,22,23
 389 424 389 424 394 392 c 128,-1,24
 399 360 399 360 402 328 c 128,-1,25
 405 296 405 296 405 275 c 0,26,27
 405 206 405 206 382 153 c 128,-1,28
 359 100 359 100 318.5 70 c 128,-1,29
 278 40 278 40 225 40 c 0,0,1
218 123 m 0,30,31
 273 123 273 123 299.5 167 c 128,-1,32
 326 211 326 211 326 275 c 0,33,34
 326 334 326 334 316 364 c 1,35,-1
 78 364 l 1,36,37
 82 123 82 123 218 123 c 0,30,31
EndSplineSet
Substitution2: "Single Substitution lookup 18 subtable" u1823.finV1
EndChar

StartChar: u1820.iniV1
Encoding: 228 -1 8
Width: 492
VWidth: 1750
GlyphClass: 2
Flags: W
LayerCount: 2
Fore
SplineSet
226 74 m 1,0,-1
 200 437 l 2,1,2
 196 501 196 501 180.5 538 c 128,-1,3
 165 575 165 575 118 575 c 0,4,5
 72 575 72 575 10 550 c 1,6,-1
 10 623 l 1,7,8
 81 653 81 653 139 653 c 0,9,10
 194 653 194 653 223 628 c 128,-1,11
 252 603 252 603 264 556.5 c 128,-1,12
 276 510 276 510 278 445 c 2,13,-1
 281 361 l 1,14,-1
 285 361 l 1,15,16
 318 444 318 444 444 444 c 2,17,-1
 522 444 l 1,18,-1
 522 364 l 1,19,-1
 445 364 l 2,20,21
 391 364 391 364 361.5 350.5 c 128,-1,22
 332 337 332 337 319 305.5 c 128,-1,23
 306 274 306 274 302 219 c 2,24,-1
 292 74 l 1,25,-1
 226 74 l 1,0,-1
EndSplineSet
Ligature2: "'init' +BB0EMARHBDAEOwRMBD0ESwQ1 +BEQEPgRABDwESwAA in +BBwEPgQ9BDMEPgQ7BEwEQQQ6BDgEOQAA lookup 7 subtable" u1820 FVS1
EndChar

StartChar: u1823.finV1
Encoding: 229 -1 9
Width: 440
VWidth: 1750
GlyphClass: 2
Flags: W
LayerCount: 2
Fore
SplineSet
197 40 m 0,0,1
 101 40 101 40 50.5 94.5 c 128,-1,2
 0 149 0 149 0 249 c 0,3,4
 0 316 0 316 20 364 c 1,5,-1
 0 364 l 1,6,-1
 0 444 l 1,7,-1
 348 444 l 1,8,9
 371 402 371 402 383 350 c 128,-1,10
 395 298 395 298 395 249 c 0,11,12
 395 155 395 155 343.5 97.5 c 128,-1,13
 292 40 292 40 197 40 c 0,0,1
197 123 m 0,14,15
 253 123 253 123 284.5 155 c 128,-1,16
 316 187 316 187 316 251 c 0,17,18
 316 314 316 314 294 364 c 1,19,-1
 99 364 l 1,20,21
 79 316 79 316 79 251 c 0,22,23
 79 123 79 123 197 123 c 0,14,15
EndSplineSet
Ligature2: "'fina' Terminal Forms in +BBwEPgQ9BDMEPgQ7BEwEQQQ6BDgEOQAA lookup 3 subtable" u1823 FVS1
EndChar

StartChar: u1822.med
Encoding: 230 -1 10
Width: 361
VWidth: 1750
GlyphClass: 2
Flags: W
LayerCount: 2
Fore
SplineSet
173 -67 m 1,0,1
 114 43 114 43 71 151 c 128,-1,2
 28 259 28 259 0 364 c 1,3,-1
 0 444 l 1,4,-1
 391 444 l 1,5,-1
 391 364 l 1,6,-1
 79 364 l 1,7,8
 108 264 108 264 149.5 165.5 c 128,-1,9
 191 67 191 67 246 -31 c 1,10,-1
 173 -67 l 1,0,1
EndSplineSet
Substitution2: "Single Substitution lookup 20 subtable" u1822.medV2
Substitution2: "Single Substitution lookup 18 subtable" u1822.medV1
EndChar

StartChar: u1822.medV1
Encoding: 231 -1 11
Width: 579
VWidth: 1750
GlyphClass: 2
Flags: W
LayerCount: 2
Fore
SplineSet
391 -67 m 1,0,1
 333 41 333 41 290 148.5 c 128,-1,2
 247 256 247 256 218 364 c 1,3,-1
 104 364 l 1,4,-1
 85 96 l 1,5,-1
 19 96 l 1,6,-1
 0 364 l 1,7,-1
 0 444 l 1,8,-1
 609 444 l 1,9,-1
 609 364 l 1,10,-1
 297 364 l 1,11,12
 326 264 326 264 367.5 165.5 c 128,-1,13
 409 67 409 67 464 -31 c 1,14,-1
 391 -67 l 1,0,1
EndSplineSet
Ligature2: "'medi' Medial Forms in +BBwEPgQ9BDMEPgQ7BEwEQQQ6BDgEOQAA lookup 5 subtable" u1822 FVS1
EndChar

StartChar: u182E
Encoding: 49 6190 12
Width: 567
VWidth: 1750
GlyphClass: 2
Flags: W
LayerCount: 2
Fore
SplineSet
226 74 m 1,0,-1
 200 437 l 2,1,2
 196 501 196 501 180.5 538 c 128,-1,3
 165 575 165 575 118 575 c 0,4,5
 72 575 72 575 10 550 c 1,6,-1
 10 623 l 1,7,8
 81 653 81 653 139 653 c 0,9,10
 154 653 154 653 166.5 651 c 128,-1,11
 179 649 179 649 189 646 c 1,12,13
 172 690 172 690 144 716 c 1,14,-1
 144 773 l 1,15,-1
 265 773 l 2,16,17
 343 773 343 773 380 782 c 0,18,19
 399 787 399 787 415 793 c 128,-1,20
 431 799 431 799 444 808 c 1,21,-1
 444 731 l 1,22,23
 418 708 418 708 383 701 c 0,24,25
 365 697 365 697 335.5 695 c 128,-1,26
 306 693 306 693 265 693 c 2,27,-1
 229 693 l 1,28,29
 260 625 260 625 269.5 539 c 128,-1,30
 279 453 279 453 281 361 c 1,31,-1
 285 361 l 1,32,33
 318 444 318 444 444 444 c 2,34,-1
 522 444 l 1,35,-1
 522 364 l 1,36,-1
 445 364 l 2,37,38
 390 364 390 364 360.5 350 c 128,-1,39
 331 336 331 336 318.5 304.5 c 128,-1,40
 306 273 306 273 302 219 c 2,41,-1
 292 74 l 1,42,-1
 226 74 l 1,0,-1
EndSplineSet
Substitution2: "'init' +BB0EMARHBDAEOwRMBD0ESwQ1 +BEQEPgRABDwESwAA in +BBwEPgQ9BDMEPgQ7BEwEQQQ6BDgEOQAA lookup 8 subtable" u182E.ini
Substitution2: "'medi' Medial Forms in +BBwEPgQ9BDMEPgQ7BEwEQQQ6BDgEOQAA lookup 6 subtable" u182E.med
Substitution2: "'fina' Terminal Forms in +BBwEPgQ9BDMEPgQ7BEwEQQQ6BDgEOQAA lookup 4 subtable" u182E.fin
EndChar

StartChar: u1829.med
Encoding: 232 -1 13
Width: 574
VWidth: 1750
GlyphClass: 2
Flags: W
LayerCount: 2
Fore
SplineSet
338 70 m 1,0,1
 295 147 295 147 271.5 220.5 c 128,-1,2
 248 294 248 294 243 364 c 1,3,-1
 104 364 l 1,4,-1
 85 96 l 1,5,-1
 19 96 l 1,6,-1
 0 364 l 1,7,-1
 0 444 l 1,8,-1
 245 444 l 1,9,10
 255 532 255 532 305.5 589 c 128,-1,11
 356 646 356 646 444 646 c 0,12,13
 513 646 513 646 556.5 608 c 128,-1,14
 600 570 600 570 622.5 506.5 c 128,-1,15
 645 443 645 443 648 364 c 1,16,-1
 574 364 l 1,17,18
 568 465 568 465 533 514 c 128,-1,19
 498 563 498 563 444 563 c 0,20,21
 384 563 384 563 352.5 518.5 c 128,-1,22
 321 474 321 474 321 396 c 256,23,24
 321 318 321 318 345.5 250 c 128,-1,25
 370 182 370 182 412 112 c 1,26,-1
 338 70 l 1,0,1
EndSplineSet
EndChar

StartChar: u182F.fin
Encoding: 233 -1 14
Width: 383
VWidth: 1750
GlyphClass: 2
Flags: W
LayerCount: 2
Fore
SplineSet
244 45 m 1,0,1
 184 47 184 47 133.5 73.5 c 128,-1,2
 83 100 83 100 45.5 144 c 128,-1,3
 8 188 8 188 -12.5 244.5 c 128,-1,4
 -33 301 -33 301 -33 364 c 2,5,-1
 -33 444 l 1,6,-1
 48 444 l 1,7,8
 48 379 48 379 57 324 c 128,-1,9
 66 269 66 269 91 227.5 c 128,-1,10
 116 186 116 186 165 159 c 1,11,12
 165 438 165 438 240 634 c 1,13,-1
 162 634 l 2,14,15
 123 634 123 634 94 636 c 128,-1,16
 65 638 65 638 46 642 c 0,17,18
 9 649 9 649 -18 672 c 1,19,-1
 -18 750 l 1,20,21
 0 739 0 739 18.5 732 c 128,-1,22
 37 725 37 725 55 721 c 0,23,24
 74 717 74 717 101 715.5 c 128,-1,25
 128 714 128 714 162 714 c 2,26,-1
 338 714 l 1,27,-1
 338 653 l 1,28,29
 286 535 286 535 265 412.5 c 128,-1,30
 244 290 244 290 244 157 c 2,31,-1
 244 45 l 1,0,1
EndSplineSet
EndChar

StartChar: u1828
Encoding: 43 6184 15
Width: 567
VWidth: 1750
GlyphClass: 2
Flags: W
LayerCount: 2
Fore
SplineSet
226 74 m 1,0,-1
 200 437 l 2,1,2
 196 501 196 501 180.5 538 c 128,-1,3
 165 575 165 575 118 575 c 0,4,5
 72 575 72 575 10 550 c 1,6,-1
 10 623 l 1,7,8
 81 653 81 653 139 653 c 0,9,10
 194 653 194 653 223 628 c 128,-1,11
 252 603 252 603 264 556.5 c 128,-1,12
 276 510 276 510 278 445 c 2,13,-1
 281 361 l 1,14,-1
 285 361 l 1,15,16
 318 444 318 444 444 444 c 2,17,-1
 522 444 l 1,18,-1
 522 364 l 1,19,-1
 445 364 l 2,20,21
 391 364 391 364 361.5 350.5 c 128,-1,22
 332 337 332 337 319 305.5 c 128,-1,23
 306 274 306 274 302 219 c 2,24,-1
 292 74 l 1,25,-1
 226 74 l 1,0,-1
262 -163 m 1,26,-1
 219 -124 l 1,27,28
 281 -37 281 -37 340 22 c 1,29,-1
 401 -47 l 1,30,31
 356 -79 356 -79 321.5 -108 c 128,-1,32
 287 -137 287 -137 262 -163 c 1,26,-1
EndSplineSet
Substitution2: "'init' +BB0EMARHBDAEOwRMBD0ESwQ1 +BEQEPgRABDwESwAA in +BBwEPgQ9BDMEPgQ7BEwEQQQ6BDgEOQAA lookup 8 subtable" u1828.ini
Substitution2: "'medi' Medial Forms in +BBwEPgQ9BDMEPgQ7BEwEQQQ6BDgEOQAA lookup 6 subtable" u1828.med
Substitution2: "'fina' Terminal Forms in +BBwEPgQ9BDMEPgQ7BEwEQQQ6BDgEOQAA lookup 4 subtable" u1828.fin
EndChar

StartChar: u1828.ini
Encoding: 234 -1 16
Width: 492
VWidth: 1750
GlyphClass: 2
Flags: W
LayerCount: 2
Fore
SplineSet
226 74 m 1,0,-1
 200 437 l 2,1,2
 196 501 196 501 180.5 538 c 128,-1,3
 165 575 165 575 118 575 c 0,4,5
 72 575 72 575 10 550 c 1,6,-1
 10 623 l 1,7,8
 81 653 81 653 139 653 c 0,9,10
 194 653 194 653 223 628 c 128,-1,11
 252 603 252 603 264 556.5 c 128,-1,12
 276 510 276 510 278 445 c 2,13,-1
 281 361 l 1,14,-1
 285 361 l 1,15,16
 318 444 318 444 444 444 c 2,17,-1
 522 444 l 1,18,-1
 522 364 l 1,19,-1
 445 364 l 2,20,21
 391 364 391 364 361.5 350.5 c 128,-1,22
 332 337 332 337 319 305.5 c 128,-1,23
 306 274 306 274 302 219 c 2,24,-1
 292 74 l 1,25,-1
 226 74 l 1,0,-1
262 -163 m 1,26,-1
 219 -124 l 1,27,28
 281 -37 281 -37 340 22 c 1,29,-1
 401 -47 l 1,30,31
 356 -79 356 -79 321.5 -108 c 128,-1,32
 287 -137 287 -137 262 -163 c 1,26,-1
EndSplineSet
Substitution2: "Single Substitution lookup 21 subtable" u1828.medV3
EndChar

StartChar: u1826.iniV1
Encoding: 236 -1 18
Width: 618
VWidth: 1750
GlyphClass: 2
Flags: W
LayerCount: 2
Fore
SplineSet
242 40 m 0,0,1
 144 40 144 40 94.5 98.5 c 128,-1,2
 45 157 45 157 45 260 c 0,3,4
 45 317 45 317 56 361 c 128,-1,5
 67 405 67 405 90 444 c 1,6,-1
 648 444 l 1,7,-1
 648 364 l 1,8,-1
 420 364 l 1,9,10
 440 316 440 316 440 249 c 0,11,12
 440 155 440 155 388.5 97.5 c 128,-1,13
 337 40 337 40 242 40 c 0,0,1
242 123 m 0,14,15
 297 123 297 123 329 155 c 128,-1,16
 361 187 361 187 361 251 c 0,17,18
 361 316 361 316 341 364 c 1,19,-1
 144 364 l 1,20,21
 124 321 124 321 124 262 c 0,22,23
 124 123 124 123 242 123 c 0,14,15
EndSplineSet
Ligature2: "'rlig' Required Ligatures in +BBwEPgQ9BDMEPgQ7BEwEQQQ6BDgEOQAA lookup 26 subtable" u1826.ini FVS1
EndChar

StartChar: u180A
Encoding: 20 6154 19
Width: 168
VWidth: 1750
GlyphClass: 2
Flags: W
LayerCount: 2
Fore
SplineSet
0 364 m 1,0,-1
 0 444 l 1,1,-1
 188 444 l 1,2,-1
 188 364 l 1,3,-1
 0 364 l 1,0,-1
EndSplineSet
EndChar

StartChar: u182A_1822.ini
Encoding: 238 -1 21
Width: 917
VWidth: 1750
GlyphClass: 2
Flags: W
LayerCount: 2
Fore
SplineSet
729 -67 m 1,0,1
 646 93 646 93 609 192 c 0,2,3
 590 242 590 242 576.5 298.5 c 128,-1,4
 563 355 563 355 552 418 c 0,5,6
 538 504 538 504 512.5 567 c 128,-1,7
 487 630 487 630 443.5 664.5 c 128,-1,8
 400 699 400 699 330 699 c 0,9,10
 262 699 262 699 216.5 665.5 c 128,-1,11
 171 632 171 632 148 574 c 128,-1,12
 125 516 125 516 124 444 c 1,13,-1
 428 444 l 1,14,15
 434 427 434 427 439.5 394 c 128,-1,16
 445 361 445 361 448 327.5 c 128,-1,17
 451 294 451 294 451 275 c 0,18,19
 451 207 451 207 428.5 153.5 c 128,-1,20
 406 100 406 100 365.5 70 c 128,-1,21
 325 40 325 40 272 40 c 0,22,23
 157 40 157 40 101 131.5 c 128,-1,24
 45 223 45 223 45 408 c 0,25,26
 45 585 45 585 121 683 c 0,27,28
 198 782 198 782 330 782 c 0,29,30
 422 782 422 782 480.5 740.5 c 128,-1,31
 539 699 539 699 573.5 623 c 128,-1,32
 608 547 608 547 627 444 c 1,33,-1
 947 444 l 1,34,-1
 947 364 l 1,35,-1
 642 364 l 1,36,37
 662 270 662 270 702 173.5 c 128,-1,38
 742 77 742 77 802 -31 c 1,39,-1
 729 -67 l 1,0,1
264 123 m 0,40,41
 316 123 316 123 344 165 c 128,-1,42
 372 207 372 207 372 271 c 0,43,44
 372 301 372 301 369.5 325.5 c 128,-1,45
 367 350 367 350 362 364 c 1,46,-1
 124 364 l 1,47,48
 127 123 127 123 264 123 c 0,40,41
EndSplineSet
Ligature2: "'rlig' Required Ligatures in +BBwEPgQ9BDMEPgQ7BEwEQQQ6BDgEOQAA lookup 25 subtable" u182A.ini u1822.med
EndChar

StartChar: u182C_1822.ini
Encoding: 239 -1 22
Width: 810
VWidth: 1750
GlyphClass: 2
Flags: W
LayerCount: 2
Fore
SplineSet
622 -67 m 1,0,1
 586 -8 586 -8 556.5 52.5 c 128,-1,2
 527 113 527 113 505 176 c 0,3,4
 483 238 483 238 469 299 c 128,-1,5
 455 360 455 360 447 418 c 0,6,7
 440 468 440 468 433 506.5 c 128,-1,8
 426 545 426 545 416 572 c 0,9,10
 397 627 397 627 367 652 c 128,-1,11
 337 677 337 677 287 677 c 0,12,13
 229 677 229 677 193 641 c 128,-1,14
 157 605 157 605 140.5 546 c 128,-1,15
 124 487 124 487 124 417 c 0,16,17
 124 323 124 323 156 246 c 128,-1,18
 188 169 188 169 245 85 c 1,19,-1
 174 42 l 1,20,21
 45 240 45 240 45 417 c 0,22,23
 45 512 45 512 72 589.5 c 128,-1,24
 99 667 99 667 153 713.5 c 128,-1,25
 207 760 207 760 287 760 c 0,26,27
 365 760 365 760 413 719.5 c 128,-1,28
 461 679 461 679 486.5 607.5 c 128,-1,29
 512 536 512 536 523 444 c 1,30,-1
 840 444 l 1,31,-1
 840 364 l 1,32,-1
 533 364 l 1,33,34
 552 265 552 265 592 166.5 c 128,-1,35
 632 68 632 68 695 -31 c 1,36,-1
 622 -67 l 1,0,1
EndSplineSet
Ligature2: "'rlig' Required Ligatures in +BBwEPgQ9BDMEPgQ7BEwEQQQ6BDgEOQAA lookup 25 subtable" u182C.ini u1822.med
EndChar

StartChar: u1830.fin
Encoding: 241 -1 24
Width: 685
VWidth: 1750
GlyphClass: 2
Flags: W
LayerCount: 2
Fore
SplineSet
27 73 m 1,0,1
 15 144 15 144 7.5 221 c 128,-1,2
 0 298 0 298 0 364 c 2,3,-1
 0 444 l 1,4,-1
 32 444 l 1,5,6
 48 518 48 518 79 591 c 128,-1,7
 110 664 110 664 157 734 c 1,8,-1
 238 734 l 1,9,10
 238 600 238 600 265 475 c 0,11,12
 292 352 292 352 354 223 c 1,13,-1
 358 223 l 1,14,15
 384 337 384 337 431.5 444 c 128,-1,16
 479 551 479 551 543 642 c 1,17,-1
 640 642 l 1,18,19
 550 519 550 519 494.5 388.5 c 128,-1,20
 439 258 439 258 408 106 c 1,21,-1
 328 106 l 1,22,23
 294 167 294 167 267.5 228 c 128,-1,24
 241 289 241 289 222 350 c 256,25,26
 203 411 203 411 190 477 c 128,-1,27
 177 543 177 543 170 613 c 1,28,-1
 166 613 l 1,29,30
 125 525 125 525 105.5 445 c 128,-1,31
 86 365 86 365 86 276 c 0,32,33
 86 148 86 148 105 73 c 1,34,-1
 27 73 l 1,0,1
EndSplineSet
EndChar

StartChar: u1834.med
Encoding: 242 -1 25
Width: 530
VWidth: 1750
GlyphClass: 2
Flags: W
LayerCount: 2
Fore
SplineSet
0 16 m 1,0,-1
 0 101 l 1,1,2
 47 131 47 131 106 137 c 128,-1,3
 165 143 165 143 235 143 c 2,4,-1
 271 143 l 1,5,6
 241 238 241 238 241 364 c 1,7,-1
 0 364 l 1,8,-1
 0 444 l 1,9,-1
 560 444 l 1,10,-1
 560 364 l 1,11,-1
 315 364 l 1,12,13
 315 301 315 301 325.5 245 c 128,-1,14
 336 189 336 189 356 129 c 1,15,-1
 356 63 l 1,16,-1
 235 63 l 2,17,18
 162 63 162 63 106.5 55 c 128,-1,19
 51 47 51 47 0 16 c 1,0,-1
EndSplineSet
EndChar

StartChar: u1837
Encoding: 58 6199 28
Width: 693
VWidth: 1750
GlyphClass: 2
Flags: W
LayerCount: 2
Fore
SplineSet
240 -131 m 1,0,1
 85 180 85 180 45 444 c 1,2,-1
 648 444 l 1,3,-1
 648 364 l 1,4,-1
 137 364 l 1,5,6
 145 327 145 327 155 292 c 128,-1,7
 165 257 165 257 176 223 c 1,8,-1
 292 223 l 2,9,10
 389 223 389 223 442.5 168.5 c 128,-1,11
 496 114 496 114 496 24 c 0,12,13
 496 -26 496 -26 480 -65 c 1,14,-1
 401 -65 l 1,15,16
 416 -33 416 -33 416 13 c 0,17,18
 416 76 416 76 386.5 109.5 c 128,-1,19
 357 143 357 143 289 143 c 2,20,-1
 205 143 l 1,21,22
 227 83 227 83 254.5 23 c 128,-1,23
 282 -37 282 -37 313 -96 c 1,24,-1
 240 -131 l 1,0,1
EndSplineSet
Substitution2: "'init' +BB0EMARHBDAEOwRMBD0ESwQ1 +BEQEPgRABDwESwAA in +BBwEPgQ9BDMEPgQ7BEwEQQQ6BDgEOQAA lookup 8 subtable" u1837.ini
Substitution2: "'medi' Medial Forms in +BBwEPgQ9BDMEPgQ7BEwEQQQ6BDgEOQAA lookup 6 subtable" u1837.med
Substitution2: "'fina' Terminal Forms in +BBwEPgQ9BDMEPgQ7BEwEQQQ6BDgEOQAA lookup 4 subtable" u1837.fin
EndChar

StartChar: u1837.med
Encoding: 246 -1 30
Width: 559
VWidth: 1750
GlyphClass: 2
Flags: W
LayerCount: 2
Fore
SplineSet
181 -131 m 1,0,1
 120 -8 120 -8 74.5 116 c 128,-1,2
 29 240 29 240 0 364 c 1,3,-1
 0 444 l 1,4,-1
 589 444 l 1,5,-1
 589 364 l 1,6,-1
 78 364 l 1,7,8
 96 286 96 286 117 223 c 1,9,-1
 233 223 l 2,10,11
 330 223 330 223 383.5 168.5 c 128,-1,12
 437 114 437 114 437 24 c 0,13,14
 437 -26 437 -26 421 -65 c 1,15,-1
 342 -65 l 1,16,17
 357 -33 357 -33 357 13 c 0,18,19
 357 76 357 76 327.5 109.5 c 128,-1,20
 298 143 298 143 230 143 c 2,21,-1
 146 143 l 1,22,23
 167 86 167 86 193.5 26 c 128,-1,24
 220 -34 220 -34 254 -96 c 1,25,-1
 181 -131 l 1,0,1
EndSplineSet
EndChar

StartChar: u1837.fin
Encoding: 247 -1 31
Width: 504
VWidth: 1750
GlyphClass: 2
Flags: W
LayerCount: 2
Fore
SplineSet
137 12 m 1,0,1
 -2 221 -2 221 -2 407 c 0,2,3
 -2 497 -2 497 23.5 569 c 128,-1,4
 49 641 49 641 100.5 683 c 128,-1,5
 152 725 152 725 229 725 c 0,6,7
 305 725 305 725 354 684.5 c 128,-1,8
 403 644 403 644 428.5 574.5 c 128,-1,9
 454 505 454 505 459 419 c 1,10,-1
 379 409 l 1,11,12
 372 521 372 521 333.5 581.5 c 128,-1,13
 295 642 295 642 229 642 c 0,14,15
 175 642 175 642 141.5 610 c 128,-1,16
 108 578 108 578 92.5 525 c 128,-1,17
 77 472 77 472 77 407 c 0,18,19
 77 379 77 379 79 356 c 128,-1,20
 81 333 81 333 85 315 c 1,21,-1
 196 315 l 2,22,23
 288 315 288 315 339 263.5 c 128,-1,24
 390 212 390 212 390 126 c 0,25,26
 390 78 390 78 374 47 c 1,27,-1
 294 47 l 1,28,29
 309 74 309 74 309 115 c 0,30,31
 309 173 309 173 282 204.5 c 128,-1,32
 255 236 255 236 193 236 c 2,33,-1
 107 236 l 1,34,35
 123 193 123 193 148.5 148 c 128,-1,36
 174 103 174 103 208 55 c 1,37,-1
 137 12 l 1,0,1
EndSplineSet
EndChar

StartChar: u1832.med
Encoding: 248 -1 32
Width: 613
VWidth: 1750
GlyphClass: 2
Flags: W
LayerCount: 2
Fore
SplineSet
319 -157 m 0,0,1
 260 -157 260 -157 218 -125.5 c 128,-1,2
 176 -94 176 -94 144.5 -38.5 c 128,-1,3
 113 17 113 17 84 88 c 0,4,5
 59 153 59 153 38 222 c 128,-1,6
 17 291 17 291 0 364 c 1,7,-1
 0 444 l 1,8,-1
 643 444 l 1,9,-1
 643 364 l 1,10,-1
 79 364 l 1,11,12
 105 261 105 261 142 154 c 1,13,14
 166 189 166 189 205 210.5 c 128,-1,15
 244 232 244 232 290 232 c 0,16,17
 383 232 383 232 437 176.5 c 128,-1,18
 491 121 491 121 491 27 c 0,19,20
 491 -28 491 -28 469 -69.5 c 128,-1,21
 447 -111 447 -111 408 -134 c 128,-1,22
 369 -157 369 -157 319 -157 c 0,0,1
319 -77 m 256,23,24
 361 -77 361 -77 387 -49.5 c 128,-1,25
 413 -22 413 -22 413 27 c 0,26,27
 413 84 413 84 382.5 118.5 c 128,-1,28
 352 153 352 153 290 153 c 0,29,30
 252 153 252 153 220.5 132 c 128,-1,31
 189 111 189 111 172 76 c 1,32,33
 206 -6 206 -6 241.5 -41.5 c 128,-1,34
 277 -77 277 -77 319 -77 c 256,23,24
EndSplineSet
EndChar

StartChar: u1832
Encoding: 53 6194 33
Width: 745
VWidth: 1750
GlyphClass: 2
Flags: W
LayerCount: 2
Fore
SplineSet
405 96 m 1,0,-1
 386 364 l 1,1,-1
 91 364 l 1,2,3
 69 407 69 407 57 460.5 c 128,-1,4
 45 514 45 514 45 563 c 0,5,6
 45 625 45 625 69.5 673 c 128,-1,7
 94 721 94 721 138.5 749 c 128,-1,8
 183 777 183 777 243 777 c 0,9,10
 316 777 316 777 361.5 743 c 128,-1,11
 407 709 407 709 430.5 635.5 c 128,-1,12
 454 562 454 562 460 444 c 1,13,-1
 700 444 l 1,14,-1
 700 364 l 1,15,-1
 490 364 l 1,16,-1
 471 96 l 1,17,-1
 405 96 l 1,0,-1
147 444 m 1,18,-1
 380 444 l 1,19,20
 376 573 376 573 343.5 633.5 c 128,-1,21
 311 694 311 694 243 694 c 0,22,23
 189 694 189 694 156.5 659.5 c 128,-1,24
 124 625 124 625 124 563 c 0,25,26
 124 488 124 488 147 444 c 1,18,-1
EndSplineSet
Substitution2: "'init' +BB0EMARHBDAEOwRMBD0ESwQ1 +BEQEPgRABDwESwAA in +BBwEPgQ9BDMEPgQ7BEwEQQQ6BDgEOQAA lookup 8 subtable" u1832.ini
Substitution2: "'medi' Medial Forms in +BBwEPgQ9BDMEPgQ7BEwEQQQ6BDgEOQAA lookup 6 subtable" u1832.med
Substitution2: "'fina' Terminal Forms in +BBwEPgQ9BDMEPgQ7BEwEQQQ6BDgEOQAA lookup 4 subtable" u1832.fin
EndChar

StartChar: u1833
Encoding: 54 6195 35
Width: 748
VWidth: 1750
GlyphClass: 2
Flags: W
LayerCount: 2
Fore
SplineSet
379 -157 m 0,0,1
 315 -157 315 -157 269.5 -119 c 128,-1,2
 224 -81 224 -81 191 -15.5 c 128,-1,3
 158 50 158 50 128 131 c 0,4,5
 99 211 99 211 78.5 289.5 c 128,-1,6
 58 368 58 368 45 444 c 1,7,-1
 703 444 l 1,8,-1
 703 364 l 1,9,-1
 139 364 l 1,10,11
 165 261 165 261 202 154 c 1,12,13
 226 189 226 189 265 210.5 c 128,-1,14
 304 232 304 232 350 232 c 0,15,16
 443 232 443 232 497 177 c 128,-1,17
 551 122 551 122 551 27 c 0,18,19
 551 -56 551 -56 503 -106.5 c 128,-1,20
 455 -157 455 -157 379 -157 c 0,0,1
379 -77 m 256,21,22
 421 -77 421 -77 447 -49.5 c 128,-1,23
 473 -22 473 -22 473 27 c 0,24,25
 473 84 473 84 442.5 118.5 c 128,-1,26
 412 153 412 153 350 153 c 0,27,28
 312 153 312 153 280.5 132 c 128,-1,29
 249 111 249 111 232 76 c 1,30,31
 266 -6 266 -6 301.5 -41.5 c 128,-1,32
 337 -77 337 -77 379 -77 c 256,21,22
EndSplineSet
Substitution2: "Single Substitution lookup 22 subtable" u1833.med
Substitution2: "'init' +BB0EMARHBDAEOwRMBD0ESwQ1 +BEQEPgRABDwESwAA in +BBwEPgQ9BDMEPgQ7BEwEQQQ6BDgEOQAA lookup 8 subtable" u1833.ini
Substitution2: "'medi' Medial Forms in +BBwEPgQ9BDMEPgQ7BEwEQQQ6BDgEOQAA lookup 6 subtable" u1833.med
Substitution2: "'fina' Terminal Forms in +BBwEPgQ9BDMEPgQ7BEwEQQQ6BDgEOQAA lookup 4 subtable" u1833.fin
EndChar

StartChar: u1834
Encoding: 55 6196 38
Width: 767
VWidth: 1750
GlyphClass: 2
Flags: W
LayerCount: 2
Fore
SplineSet
162 16 m 1,0,-1
 162 101 l 1,1,2
 209 130 209 130 268 136.5 c 128,-1,3
 327 143 327 143 397 143 c 2,4,-1
 433 143 l 1,5,6
 403 239 403 239 403 364 c 1,7,-1
 45 364 l 1,8,-1
 63 444 l 1,9,-1
 722 444 l 1,10,-1
 722 364 l 1,11,-1
 477 364 l 1,12,13
 477 301 477 301 487.5 245 c 128,-1,14
 498 189 498 189 518 129 c 1,15,-1
 518 63 l 1,16,-1
 397 63 l 2,17,18
 324 63 324 63 268.5 55 c 128,-1,19
 213 47 213 47 162 16 c 1,0,-1
EndSplineSet
Substitution2: "'init' +BB0EMARHBDAEOwRMBD0ESwQ1 +BEQEPgRABDwESwAA in +BBwEPgQ9BDMEPgQ7BEwEQQQ6BDgEOQAA lookup 8 subtable" u1834.ini
Substitution2: "'medi' Medial Forms in +BBwEPgQ9BDMEPgQ7BEwEQQQ6BDgEOQAA lookup 6 subtable" u1834.med
Substitution2: "'fina' Terminal Forms in +BBwEPgQ9BDMEPgQ7BEwEQQQ6BDgEOQAA lookup 4 subtable" u1834.fin
EndChar

StartChar: u1830.med
Encoding: 252 -1 39
Width: 581
VWidth: 1750
GlyphClass: 2
Flags: W
LayerCount: 2
Fore
SplineSet
28 73 m 1,0,1
 20 116 20 116 13.5 167 c 128,-1,2
 7 218 7 218 3.5 269 c 128,-1,3
 0 320 0 320 0 364 c 2,4,-1
 0 444 l 1,5,-1
 50 444 l 1,6,7
 72 522 72 522 106.5 594.5 c 128,-1,8
 141 667 141 667 190 734 c 1,9,-1
 271 734 l 1,10,11
 271 661 271 661 277 588 c 128,-1,12
 283 515 283 515 296 444 c 1,13,-1
 611 444 l 1,14,-1
 611 364 l 1,15,-1
 313 364 l 1,16,17
 331 290 331 290 358 217 c 128,-1,18
 385 144 385 144 419 73 c 1,19,-1
 334 73 l 1,20,21
 276 204 276 204 244.5 336.5 c 128,-1,22
 213 469 213 469 201 617 c 1,23,-1
 197 617 l 1,24,25
 142 515 142 515 117.5 413.5 c 128,-1,26
 93 312 93 312 93 199 c 0,27,28
 93 123 93 123 105 73 c 1,29,-1
 28 73 l 1,0,1
EndSplineSet
EndChar

StartChar: u182C.fin
Encoding: 253 -1 40
Width: 663
VWidth: 1750
GlyphClass: 2
Flags: W
LayerCount: 2
Fore
SplineSet
506 74 m 1,0,1
 451 74 451 74 404.5 98 c 128,-1,2
 358 122 358 122 323.5 163 c 128,-1,3
 289 204 289 204 270 256 c 128,-1,4
 251 308 251 308 251 364 c 1,5,-1
 104 364 l 1,6,-1
 85 96 l 1,7,-1
 19 96 l 1,8,-1
 0 364 l 1,9,-1
 0 444 l 1,10,-1
 321 444 l 1,11,12
 321 350 321 350 341.5 287.5 c 128,-1,13
 362 225 362 225 427 188 c 1,14,15
 427 329 427 329 451.5 449 c 128,-1,16
 476 569 476 569 525 666 c 1,17,-1
 618 666 l 1,18,19
 556 554 556 554 531 435.5 c 128,-1,20
 506 317 506 317 506 186 c 2,21,-1
 506 74 l 1,0,1
EndSplineSet
EndChar

StartChar: u182C.finV1
Encoding: 254 -1 41
Width: 663
VWidth: 1750
GlyphClass: 2
Flags: W
LayerCount: 2
Fore
SplineSet
506 74 m 1,0,1
 451 74 451 74 404.5 98 c 128,-1,2
 358 122 358 122 323.5 163 c 128,-1,3
 289 204 289 204 270 256 c 128,-1,4
 251 308 251 308 251 364 c 1,5,-1
 104 364 l 1,6,-1
 85 96 l 1,7,-1
 19 96 l 1,8,-1
 0 364 l 1,9,-1
 0 444 l 1,10,-1
 321 444 l 1,11,12
 321 350 321 350 341.5 287.5 c 128,-1,13
 362 225 362 225 427 188 c 1,14,15
 427 329 427 329 451.5 449 c 128,-1,16
 476 569 476 569 525 666 c 1,17,-1
 618 666 l 1,18,19
 556 554 556 554 531 435.5 c 128,-1,20
 506 317 506 317 506 186 c 2,21,-1
 506 74 l 1,0,1
243 -141 m 1,22,-1
 200 -102 l 1,23,24
 262 -15 262 -15 321 44 c 1,25,-1
 382 -25 l 1,26,27
 337 -57 337 -57 302.5 -86 c 128,-1,28
 268 -115 268 -115 243 -141 c 1,22,-1
462 -196 m 1,29,-1
 419 -157 l 1,30,31
 481 -70 481 -70 540 -11 c 1,32,-1
 601 -80 l 1,33,34
 556 -112 556 -112 521.5 -141 c 128,-1,35
 487 -170 487 -170 462 -196 c 1,29,-1
EndSplineSet
Ligature2: "'fina' Terminal Forms in +BBwEPgQ9BDMEPgQ7BEwEQQQ6BDgEOQAA lookup 3 subtable" u182C FVS1
EndChar

StartChar: u182A_1823
Encoding: 256 -1 43
Width: 797
VWidth: 1750
GlyphClass: 2
Flags: W
LayerCount: 2
Fore
SplineSet
249 40 m 0,0,1
 143 40 143 40 94 125 c 128,-1,2
 45 210 45 210 45 375 c 0,3,4
 45 496 45 496 87.5 587.5 c 128,-1,5
 130 679 130 679 211 730.5 c 128,-1,6
 292 782 292 782 405 782 c 0,7,8
 519 782 519 782 596 728.5 c 128,-1,9
 673 675 673 675 712.5 583 c 128,-1,10
 752 491 752 491 752 375 c 0,11,12
 752 203 752 203 699.5 121.5 c 128,-1,13
 647 40 647 40 538 40 c 0,14,15
 490 40 490 40 453.5 63.5 c 128,-1,16
 417 87 417 87 396 135 c 1,17,18
 377 88 377 88 336.5 64 c 128,-1,19
 296 40 296 40 249 40 c 0,0,1
127 444 m 1,20,-1
 668 444 l 1,21,22
 658 520 658 520 624.5 577.5 c 128,-1,23
 591 635 591 635 536 667 c 128,-1,24
 481 699 481 699 405 699 c 0,25,26
 278 699 278 699 209.5 632 c 128,-1,27
 141 565 141 565 127 444 c 1,20,-1
249 123 m 0,28,29
 306 123 306 123 332.5 170.5 c 128,-1,30
 359 218 359 218 359 286 c 2,31,-1
 359 364 l 1,32,-1
 124 364 l 1,33,34
 124 293 124 293 133.5 238.5 c 128,-1,35
 143 184 143 184 170 153.5 c 128,-1,36
 197 123 197 123 249 123 c 0,28,29
538 123 m 0,37,38
 588 123 588 123 616.5 146.5 c 128,-1,39
 645 170 645 170 658 223 c 128,-1,40
 671 276 671 276 673 364 c 1,41,-1
 438 364 l 1,42,-1
 438 286 l 2,43,44
 438 123 438 123 538 123 c 0,37,38
EndSplineSet
Ligature2: "'rlig' Required Ligatures in +BBwEPgQ9BDMEPgQ7BEwEQQQ6BDgEOQAA lookup 25 subtable" u182A.ini u1823.fin
EndChar

StartChar: u182A_1823.ini
Encoding: 258 -1 45
Width: 933
VWidth: 1750
GlyphClass: 2
Flags: W
LayerCount: 2
Fore
SplineSet
249 40 m 0,0,1
 143 40 143 40 94 125 c 128,-1,2
 45 210 45 210 45 375 c 0,3,4
 45 496 45 496 87.5 587.5 c 128,-1,5
 130 679 130 679 211 730.5 c 128,-1,6
 292 782 292 782 405 782 c 0,7,8
 501 782 501 782 574 741 c 128,-1,9
 647 700 647 700 692 624 c 128,-1,10
 737 548 737 548 748 444 c 1,11,-1
 963 444 l 1,12,-1
 963 364 l 1,13,-1
 752 364 l 1,14,15
 751 201 751 201 698 120.5 c 128,-1,16
 645 40 645 40 538 40 c 0,17,18
 490 40 490 40 453.5 63.5 c 128,-1,19
 417 87 417 87 396 135 c 1,20,21
 377 88 377 88 336.5 64 c 128,-1,22
 296 40 296 40 249 40 c 0,0,1
127 444 m 1,23,-1
 668 444 l 1,24,25
 658 520 658 520 624.5 577.5 c 128,-1,26
 591 635 591 635 536 667 c 128,-1,27
 481 699 481 699 405 699 c 0,28,29
 278 699 278 699 209.5 632 c 128,-1,30
 141 565 141 565 127 444 c 1,23,-1
249 123 m 0,31,32
 306 123 306 123 332.5 170.5 c 128,-1,33
 359 218 359 218 359 286 c 2,34,-1
 359 364 l 1,35,-1
 124 364 l 1,36,37
 124 293 124 293 133.5 238.5 c 128,-1,38
 143 184 143 184 170 153.5 c 128,-1,39
 197 123 197 123 249 123 c 0,31,32
538 123 m 0,40,41
 588 123 588 123 616.5 146.5 c 128,-1,42
 645 170 645 170 658 223 c 128,-1,43
 671 276 671 276 673 364 c 1,44,-1
 438 364 l 1,45,-1
 438 286 l 2,46,47
 438 123 438 123 538 123 c 0,40,41
EndSplineSet
Ligature2: "'rlig' Required Ligatures in +BBwEPgQ9BDMEPgQ7BEwEQQQ6BDgEOQAA lookup 25 subtable" u182A.ini u1823.med
EndChar

StartChar: u1829.fin
Encoding: 265 -1 53
Width: 842
VWidth: 1750
GlyphClass: 2
Flags: W
LayerCount: 2
Fore
SplineSet
536 -264 m 1,0,1
 517 -233 517 -233 517 -187 c 0,2,3
 517 -128 517 -128 544.5 -77 c 128,-1,4
 572 -26 572 -26 612 28 c 0,5,6
 659 90 659 90 689 140 c 128,-1,7
 719 190 719 190 719 245 c 0,8,9
 719 305 719 305 682 334.5 c 128,-1,10
 645 364 645 364 565 364 c 2,11,-1
 297 364 l 1,12,13
 326 264 326 264 367.5 165.5 c 128,-1,14
 409 67 409 67 464 -31 c 1,15,-1
 391 -67 l 1,16,17
 333 41 333 41 290 148.5 c 128,-1,18
 247 256 247 256 218 364 c 1,19,-1
 104 364 l 1,20,-1
 85 96 l 1,21,-1
 19 96 l 1,22,-1
 0 364 l 1,23,-1
 0 444 l 1,24,-1
 566 444 l 2,25,26
 682 444 682 444 739.5 392.5 c 128,-1,27
 797 341 797 341 797 245 c 0,28,29
 797 176 797 176 759 109 c 128,-1,30
 721 42 721 42 664 -31 c 0,31,32
 629 -76 629 -76 613 -110 c 128,-1,33
 597 -144 597 -144 597 -187 c 0,34,35
 597 -228 597 -228 618 -264 c 1,36,-1
 536 -264 l 1,0,1
EndSplineSet
EndChar

StartChar: u1828.medV2
Encoding: 266 -1 54
Width: 427
VWidth: 1750
GlyphClass: 2
Flags: W
LayerCount: 2
Fore
SplineSet
228 53 m 1,0,1
 148 58 148 58 89 102.5 c 128,-1,2
 30 147 30 147 -1.5 216 c 128,-1,3
 -33 285 -33 285 -33 364 c 2,4,-1
 -33 444 l 1,5,-1
 41 444 l 1,6,7
 41 378 41 378 49 323 c 128,-1,8
 57 268 57 268 81 225.5 c 128,-1,9
 105 183 105 183 151 156 c 1,10,11
 151 375 151 375 199 555 c 0,12,13
 247 734 247 734 325 836 c 1,14,-1
 417 836 l 1,15,16
 372 781 372 781 336.5 708.5 c 128,-1,17
 301 636 301 636 277 547 c 0,18,19
 253 459 253 459 240.5 361 c 128,-1,20
 228 263 228 263 228 156 c 2,21,-1
 228 53 l 1,0,1
182 -185 m 1,22,-1
 139 -146 l 1,23,24
 201 -59 201 -59 260 0 c 1,25,-1
 321 -69 l 1,26,27
 276 -101 276 -101 241.5 -130 c 128,-1,28
 207 -159 207 -159 182 -185 c 1,22,-1
EndSplineSet
Ligature2: "'rlig' Required Ligatures in +BBwEPgQ9BDMEPgQ7BEwEQQQ6BDgEOQAA lookup 10 subtable" u1828.fin MVS
Ligature2: "'medi' Medial Forms in +BBwEPgQ9BDMEPgQ7BEwEQQQ6BDgEOQAA lookup 5 subtable" u1828 FVS2
EndChar

StartChar: u1828.finV1
Encoding: 268 -1 56
Width: 427
VWidth: 1750
GlyphClass: 2
Flags: W
LayerCount: 2
Fore
SplineSet
228 53 m 1,0,1
 148 58 148 58 89 102.5 c 128,-1,2
 30 147 30 147 -1.5 216 c 128,-1,3
 -33 285 -33 285 -33 364 c 2,4,-1
 -33 444 l 1,5,-1
 41 444 l 1,6,7
 41 378 41 378 49 323 c 128,-1,8
 57 268 57 268 81 225.5 c 128,-1,9
 105 183 105 183 151 156 c 1,10,11
 151 375 151 375 199 555 c 0,12,13
 247 734 247 734 325 836 c 1,14,-1
 417 836 l 1,15,16
 372 781 372 781 336.5 708.5 c 128,-1,17
 301 636 301 636 277 547 c 0,18,19
 253 459 253 459 240.5 361 c 128,-1,20
 228 263 228 263 228 156 c 2,21,-1
 228 53 l 1,0,1
182 -185 m 1,22,-1
 139 -146 l 1,23,24
 201 -59 201 -59 260 0 c 1,25,-1
 321 -69 l 1,26,27
 276 -101 276 -101 241.5 -130 c 128,-1,28
 207 -159 207 -159 182 -185 c 1,22,-1
EndSplineSet
Substitution2: "Single Substitution lookup 24 subtable" u1828.fin
Ligature2: "'fina' Terminal Forms in +BBwEPgQ9BDMEPgQ7BEwEQQQ6BDgEOQAA lookup 3 subtable" u1828 FVS2
EndChar

StartChar: u1822.fin
Encoding: 269 -1 57
Width: 501
VWidth: 1750
GlyphClass: 2
Flags: W
LayerCount: 2
Fore
SplineSet
127 42 m 1,0,1
 -2 234 -2 234 -2 407 c 0,2,3
 -2 497 -2 497 23.5 569.5 c 128,-1,4
 49 642 49 642 99.5 684.5 c 128,-1,5
 150 727 150 727 226 727 c 0,6,7
 284 727 284 727 326 699.5 c 128,-1,8
 368 672 368 672 395.5 624.5 c 128,-1,9
 423 577 423 577 437.5 515.5 c 128,-1,10
 452 454 452 454 456 386 c 1,11,-1
 376 376 l 1,12,13
 369 504 369 504 330.5 574 c 128,-1,14
 292 644 292 644 226 644 c 0,15,16
 157 644 157 644 117 585.5 c 128,-1,17
 77 527 77 527 77 407 c 0,18,19
 77 316 77 316 108.5 241.5 c 128,-1,20
 140 167 140 167 198 85 c 1,21,-1
 127 42 l 1,0,1
EndSplineSet
EndChar

StartChar: u1822.ini
Encoding: 270 -1 58
Width: 814
VWidth: 1750
GlyphClass: 2
Flags: W
LayerCount: 2
Fore
SplineSet
626 -67 m 1,0,1
 568 42 568 42 525 149.5 c 128,-1,2
 482 257 482 257 453 364 c 1,3,-1
 445 364 l 2,4,5
 391 364 391 364 361 351 c 128,-1,6
 331 338 331 338 318.5 306.5 c 128,-1,7
 306 275 306 275 302 219 c 2,8,-1
 292 74 l 1,9,-1
 226 74 l 1,10,-1
 200 437 l 2,11,12
 196 499 196 499 180 537 c 128,-1,13
 164 575 164 575 118 575 c 256,14,15
 72 575 72 575 10 550 c 1,16,-1
 10 623 l 1,17,18
 81 653 81 653 139 653 c 0,19,20
 194 653 194 653 223 628 c 128,-1,21
 252 603 252 603 264 556.5 c 128,-1,22
 276 510 276 510 278 445 c 2,23,-1
 281 361 l 1,24,-1
 285 361 l 1,25,26
 318 444 318 444 444 444 c 2,27,-1
 844 444 l 1,28,-1
 844 364 l 1,29,-1
 532 364 l 1,30,31
 561 264 561 264 602.5 165.5 c 128,-1,32
 644 67 644 67 699 -31 c 1,33,-1
 626 -67 l 1,0,1
EndSplineSet
Substitution2: "Single Substitution lookup 22 subtable" u1822.med
EndChar

StartChar: u1820.medV1
Encoding: 271 -1 59
Width: 568
VWidth: 1750
GlyphClass: 2
Flags: W
LayerCount: 2
Fore
SplineSet
19 96 m 1,0,-1
 0 364 l 1,1,-1
 0 444 l 1,2,-1
 598 444 l 1,3,-1
 598 364 l 1,4,-1
 388 364 l 1,5,-1
 369 96 l 1,6,-1
 303 96 l 1,7,-1
 284 364 l 1,8,-1
 104 364 l 1,9,-1
 85 96 l 1,10,-1
 19 96 l 1,0,-1
EndSplineSet
Ligature2: "'medi' Medial Forms in +BBwEPgQ9BDMEPgQ7BEwEQQQ6BDgEOQAA lookup 5 subtable" u1820 FVS1
EndChar

StartChar: u182A_1825.ini
Encoding: 280 -1 69
Width: 1224
VWidth: 1750
GlyphClass: 2
Flags: W
LayerCount: 2
Fore
SplineSet
1036 -67 m 1,0,1
 978 41 978 41 935 148.5 c 128,-1,2
 892 256 892 256 863 364 c 1,3,-1
 752 364 l 1,4,5
 751 201 751 201 698 120.5 c 128,-1,6
 645 40 645 40 538 40 c 0,7,8
 490 40 490 40 453.5 63.5 c 128,-1,9
 417 87 417 87 396 135 c 1,10,11
 377 88 377 88 336.5 64 c 128,-1,12
 296 40 296 40 249 40 c 0,13,14
 143 40 143 40 94 125 c 128,-1,15
 45 210 45 210 45 375 c 0,16,17
 45 495 45 495 87.5 586.5 c 128,-1,18
 130 678 130 678 211 730 c 128,-1,19
 292 782 292 782 405 782 c 0,20,21
 502 782 502 782 575 741 c 128,-1,22
 648 700 648 700 692.5 624 c 128,-1,23
 737 548 737 548 748 444 c 1,24,-1
 1254 444 l 1,25,-1
 1254 364 l 1,26,-1
 942 364 l 1,27,28
 1000 162 1000 162 1109 -31 c 1,29,-1
 1036 -67 l 1,0,1
127 444 m 1,30,-1
 668 444 l 1,31,32
 658 520 658 520 624.5 577.5 c 128,-1,33
 591 635 591 635 536 667 c 128,-1,34
 481 699 481 699 405 699 c 0,35,36
 276 699 276 699 209.5 632 c 128,-1,37
 143 565 143 565 127 444 c 1,30,-1
248 123 m 256,38,39
 301 123 301 123 330 167 c 128,-1,40
 359 211 359 211 359 281 c 2,41,-1
 359 364 l 1,42,-1
 124 364 l 1,43,44
 124 296 124 296 133 241 c 128,-1,45
 142 186 142 186 168.5 154.5 c 128,-1,46
 195 123 195 123 248 123 c 256,38,39
538 123 m 0,47,48
 588 123 588 123 616.5 146.5 c 128,-1,49
 645 170 645 170 658 223 c 128,-1,50
 671 276 671 276 673 364 c 1,51,-1
 438 364 l 1,52,-1
 438 286 l 2,53,54
 438 123 438 123 538 123 c 0,47,48
EndSplineSet
Ligature2: "'rlig' Required Ligatures in +BBwEPgQ9BDMEPgQ7BEwEQQQ6BDgEOQAA lookup 25 subtable" u182A.ini u1825.medV1
Ligature2: "'rlig' Required Ligatures in +BBwEPgQ9BDMEPgQ7BEwEQQQ6BDgEOQAA lookup 25 subtable" u182A.ini u1825.med FVS1
EndChar

StartChar: u182F.med
Encoding: 285 -1 74
Width: 284
VWidth: 1750
GlyphClass: 2
Flags: W
LayerCount: 2
Fore
SplineSet
19 96 m 1,0,-1
 0 364 l 1,1,-1
 0 444 l 1,2,-1
 16 444 l 1,3,4
 21 552 21 552 62 639 c 1,5,-1
 28 639 l 2,6,7
 -33 639 -33 639 -77.5 645 c 128,-1,8
 -122 651 -122 651 -152 677 c 1,9,-1
 -152 755 l 1,10,11
 -114 730 -114 730 -69.5 724.5 c 128,-1,12
 -25 719 -25 719 28 719 c 2,13,-1
 148 719 l 1,14,-1
 148 653 l 1,15,16
 119 599 119 599 103.5 549.5 c 128,-1,17
 88 500 88 500 86 444 c 1,18,-1
 314 444 l 1,19,-1
 314 364 l 1,20,-1
 104 364 l 1,21,-1
 85 96 l 1,22,-1
 19 96 l 1,0,-1
EndSplineSet
Substitution2: "Single Substitution lookup 18 subtable" u182F.medx
EndChar

StartChar: u182F
Encoding: 50 6191 75
Width: 567
VWidth: 1750
GlyphClass: 2
Flags: W
LayerCount: 2
Fore
SplineSet
226 74 m 1,0,-1
 200 437 l 2,1,2
 196 499 196 499 180.5 537 c 128,-1,3
 165 575 165 575 118 575 c 0,4,5
 72 575 72 575 10 550 c 1,6,-1
 10 623 l 1,7,8
 81 653 81 653 139 653 c 0,9,10
 172 653 172 653 200 642 c 1,11,12
 218 708 218 708 247 752 c 1,13,-1
 219 752 l 2,14,15
 161 752 161 752 115.5 757.5 c 128,-1,16
 70 763 70 763 39 790 c 1,17,-1
 39 868 l 1,18,19
 74 843 74 843 121 837.5 c 128,-1,20
 168 832 168 832 219 832 c 2,21,-1
 339 832 l 1,22,-1
 339 766 l 1,23,24
 304 715 304 715 284 669 c 128,-1,25
 264 623 264 623 259 573 c 1,26,27
 275 528 275 528 278 445 c 2,28,-1
 281 361 l 1,29,-1
 285 361 l 1,30,31
 318 444 318 444 444 444 c 2,32,-1
 522 444 l 1,33,-1
 522 364 l 1,34,-1
 445 364 l 2,35,36
 391 364 391 364 361 351 c 128,-1,37
 331 338 331 338 318.5 306.5 c 128,-1,38
 306 275 306 275 302 219 c 2,39,-1
 292 74 l 1,40,-1
 226 74 l 1,0,-1
EndSplineSet
Substitution2: "'init' +BB0EMARHBDAEOwRMBD0ESwQ1 +BEQEPgRABDwESwAA in +BBwEPgQ9BDMEPgQ7BEwEQQQ6BDgEOQAA lookup 8 subtable" u182F.ini
Substitution2: "'medi' Medial Forms in +BBwEPgQ9BDMEPgQ7BEwEQQQ6BDgEOQAA lookup 6 subtable" u182F.med
Substitution2: "'fina' Terminal Forms in +BBwEPgQ9BDMEPgQ7BEwEQQQ6BDgEOQAA lookup 4 subtable" u182F.fin
EndChar

StartChar: u1829_182F.med
Encoding: 286 -1 76
Width: 858
VWidth: 1750
GlyphClass: 2
Flags: W
LayerCount: 2
Fore
SplineSet
338 70 m 1,0,1
 295 147 295 147 271.5 220.5 c 128,-1,2
 248 294 248 294 243 364 c 1,3,-1
 104 364 l 1,4,-1
 85 96 l 1,5,-1
 19 96 l 1,6,-1
 0 364 l 1,7,-1
 0 444 l 1,8,-1
 245 444 l 1,9,10
 255 532 255 532 305.5 589 c 128,-1,11
 356 646 356 646 444 646 c 0,12,13
 507 646 507 646 553 609 c 1,14,15
 567 692 567 692 596 752 c 1,16,-1
 568 752 l 2,17,18
 510 752 510 752 464.5 757.5 c 128,-1,19
 419 763 419 763 388 790 c 1,20,-1
 388 868 l 1,21,22
 423 843 423 843 470 837.5 c 128,-1,23
 517 832 517 832 568 832 c 2,24,-1
 688 832 l 1,25,-1
 688 766 l 1,26,27
 653 703 653 703 634.5 646.5 c 128,-1,28
 616 590 616 590 616 523 c 1,29,30
 624 506 624 506 629.5 486 c 128,-1,31
 635 466 635 466 639 444 c 1,32,-1
 888 444 l 1,33,-1
 888 364 l 1,34,-1
 678 364 l 1,35,-1
 659 96 l 1,36,-1
 593 96 l 1,37,-1
 574 365 l 2,38,39
 567 466 567 466 532.5 514.5 c 128,-1,40
 498 563 498 563 444 563 c 0,41,42
 384 563 384 563 352.5 518.5 c 128,-1,43
 321 474 321 474 321 396 c 256,44,45
 321 318 321 318 345.5 250 c 128,-1,46
 370 182 370 182 412 112 c 1,47,-1
 338 70 l 1,0,1
EndSplineSet
Ligature2: "'rlig' Required Ligatures in +BBwEPgQ9BDMEPgQ7BEwEQQQ6BDgEOQAA lookup 25 subtable" u1829.med u182F.med
EndChar

StartChar: u182E.fin
Encoding: 287 -1 77
Width: 455
VWidth: 1750
GlyphClass: 2
Flags: W
LayerCount: 2
Fore
SplineSet
270 74 m 1,0,1
 211 75 211 75 161.5 99 c 128,-1,2
 112 123 112 123 76 163.5 c 128,-1,3
 40 204 40 204 20 255.5 c 128,-1,4
 0 307 0 307 0 364 c 2,5,-1
 0 449 l 2,6,7
 0 536 0 536 -27 620 c 1,8,-1
 -27 686 l 1,9,-1
 45 686 l 2,10,11
 99 686 99 686 139.5 692 c 128,-1,12
 180 698 180 698 213 722 c 1,13,-1
 213 644 l 1,14,15
 184 619 184 619 142.5 612.5 c 128,-1,16
 101 606 101 606 49 606 c 1,17,18
 60 570 60 570 64.5 531 c 128,-1,19
 69 492 69 492 70 449 c 0,20,21
 72 375 72 375 82.5 325 c 128,-1,22
 93 275 93 275 119 242 c 128,-1,23
 145 209 145 209 191 183 c 1,24,25
 191 343 191 343 228.5 475.5 c 128,-1,26
 266 608 266 608 346 718 c 1,27,-1
 445 718 l 1,28,29
 384 631 384 631 345 549 c 128,-1,30
 306 467 306 467 288 379 c 128,-1,31
 270 291 270 291 270 186 c 2,32,-1
 270 74 l 1,0,1
EndSplineSet
EndChar

StartChar: u182C.ini
Encoding: 288 -1 78
Width: 788
VWidth: 1750
GlyphClass: 2
Flags: W
LayerCount: 2
Fore
SplineSet
221 96 m 1,0,1
 217 147 217 147 210.5 195.5 c 128,-1,2
 204 244 204 244 192.5 282.5 c 128,-1,3
 181 321 181 321 161.5 343.5 c 128,-1,4
 142 366 142 366 112 366 c 0,5,6
 70 366 70 366 45 353 c 1,7,-1
 45 433 l 1,8,9
 80 450 80 450 129 451 c 1,10,11
 136 530 136 530 164.5 592.5 c 128,-1,12
 193 655 193 655 242.5 691 c 128,-1,13
 292 727 292 727 362 727 c 0,14,15
 564 727 564 727 591 444 c 1,16,-1
 818 444 l 1,17,-1
 818 364 l 1,18,-1
 594 364 l 1,19,20
 594 240 594 240 573 96 c 1,21,-1
 495 96 l 1,22,23
 503 163 503 163 507.5 233.5 c 128,-1,24
 512 304 512 304 512 378 c 0,25,26
 512 517 512 517 474.5 580.5 c 128,-1,27
 437 644 437 644 362 644 c 0,28,29
 295 644 295 644 253.5 590 c 128,-1,30
 212 536 212 536 206 423 c 1,31,32
 284 354 284 354 299 96 c 1,33,-1
 221 96 l 1,0,1
EndSplineSet
Substitution2: "Single Substitution lookup 18 subtable" u182C.iniV1
EndChar

StartChar: u1831.ini
Encoding: 289 -1 79
Width: 681
VWidth: 1750
GlyphClass: 2
Flags: W
LayerCount: 2
Fore
SplineSet
210 777 m 1,0,-1
 167 816 l 1,1,2
 229 903 229 903 288 962 c 1,3,-1
 349 893 l 1,4,5
 304 861 304 861 269.5 832 c 128,-1,6
 235 803 235 803 210 777 c 1,0,-1
417 777 m 1,7,-1
 374 816 l 1,8,9
 436 903 436 903 495 962 c 1,10,-1
 556 893 l 1,11,12
 511 861 511 861 476.5 832 c 128,-1,13
 442 803 442 803 417 777 c 1,7,-1
443 73 m 1,14,15
 427 158 427 158 409.5 236.5 c 128,-1,16
 392 315 392 315 374 387 c 0,17,18
 356 460 356 460 339 518.5 c 128,-1,19
 322 577 322 577 306 620 c 1,20,-1
 302 620 l 1,21,22
 298 589 298 589 291 554 c 128,-1,23
 284 519 284 519 273 480 c 0,24,25
 255 416 255 416 225.5 381 c 128,-1,26
 196 346 196 346 135 346 c 0,27,28
 88 346 88 346 45 371 c 1,29,-1
 45 446 l 1,30,31
 90 427 90 427 130 427 c 0,32,33
 175 427 175 427 199 486 c 0,34,35
 224 546 224 546 255 734 c 1,36,-1
 349 734 l 1,37,38
 371 665 371 665 392 592.5 c 128,-1,39
 413 520 413 520 433 444 c 1,40,-1
 711 444 l 1,41,-1
 711 364 l 1,42,-1
 454 364 l 1,43,44
 471 296 471 296 487 224 c 128,-1,45
 503 152 503 152 519 73 c 1,46,-1
 443 73 l 1,14,15
EndSplineSet
EndChar

StartChar: u1831.med
Encoding: 290 -1 80
Width: 581
VWidth: 1750
GlyphClass: 2
Flags: W
LayerCount: 2
Fore
SplineSet
140 777 m 1,0,-1
 97 816 l 1,1,2
 159 903 159 903 218 962 c 1,3,-1
 279 893 l 1,4,5
 234 861 234 861 199.5 832 c 128,-1,6
 165 803 165 803 140 777 c 1,0,-1
347 777 m 1,7,-1
 304 816 l 1,8,9
 366 903 366 903 425 962 c 1,10,-1
 486 893 l 1,11,12
 441 861 441 861 406.5 832 c 128,-1,13
 372 803 372 803 347 777 c 1,7,-1
28 73 m 1,14,15
 20 116 20 116 13.5 167 c 128,-1,16
 7 218 7 218 3.5 269 c 128,-1,17
 0 320 0 320 0 364 c 2,18,-1
 0 444 l 1,19,-1
 50 444 l 1,20,21
 72 522 72 522 106.5 594.5 c 128,-1,22
 141 667 141 667 190 734 c 1,23,-1
 271 734 l 1,24,25
 271 661 271 661 277 588 c 128,-1,26
 283 515 283 515 296 444 c 1,27,-1
 611 444 l 1,28,-1
 611 364 l 1,29,-1
 313 364 l 1,30,31
 331 290 331 290 358 217 c 128,-1,32
 385 144 385 144 419 73 c 1,33,-1
 334 73 l 1,34,35
 276 204 276 204 244.5 336.5 c 128,-1,36
 213 469 213 469 201 617 c 1,37,-1
 197 617 l 1,38,39
 142 515 142 515 117.5 413.5 c 128,-1,40
 93 312 93 312 93 199 c 0,41,42
 93 123 93 123 105 73 c 1,43,-1
 28 73 l 1,14,15
EndSplineSet
EndChar

StartChar: u1831
Encoding: 52 6193 81
Width: 756
VWidth: 1750
GlyphClass: 2
Flags: W
LayerCount: 2
Fore
SplineSet
210 777 m 1,0,-1
 167 816 l 1,1,2
 229 903 229 903 288 962 c 1,3,-1
 349 893 l 1,4,5
 304 861 304 861 269.5 832 c 128,-1,6
 235 803 235 803 210 777 c 1,0,-1
417 777 m 1,7,-1
 374 816 l 1,8,9
 436 903 436 903 495 962 c 1,10,-1
 556 893 l 1,11,12
 511 861 511 861 476.5 832 c 128,-1,13
 442 803 442 803 417 777 c 1,7,-1
443 73 m 1,14,15
 427 158 427 158 409.5 236.5 c 128,-1,16
 392 315 392 315 374 387 c 0,17,18
 356 460 356 460 339 518.5 c 128,-1,19
 322 577 322 577 306 620 c 1,20,-1
 302 620 l 1,21,22
 298 589 298 589 291 554 c 128,-1,23
 284 519 284 519 273 480 c 0,24,25
 255 416 255 416 225.5 381 c 128,-1,26
 196 346 196 346 135 346 c 0,27,28
 88 346 88 346 45 371 c 1,29,-1
 45 446 l 1,30,31
 90 427 90 427 130 427 c 0,32,33
 175 427 175 427 199 486 c 0,34,35
 224 546 224 546 255 734 c 1,36,-1
 349 734 l 1,37,38
 371 665 371 665 392 592.5 c 128,-1,39
 413 520 413 520 433 444 c 1,40,-1
 711 444 l 1,41,-1
 711 364 l 1,42,-1
 454 364 l 1,43,44
 471 296 471 296 487 224 c 128,-1,45
 503 152 503 152 519 73 c 1,46,-1
 443 73 l 1,14,15
EndSplineSet
Substitution2: "'init' +BB0EMARHBDAEOwRMBD0ESwQ1 +BEQEPgRABDwESwAA in +BBwEPgQ9BDMEPgQ7BEwEQQQ6BDgEOQAA lookup 8 subtable" u1831.ini
Substitution2: "'medi' Medial Forms in +BBwEPgQ9BDMEPgQ7BEwEQQQ6BDgEOQAA lookup 6 subtable" u1831.med
Substitution2: "'fina' Terminal Forms in +BBwEPgQ9BDMEPgQ7BEwEQQQ6BDgEOQAA lookup 4 subtable" u1831.fin
EndChar

StartChar: u1830
Encoding: 51 6192 82
Width: 756
VWidth: 1750
GlyphClass: 2
Flags: W
LayerCount: 2
Fore
SplineSet
443 73 m 1,0,1
 427 158 427 158 409.5 236.5 c 128,-1,2
 392 315 392 315 374 387 c 0,3,4
 356 460 356 460 339 518.5 c 128,-1,5
 322 577 322 577 306 620 c 1,6,-1
 302 620 l 1,7,8
 298 589 298 589 291 554 c 128,-1,9
 284 519 284 519 273 480 c 0,10,11
 255 416 255 416 225.5 381 c 128,-1,12
 196 346 196 346 135 346 c 0,13,14
 88 346 88 346 45 371 c 1,15,-1
 45 446 l 1,16,17
 90 427 90 427 130 427 c 0,18,19
 175 427 175 427 199 486 c 0,20,21
 224 546 224 546 255 734 c 1,22,-1
 349 734 l 1,23,24
 371 665 371 665 392 592.5 c 128,-1,25
 413 520 413 520 433 444 c 1,26,-1
 711 444 l 1,27,-1
 711 364 l 1,28,-1
 454 364 l 1,29,30
 471 296 471 296 487 224 c 128,-1,31
 503 152 503 152 519 73 c 1,32,-1
 443 73 l 1,0,1
EndSplineSet
Substitution2: "'init' +BB0EMARHBDAEOwRMBD0ESwQ1 +BEQEPgRABDwESwAA in +BBwEPgQ9BDMEPgQ7BEwEQQQ6BDgEOQAA lookup 8 subtable" u1830.ini
Substitution2: "'medi' Medial Forms in +BBwEPgQ9BDMEPgQ7BEwEQQQ6BDgEOQAA lookup 6 subtable" u1830.med
Substitution2: "'fina' Terminal Forms in +BBwEPgQ9BDMEPgQ7BEwEQQQ6BDgEOQAA lookup 4 subtable" u1830.fin
EndChar

StartChar: u1831.fin
Encoding: 291 -1 83
Width: 685
VWidth: 1750
GlyphClass: 2
Flags: W
LayerCount: 2
Fore
SplineSet
108 777 m 1,0,-1
 65 816 l 1,1,2
 127 903 127 903 186 962 c 1,3,-1
 247 893 l 1,4,5
 202 861 202 861 167.5 832 c 128,-1,6
 133 803 133 803 108 777 c 1,0,-1
315 777 m 1,7,-1
 272 816 l 1,8,9
 334 903 334 903 393 962 c 1,10,-1
 454 893 l 1,11,12
 409 861 409 861 374.5 832 c 128,-1,13
 340 803 340 803 315 777 c 1,7,-1
27 73 m 1,14,15
 15 144 15 144 7.5 221 c 128,-1,16
 0 298 0 298 0 364 c 2,17,-1
 0 444 l 1,18,-1
 32 444 l 1,19,20
 48 518 48 518 79 591 c 128,-1,21
 110 664 110 664 157 734 c 1,22,-1
 238 734 l 1,23,24
 238 600 238 600 265 475 c 0,25,26
 292 352 292 352 354 223 c 1,27,-1
 358 223 l 1,28,29
 384 337 384 337 431.5 444 c 128,-1,30
 479 551 479 551 543 642 c 1,31,-1
 640 642 l 1,32,33
 550 519 550 519 494.5 388.5 c 128,-1,34
 439 258 439 258 408 106 c 1,35,-1
 328 106 l 1,36,37
 294 167 294 167 267.5 228 c 128,-1,38
 241 289 241 289 222 350 c 256,39,40
 203 411 203 411 190 477 c 128,-1,41
 177 543 177 543 170 613 c 1,42,-1
 166 613 l 1,43,44
 125 525 125 525 105.5 445 c 128,-1,45
 86 365 86 365 86 276 c 0,46,47
 86 148 86 148 105 73 c 1,48,-1
 27 73 l 1,14,15
EndSplineSet
EndChar

StartChar: u1830.finV1
Encoding: 292 -1 84
Width: 428
VWidth: 1750
GlyphClass: 2
Flags: W
LayerCount: 2
Fore
SplineSet
80 106 m 1,0,1
 49 142 49 142 23 185.5 c 128,-1,2
 -3 229 -3 229 -18 275 c 128,-1,3
 -33 321 -33 321 -33 364 c 2,4,-1
 -33 444 l 1,5,-1
 37 444 l 1,6,7
 37 374 37 374 48 321.5 c 128,-1,8
 59 269 59 269 97 223 c 1,9,-1
 101 223 l 1,10,11
 116 294 116 294 143.5 368.5 c 128,-1,12
 171 443 171 443 207.5 513.5 c 128,-1,13
 244 584 244 584 286 642 c 1,14,-1
 383 642 l 1,15,16
 294 519 294 519 238.5 390 c 128,-1,17
 183 261 183 261 151 106 c 1,18,-1
 80 106 l 1,0,1
EndSplineSet
Ligature2: "'fina' Terminal Forms in +BBwEPgQ9BDMEPgQ7BEwEQQQ6BDgEOQAA lookup 3 subtable" u1830 FVS1
EndChar

StartChar: u183E.med
Encoding: 293 -1 85
Width: 521
VWidth: 1750
GlyphClass: 2
Flags: W
LayerCount: 2
Fore
SplineSet
140 -182 m 1,0,1
 69 -50 69 -50 34.5 83 c 128,-1,2
 0 216 0 216 0 364 c 2,3,-1
 0 444 l 1,4,-1
 75 444 l 1,5,-1
 75 364 l 2,6,7
 75 241 75 241 99 138 c 128,-1,8
 123 35 123 35 179 -72 c 1,9,-1
 303 -17 l 1,10,11
 219 148 219 148 219 366 c 2,12,-1
 219 444 l 1,13,-1
 551 444 l 1,14,-1
 551 364 l 1,15,-1
 295 364 l 1,16,17
 297 252 297 252 325 149.5 c 128,-1,18
 353 47 353 47 409 -57 c 1,19,-1
 140 -182 l 1,0,1
EndSplineSet
EndChar

StartChar: u1820
Encoding: 35 6176 88
Width: 929
VWidth: 1750
GlyphClass: 2
Flags: W
LayerCount: 2
Fore
SplineSet
730 53 m 1,0,1
 650 58 650 58 591.5 102 c 128,-1,2
 533 146 533 146 501 215.5 c 128,-1,3
 469 285 469 285 469 364 c 1,4,-1
 445 364 l 2,5,6
 391 364 391 364 361 351 c 128,-1,7
 331 338 331 338 318.5 306.5 c 128,-1,8
 306 275 306 275 302 219 c 2,9,-1
 292 74 l 1,10,-1
 226 74 l 1,11,-1
 200 437 l 2,12,13
 196 499 196 499 180 537 c 128,-1,14
 164 575 164 575 118 575 c 256,15,16
 72 575 72 575 10 550 c 1,17,-1
 10 623 l 1,18,19
 81 653 81 653 139 653 c 0,20,21
 194 653 194 653 223 628 c 128,-1,22
 252 603 252 603 264 556.5 c 128,-1,23
 276 510 276 510 278 445 c 2,24,-1
 281 361 l 1,25,-1
 285 361 l 1,26,27
 318 444 318 444 444 444 c 2,28,-1
 543 444 l 1,29,30
 543 378 543 378 551 323 c 128,-1,31
 559 268 559 268 583 225.5 c 128,-1,32
 607 183 607 183 653 156 c 1,33,34
 653 246 653 246 663 341 c 128,-1,35
 673 436 673 436 694.5 527 c 128,-1,36
 716 618 716 618 749 697 c 128,-1,37
 782 776 782 776 827 836 c 1,38,-1
 919 836 l 1,39,40
 867 772 867 772 831 692.5 c 128,-1,41
 795 613 795 613 772.5 523 c 128,-1,42
 750 433 750 433 740 340 c 128,-1,43
 730 247 730 247 730 156 c 2,44,-1
 730 53 l 1,0,1
EndSplineSet
Substitution2: "Single Substitution lookup 19 subtable" u1820.finV1
Substitution2: "Single Substitution lookup 18 subtable" u1820.V1
Substitution2: "'init' +BB0EMARHBDAEOwRMBD0ESwQ1 +BEQEPgRABDwESwAA in +BBwEPgQ9BDMEPgQ7BEwEQQQ6BDgEOQAA lookup 8 subtable" u1820.ini
Substitution2: "'medi' Medial Forms in +BBwEPgQ9BDMEPgQ7BEwEQQQ6BDgEOQAA lookup 6 subtable" u1820.med
Substitution2: "'fina' Terminal Forms in +BBwEPgQ9BDMEPgQ7BEwEQQQ6BDgEOQAA lookup 4 subtable" u1820.fin
EndChar

StartChar: u1820.V1
Encoding: 296 -1 89
Width: 824
VWidth: 1750
GlyphClass: 2
Flags: W
LayerCount: 2
Fore
SplineSet
518 -264 m 1,0,1
 499 -233 499 -233 499 -187 c 0,2,3
 499 -131 499 -131 525.5 -79 c 128,-1,4
 552 -27 552 -27 594 28 c 0,5,6
 641 91 641 91 671 142 c 128,-1,7
 701 193 701 193 701 245 c 0,8,9
 701 305 701 305 664 334.5 c 128,-1,10
 627 364 627 364 547 364 c 2,11,-1
 445 364 l 2,12,13
 391 364 391 364 361 351 c 128,-1,14
 331 338 331 338 318.5 306.5 c 128,-1,15
 306 275 306 275 302 219 c 2,16,-1
 292 74 l 1,17,-1
 226 74 l 1,18,-1
 200 437 l 2,19,20
 196 499 196 499 180 537 c 128,-1,21
 164 575 164 575 118 575 c 256,22,23
 72 575 72 575 10 550 c 1,24,-1
 10 623 l 1,25,26
 81 653 81 653 139 653 c 0,27,28
 194 653 194 653 223 628 c 128,-1,29
 252 603 252 603 264 556.5 c 128,-1,30
 276 510 276 510 278 445 c 2,31,-1
 281 361 l 1,32,-1
 285 361 l 1,33,34
 318 444 318 444 444 444 c 2,35,-1
 548 444 l 2,36,37
 664 444 664 444 721.5 392.5 c 128,-1,38
 779 341 779 341 779 245 c 0,39,40
 779 176 779 176 741 109.5 c 128,-1,41
 703 43 703 43 646 -31 c 0,42,43
 622 -62 622 -62 607.5 -85.5 c 128,-1,44
 593 -109 593 -109 586 -132 c 128,-1,45
 579 -155 579 -155 579 -187 c 0,46,47
 579 -228 579 -228 600 -264 c 1,48,-1
 518 -264 l 1,0,1
EndSplineSet
Ligature2: "'isol' Isolated Forms in +BBwEPgQ9BDMEPgQ7BEwEQQQ6BDgEOQAA lookup 1 subtable" u1820 FVS1
EndChar

StartChar: u1820.ini
Encoding: 297 -1 90
Width: 786
VWidth: 1750
GlyphClass: 2
Flags: W
LayerCount: 2
Fore
SplineSet
226 74 m 1,0,-1
 200 437 l 2,1,2
 196 499 196 499 180 537 c 128,-1,3
 164 575 164 575 118 575 c 256,4,5
 72 575 72 575 10 550 c 1,6,-1
 10 623 l 1,7,8
 81 653 81 653 139 653 c 0,9,10
 194 653 194 653 223 628 c 128,-1,11
 252 603 252 603 264 556.5 c 128,-1,12
 276 510 276 510 278 445 c 2,13,-1
 281 361 l 1,14,-1
 285 361 l 1,15,16
 318 444 318 444 444 444 c 2,17,-1
 816 444 l 1,18,-1
 816 364 l 1,19,-1
 606 364 l 1,20,-1
 587 96 l 1,21,-1
 521 96 l 1,22,-1
 502 364 l 1,23,-1
 445 364 l 2,24,25
 390 364 390 364 360.5 350 c 128,-1,26
 331 336 331 336 318.5 304.5 c 128,-1,27
 306 273 306 273 302 219 c 2,28,-1
 292 74 l 1,29,-1
 226 74 l 1,0,-1
EndSplineSet
Substitution2: "Single Substitution lookup 18 subtable" u1820.iniV1
EndChar

StartChar: u182A_1820.ini
Encoding: 298 -1 91
Width: 863
VWidth: 1750
GlyphClass: 2
Flags: W
LayerCount: 2
Fore
SplineSet
271 40 m 0,0,1
 45 40 45 40 45 408 c 0,2,3
 45 519 45 519 79.5 603 c 128,-1,4
 114 687 114 687 182.5 734.5 c 128,-1,5
 251 782 251 782 352 782 c 0,6,7
 444 782 444 782 505.5 737.5 c 128,-1,8
 567 693 567 693 603 617 c 128,-1,9
 639 541 639 541 652 444 c 1,10,-1
 893 444 l 1,11,-1
 893 364 l 1,12,-1
 683 364 l 1,13,-1
 664 96 l 1,14,-1
 598 96 l 1,15,-1
 579 364 l 2,16,17
 567 531 567 531 512.5 615 c 128,-1,18
 458 699 458 699 352 699 c 0,19,20
 278 699 278 699 227.5 666 c 128,-1,21
 177 633 177 633 151 575.5 c 128,-1,22
 125 518 125 518 124 444 c 1,23,-1
 428 444 l 1,24,25
 434 427 434 427 439.5 394 c 128,-1,26
 445 361 445 361 448 327.5 c 128,-1,27
 451 294 451 294 451 275 c 0,28,29
 451 205 451 205 427.5 152 c 128,-1,30
 404 99 404 99 363.5 69.5 c 128,-1,31
 323 40 323 40 271 40 c 0,0,1
264 123 m 0,32,33
 319 123 319 123 345.5 167 c 128,-1,34
 372 211 372 211 372 275 c 0,35,36
 372 337 372 337 362 364 c 1,37,-1
 124 364 l 1,38,39
 127 123 127 123 264 123 c 0,32,33
EndSplineSet
Ligature2: "'rlig' Required Ligatures in +BBwEPgQ9BDMEPgQ7BEwEQQQ6BDgEOQAA lookup 25 subtable" u182A.ini u1820.med
EndChar

StartChar: u1827.med
Encoding: 299 -1 92
Width: 458
VWidth: 1750
GlyphClass: 2
Flags: W
LayerCount: 2
Fore
SplineSet
309 -119 m 0,0,1
 248 -119 248 -119 206.5 -84 c 128,-1,2
 165 -49 165 -49 133 13.5 c 128,-1,3
 101 76 101 76 68 157 c 0,4,5
 49 207 49 207 32 258.5 c 128,-1,6
 15 310 15 310 0 364 c 1,7,-1
 0 444 l 1,8,-1
 488 444 l 1,9,-1
 488 364 l 1,10,-1
 79 364 l 1,11,12
 94 312 94 312 113 259 c 128,-1,13
 132 206 132 206 156 152 c 0,14,15
 179 101 179 101 202 58 c 128,-1,16
 225 15 225 15 251 -10.5 c 128,-1,17
 277 -36 277 -36 309 -36 c 0,18,19
 364 -36 364 -36 392 6 c 1,20,-1
 392 -85 l 1,21,22
 368 -119 368 -119 309 -119 c 0,0,1
EndSplineSet
EndChar

StartChar: u182C_1825.V1
Encoding: 300 -1 93
Width: 749
VWidth: 1750
GlyphClass: 2
Flags: W
LayerCount: 2
Fore
SplineSet
509 40 m 0,0,1
 409 40 409 40 359 104 c 128,-1,2
 309 168 309 168 309 275 c 0,3,4
 309 316 309 316 319 362.5 c 128,-1,5
 329 409 329 409 347 444 c 1,6,-1
 614 444 l 1,7,8
 572 677 572 677 365 677 c 0,9,10
 288 677 288 677 234 643 c 128,-1,11
 180 609 180 609 152 547.5 c 128,-1,12
 124 486 124 486 124 405 c 0,13,14
 124 336 124 336 146.5 251.5 c 128,-1,15
 169 167 169 167 219 73 c 1,16,-1
 146 42 l 1,17,18
 101 125 101 125 73 222.5 c 128,-1,19
 45 320 45 320 45 408 c 0,20,21
 45 512 45 512 84.5 591.5 c 128,-1,22
 124 671 124 671 196 715.5 c 128,-1,23
 268 760 268 760 365 760 c 0,24,25
 456 760 456 760 520.5 725 c 128,-1,26
 585 690 585 690 625.5 627 c 128,-1,27
 666 564 666 564 685 481 c 128,-1,28
 704 398 704 398 704 302 c 0,29,30
 704 224 704 224 679 165 c 128,-1,31
 654 106 654 106 610 73 c 128,-1,32
 566 40 566 40 509 40 c 0,0,1
502 123 m 0,33,34
 544 123 544 123 571 147 c 128,-1,35
 598 171 598 171 611.5 211.5 c 128,-1,36
 625 252 625 252 625 301 c 0,37,38
 625 317 625 317 625 333 c 128,-1,39
 625 349 625 349 623 364 c 1,40,-1
 404 364 l 1,41,42
 397 347 397 347 392.5 324.5 c 128,-1,43
 388 302 388 302 388 275 c 0,44,45
 388 123 388 123 502 123 c 0,33,34
EndSplineSet
Ligature2: "'rlig' Required Ligatures in +BBwEPgQ9BDMEPgQ7BEwEQQQ6BDgEOQAA lookup 25 subtable" u182C.ini u1825.fin FVS1
EndChar

StartChar: u182C_1825.iniV1
Encoding: 301 -1 94
Width: 885
VWidth: 1750
GlyphClass: 2
Flags: W
LayerCount: 2
Fore
SplineSet
509 40 m 0,0,1
 409 40 409 40 359 104 c 128,-1,2
 309 168 309 168 309 275 c 0,3,4
 309 316 309 316 319 362.5 c 128,-1,5
 329 409 329 409 347 444 c 1,6,-1
 614 444 l 1,7,8
 572 677 572 677 365 677 c 0,9,10
 288 677 288 677 234 643 c 128,-1,11
 180 609 180 609 152 547.5 c 128,-1,12
 124 486 124 486 124 405 c 0,13,14
 124 336 124 336 146.5 251.5 c 128,-1,15
 169 167 169 167 219 73 c 1,16,-1
 146 42 l 1,17,18
 101 125 101 125 73 222.5 c 128,-1,19
 45 320 45 320 45 408 c 0,20,21
 45 512 45 512 84.5 591.5 c 128,-1,22
 124 671 124 671 196 715.5 c 128,-1,23
 268 760 268 760 365 760 c 0,24,25
 500 760 500 760 583.5 679 c 128,-1,26
 667 598 667 598 693 444 c 1,27,-1
 915 444 l 1,28,-1
 915 364 l 1,29,-1
 702 364 l 1,30,31
 704 349 704 349 704 333.5 c 128,-1,32
 704 318 704 318 704 302 c 0,33,34
 704 224 704 224 679 165 c 128,-1,35
 654 106 654 106 610 73 c 128,-1,36
 566 40 566 40 509 40 c 0,0,1
502 123 m 0,37,38
 544 123 544 123 571 147.5 c 128,-1,39
 598 172 598 172 611.5 213 c 128,-1,40
 625 254 625 254 625 303 c 0,41,42
 625 319 625 319 625 334 c 128,-1,43
 625 349 625 349 623 364 c 1,44,-1
 404 364 l 1,45,46
 397 347 397 347 392.5 324.5 c 128,-1,47
 388 302 388 302 388 275 c 0,48,49
 388 123 388 123 502 123 c 0,37,38
EndSplineSet
Ligature2: "'rlig' Required Ligatures in +BBwEPgQ9BDMEPgQ7BEwEQQQ6BDgEOQAA lookup 25 subtable" u182C.ini u1825.medV1 FVS1
EndChar

StartChar: u182C_1821.ini
Encoding: 302 -1 95
Width: 714
VWidth: 1750
GlyphClass: 2
Flags: W
LayerCount: 2
Fore
SplineSet
174 42 m 1,0,1
 45 240 45 240 45 417 c 0,2,3
 45 512 45 512 73.5 581.5 c 128,-1,4
 102 651 102 651 153.5 689 c 128,-1,5
 205 727 205 727 274 727 c 0,6,7
 349 727 349 727 395.5 691.5 c 128,-1,8
 442 656 442 656 467.5 592.5 c 128,-1,9
 493 529 493 529 503 444 c 1,10,-1
 744 444 l 1,11,-1
 744 364 l 1,12,-1
 534 364 l 1,13,-1
 515 96 l 1,14,-1
 449 96 l 1,15,-1
 430 363 l 2,16,17
 424 446 424 446 410.5 509.5 c 128,-1,18
 397 573 397 573 366 608.5 c 128,-1,19
 335 644 335 644 275 644 c 0,20,21
 206 644 206 644 165 588.5 c 128,-1,22
 124 533 124 533 124 417 c 0,23,24
 124 323 124 323 156 246 c 128,-1,25
 188 169 188 169 245 85 c 1,26,-1
 174 42 l 1,0,1
EndSplineSet
Ligature2: "'rlig' Required Ligatures in +BBwEPgQ9BDMEPgQ7BEwEQQQ6BDgEOQAA lookup 25 subtable" u182C.ini u1821.med
EndChar

StartChar: u182B_1820.ini
Encoding: 303 -1 96
Width: 830
VWidth: 1750
GlyphClass: 2
Flags: W
LayerCount: 2
Fore
SplineSet
62 42 m 1,0,-1
 62 122 l 1,1,2
 94 143 94 143 138.5 148 c 128,-1,3
 183 153 183 153 231 153 c 0,4,5
 281 153 281 153 310 186 c 128,-1,6
 339 219 339 219 339 273 c 0,7,8
 339 302 339 302 336.5 325.5 c 128,-1,9
 334 349 334 349 329 364 c 1,10,-1
 45 364 l 1,11,-1
 45 408 l 2,12,13
 45 516 45 516 76 600.5 c 128,-1,14
 107 685 107 685 170.5 733.5 c 128,-1,15
 234 782 234 782 330 782 c 0,16,17
 449 782 449 782 521.5 696 c 128,-1,18
 594 610 594 610 618 444 c 1,19,-1
 860 444 l 1,20,-1
 860 364 l 1,21,-1
 650 364 l 1,22,-1
 631 96 l 1,23,-1
 565 96 l 1,24,-1
 546 364 l 2,25,26
 534 531 534 531 481 615 c 128,-1,27
 428 699 428 699 330 699 c 0,28,29
 262 699 262 699 216.5 665.5 c 128,-1,30
 171 632 171 632 148 574 c 128,-1,31
 125 516 125 516 124 444 c 1,32,-1
 397 444 l 1,33,34
 418 360 418 360 418 275 c 0,35,36
 418 217 418 217 395 171 c 128,-1,37
 372 125 372 125 330.5 99 c 128,-1,38
 289 73 289 73 231 73 c 0,39,40
 179 73 179 73 138 67.5 c 128,-1,41
 97 62 97 62 62 42 c 1,0,-1
EndSplineSet
Ligature2: "'rlig' Required Ligatures in +BBwEPgQ9BDMEPgQ7BEwEQQQ6BDgEOQAA lookup 25 subtable" u182B.ini u1820.med
EndChar

StartChar: u1839_1823
Encoding: 304 -1 97
Width: 797
VWidth: 1750
GlyphClass: 2
Flags: W
LayerCount: 2
Fore
SplineSet
198 -182 m 1,0,1
 168 -137 168 -137 168 -64 c 0,2,3
 168 -7 168 -7 198 45 c 1,4,5
 122 64 122 64 83.5 144 c 128,-1,6
 45 224 45 224 45 375 c 0,7,8
 45 496 45 496 87.5 587.5 c 128,-1,9
 130 679 130 679 211 730.5 c 128,-1,10
 292 782 292 782 405 782 c 0,11,12
 519 782 519 782 596 728.5 c 128,-1,13
 673 675 673 675 712.5 583 c 128,-1,14
 752 491 752 491 752 375 c 0,15,16
 752 203 752 203 699.5 121.5 c 128,-1,17
 647 40 647 40 538 40 c 0,18,19
 490 40 490 40 453.5 63.5 c 128,-1,20
 417 87 417 87 396 135 c 1,21,22
 378 93 378 93 344 69.5 c 128,-1,23
 310 46 310 46 271 41 c 1,24,25
 250 -4 250 -4 250 -63 c 0,26,27
 250 -130 250 -130 288 -182 c 1,28,-1
 198 -182 l 1,0,1
127 444 m 1,29,-1
 668 444 l 1,30,31
 658 520 658 520 624.5 577.5 c 128,-1,32
 591 635 591 635 536 667 c 128,-1,33
 481 699 481 699 405 699 c 0,34,35
 278 699 278 699 209.5 632 c 128,-1,36
 141 565 141 565 127 444 c 1,29,-1
248 123 m 0,37,38
 302 123 302 123 330.5 167.5 c 128,-1,39
 359 212 359 212 359 281 c 2,40,-1
 359 364 l 1,41,-1
 124 364 l 1,42,43
 124 294 124 294 133.5 239.5 c 128,-1,44
 143 185 143 185 169.5 154 c 128,-1,45
 196 123 196 123 248 123 c 0,37,38
538 123 m 0,46,47
 588 123 588 123 616.5 146.5 c 128,-1,48
 645 170 645 170 658 223 c 128,-1,49
 671 276 671 276 673 364 c 1,50,-1
 438 364 l 1,51,-1
 438 286 l 2,52,53
 438 123 438 123 538 123 c 0,46,47
EndSplineSet
Ligature2: "'rlig' Required Ligatures in +BBwEPgQ9BDMEPgQ7BEwEQQQ6BDgEOQAA lookup 25 subtable" u1839.ini u1823.fin
EndChar

StartChar: u183B_1820.ini
Encoding: 305 -1 98
Width: 714
VWidth: 1750
GlyphClass: 2
Flags: W
LayerCount: 2
Fore
SplineSet
174 42 m 1,0,1
 45 240 45 240 45 417 c 0,2,3
 45 513 45 513 73.5 582.5 c 128,-1,4
 102 652 102 652 154 689.5 c 128,-1,5
 206 727 206 727 274 727 c 0,6,7
 349 727 349 727 395.5 691.5 c 128,-1,8
 442 656 442 656 467.5 592.5 c 128,-1,9
 493 529 493 529 503 444 c 1,10,-1
 744 444 l 1,11,-1
 744 364 l 1,12,-1
 534 364 l 1,13,-1
 515 96 l 1,14,-1
 449 96 l 1,15,-1
 430 360 l 2,16,17
 424 445 424 445 410.5 509 c 128,-1,18
 397 573 397 573 365.5 608.5 c 128,-1,19
 334 644 334 644 274 644 c 0,20,21
 210 644 210 644 169.5 594.5 c 128,-1,22
 129 545 129 545 124 444 c 1,23,-1
 285 444 l 1,24,-1
 285 364 l 1,25,-1
 126 364 l 1,26,27
 134 288 134 288 166.5 220 c 128,-1,28
 199 152 199 152 245 85 c 1,29,-1
 174 42 l 1,0,1
EndSplineSet
Ligature2: "'rlig' Required Ligatures in +BBwEPgQ9BDMEPgQ7BEwEQQQ6BDgEOQAA lookup 25 subtable" u183B.ini u1820.med
EndChar

StartChar: u1835.med
Encoding: 307 -1 100
Width: 530
VWidth: 1750
GlyphClass: 2
Flags: W
LayerCount: 2
Fore
SplineSet
0 5 m 1,0,-1
 0 100 l 1,1,2
 17 117 17 117 45 136.5 c 128,-1,3
 73 156 73 156 114 178 c 2,4,-1
 196 222 l 2,5,6
 240 246 240 246 257 278.5 c 128,-1,7
 274 311 274 311 274 364 c 1,8,-1
 0 364 l 1,9,-1
 0 444 l 1,10,-1
 560 444 l 1,11,-1
 560 364 l 1,12,-1
 351 364 l 1,13,14
 351 288 351 288 325.5 239 c 128,-1,15
 300 190 300 190 245 161 c 2,16,-1
 137 103 l 2,17,18
 65 64 65 64 0 5 c 1,0,-1
EndSplineSet
EndChar

StartChar: u182C_1825.ini
Encoding: 311 -1 104
Width: 1180
VWidth: 1750
GlyphClass: 2
Flags: W
LayerCount: 2
Fore
SplineSet
992 -67 m 1,0,1
 934 41 934 41 891 148.5 c 128,-1,2
 848 256 848 256 819 364 c 1,3,-1
 702 364 l 1,4,5
 704 349 704 349 704 331.5 c 128,-1,6
 704 314 704 314 704 298 c 0,7,8
 704 220 704 220 678 162 c 128,-1,9
 652 104 652 104 608 72 c 128,-1,10
 564 40 564 40 509 40 c 0,11,12
 409 40 409 40 359 104 c 128,-1,13
 309 168 309 168 309 275 c 0,14,15
 309 316 309 316 319 362.5 c 128,-1,16
 329 409 329 409 347 444 c 1,17,-1
 614 444 l 1,18,19
 572 677 572 677 365 677 c 0,20,21
 288 677 288 677 234 643 c 128,-1,22
 180 609 180 609 152 547.5 c 128,-1,23
 124 486 124 486 124 405 c 0,24,25
 124 336 124 336 146.5 251.5 c 128,-1,26
 169 167 169 167 219 73 c 1,27,-1
 146 42 l 1,28,29
 101 125 101 125 73 222.5 c 128,-1,30
 45 320 45 320 45 408 c 0,31,32
 45 512 45 512 84.5 591.5 c 128,-1,33
 124 671 124 671 196 715.5 c 128,-1,34
 268 760 268 760 365 760 c 0,35,36
 500 760 500 760 583.5 679 c 128,-1,37
 667 598 667 598 693 444 c 1,38,-1
 1210 444 l 1,39,-1
 1210 364 l 1,40,-1
 898 364 l 1,41,42
 927 264 927 264 968.5 165.5 c 128,-1,43
 1010 67 1010 67 1065 -31 c 1,44,-1
 992 -67 l 1,0,1
502 123 m 0,45,46
 544 123 544 123 571 147.5 c 128,-1,47
 598 172 598 172 611.5 213 c 128,-1,48
 625 254 625 254 625 303 c 0,49,50
 625 319 625 319 625 334 c 128,-1,51
 625 349 625 349 623 364 c 1,52,-1
 404 364 l 1,53,54
 397 347 397 347 392.5 324.5 c 128,-1,55
 388 302 388 302 388 275 c 0,56,57
 388 123 388 123 502 123 c 0,45,46
EndSplineSet
Ligature2: "'rlig' Required Ligatures in +BBwEPgQ9BDMEPgQ7BEwEQQQ6BDgEOQAA lookup 25 subtable" u182C.ini u1825.medV1
EndChar

StartChar: u182B_1823
Encoding: 312 -1 106
Width: 764
VWidth: 1750
GlyphClass: 2
Flags: W
LayerCount: 2
Fore
SplineSet
505 40 m 0,0,1
 401 40 401 40 363 136 c 1,2,3
 311 73 311 73 225 73 c 0,4,5
 176 73 176 73 136.5 67.5 c 128,-1,6
 97 62 97 62 62 42 c 1,7,-1
 62 122 l 1,8,9
 94 143 94 143 136 148 c 128,-1,10
 178 153 178 153 225 153 c 0,11,12
 269 153 269 153 297.5 184 c 128,-1,13
 326 215 326 215 326 275 c 2,14,-1
 326 364 l 1,15,-1
 45 364 l 1,16,-1
 45 409 l 2,17,18
 45 523 45 523 85.5 606.5 c 128,-1,19
 126 690 126 690 199.5 736 c 128,-1,20
 273 782 273 782 372 782 c 0,21,22
 480 782 480 782 558 731 c 128,-1,23
 636 680 636 680 677.5 588.5 c 128,-1,24
 719 497 719 497 719 375 c 0,25,26
 719 205 719 205 666.5 122.5 c 128,-1,27
 614 40 614 40 505 40 c 0,0,1
124 444 m 1,28,-1
 635 444 l 1,29,30
 625 520 625 520 591 577.5 c 128,-1,31
 557 635 557 635 502 667 c 128,-1,32
 447 699 447 699 372 699 c 0,33,34
 298 699 298 699 243 666.5 c 128,-1,35
 188 634 188 634 157 577 c 128,-1,36
 126 520 126 520 124 444 c 1,28,-1
505 123 m 0,37,38
 562 123 562 123 590.5 153 c 128,-1,39
 619 183 619 183 629 237.5 c 128,-1,40
 639 292 639 292 640 364 c 1,41,-1
 405 364 l 1,42,-1
 405 286 l 2,43,44
 405 123 405 123 505 123 c 0,37,38
EndSplineSet
Ligature2: "'rlig' Required Ligatures in +BBwEPgQ9BDMEPgQ7BEwEQQQ6BDgEOQAA lookup 25 subtable" u182B.ini u1823.fin
EndChar

StartChar: u182B_1823.ini
Encoding: 314 -1 108
Width: 900
VWidth: 1750
GlyphClass: 2
Flags: W
LayerCount: 2
Fore
SplineSet
505 40 m 0,0,1
 401 40 401 40 363 136 c 1,2,3
 311 73 311 73 225 73 c 0,4,5
 176 73 176 73 136.5 67.5 c 128,-1,6
 97 62 97 62 62 42 c 1,7,-1
 62 122 l 1,8,9
 94 143 94 143 136 148 c 128,-1,10
 178 153 178 153 225 153 c 0,11,12
 269 153 269 153 297.5 184 c 128,-1,13
 326 215 326 215 326 275 c 2,14,-1
 326 364 l 1,15,-1
 45 364 l 1,16,-1
 45 409 l 2,17,18
 45 523 45 523 86.5 606.5 c 128,-1,19
 128 690 128 690 201.5 736 c 128,-1,20
 275 782 275 782 372 782 c 0,21,22
 468 782 468 782 541 741 c 128,-1,23
 614 700 614 700 659 624 c 128,-1,24
 704 548 704 548 715 444 c 1,25,-1
 930 444 l 1,26,-1
 930 364 l 1,27,-1
 719 364 l 1,28,29
 717 199 717 199 664.5 119.5 c 128,-1,30
 612 40 612 40 505 40 c 0,0,1
124 444 m 1,31,-1
 635 444 l 1,32,33
 625 520 625 520 591 577.5 c 128,-1,34
 557 635 557 635 502 667 c 128,-1,35
 447 699 447 699 372 699 c 0,36,37
 298 699 298 699 243 666.5 c 128,-1,38
 188 634 188 634 157 577 c 128,-1,39
 126 520 126 520 124 444 c 1,31,-1
505 123 m 0,40,41
 562 123 562 123 590 153.5 c 128,-1,42
 618 184 618 184 628 238 c 128,-1,43
 638 292 638 292 640 364 c 1,44,-1
 405 364 l 1,45,-1
 405 286 l 2,46,47
 405 123 405 123 505 123 c 0,40,41
EndSplineSet
Ligature2: "'rlig' Required Ligatures in +BBwEPgQ9BDMEPgQ7BEwEQQQ6BDgEOQAA lookup 25 subtable" u182B.ini u1823.med
EndChar

StartChar: u182B_1825.ini
Encoding: 316 -1 110
Width: 1191
VWidth: 1750
GlyphClass: 2
Flags: W
LayerCount: 2
Fore
SplineSet
1003 -67 m 1,0,1
 945 42 945 42 902 149.5 c 128,-1,2
 859 257 859 257 830 364 c 1,3,-1
 719 364 l 1,4,5
 717 199 717 199 664.5 119.5 c 128,-1,6
 612 40 612 40 505 40 c 0,7,8
 401 40 401 40 363 136 c 1,9,10
 311 73 311 73 225 73 c 0,11,12
 176 73 176 73 136.5 67.5 c 128,-1,13
 97 62 97 62 62 42 c 1,14,-1
 62 122 l 1,15,16
 94 143 94 143 136 148 c 128,-1,17
 178 153 178 153 225 153 c 0,18,19
 269 153 269 153 297.5 184 c 128,-1,20
 326 215 326 215 326 275 c 2,21,-1
 326 364 l 1,22,-1
 45 364 l 1,23,-1
 45 410 l 2,24,25
 45 524 45 524 85.5 607.5 c 128,-1,26
 126 691 126 691 199.5 736.5 c 128,-1,27
 273 782 273 782 371 782 c 256,28,29
 469 782 469 782 542 741 c 128,-1,30
 615 700 615 700 659.5 624 c 128,-1,31
 704 548 704 548 715 444 c 1,32,-1
 1221 444 l 1,33,-1
 1221 364 l 1,34,-1
 909 364 l 1,35,36
 938 264 938 264 979.5 165.5 c 128,-1,37
 1021 67 1021 67 1076 -31 c 1,38,-1
 1003 -67 l 1,0,1
124 444 m 1,39,-1
 635 444 l 1,40,41
 625 520 625 520 591 577.5 c 128,-1,42
 557 635 557 635 502 667 c 128,-1,43
 447 699 447 699 372 699 c 0,44,45
 298 699 298 699 242.5 666.5 c 128,-1,46
 187 634 187 634 156.5 577 c 128,-1,47
 126 520 126 520 124 444 c 1,39,-1
505 123 m 0,48,49
 562 123 562 123 590.5 153 c 128,-1,50
 619 183 619 183 629 237.5 c 128,-1,51
 639 292 639 292 640 364 c 1,52,-1
 405 364 l 1,53,-1
 405 286 l 2,54,55
 405 123 405 123 505 123 c 0,48,49
EndSplineSet
Ligature2: "'rlig' Required Ligatures in +BBwEPgQ9BDMEPgQ7BEwEQQQ6BDgEOQAA lookup 25 subtable" u182B.ini u1825.medV1
Ligature2: "'rlig' Required Ligatures in +BBwEPgQ9BDMEPgQ7BEwEQQQ6BDgEOQAA lookup 25 subtable" u182B.ini u1825.med FVS1
EndChar

StartChar: u182B_1822.ini
Encoding: 317 -1 111
Width: 895
VWidth: 1750
GlyphClass: 2
Flags: W
LayerCount: 2
Fore
SplineSet
707 -67 m 1,0,1
 670 4 670 4 642 62.5 c 128,-1,2
 614 121 614 121 593 176 c 128,-1,3
 572 231 572 231 557 289.5 c 128,-1,4
 542 348 542 348 530 418 c 0,5,6
 507 556 507 556 456.5 627.5 c 128,-1,7
 406 699 406 699 319 699 c 0,8,9
 254 699 254 699 211 664.5 c 128,-1,10
 168 630 168 630 146.5 572.5 c 128,-1,11
 125 515 125 515 124 444 c 1,12,-1
 397 444 l 1,13,14
 418 360 418 360 418 275 c 0,15,16
 418 217 418 217 395 171 c 128,-1,17
 372 125 372 125 330.5 99 c 128,-1,18
 289 73 289 73 231 73 c 0,19,20
 179 73 179 73 138 67.5 c 128,-1,21
 97 62 97 62 62 42 c 1,22,-1
 62 122 l 1,23,24
 94 143 94 143 138 148 c 128,-1,25
 182 153 182 153 231 153 c 0,26,27
 281 153 281 153 310 186.5 c 128,-1,28
 339 220 339 220 339 275 c 0,29,30
 339 304 339 304 336.5 326.5 c 128,-1,31
 334 349 334 349 329 364 c 1,32,-1
 45 364 l 1,33,-1
 45 408 l 2,34,35
 45 515 45 515 74.5 599.5 c 128,-1,36
 104 684 104 684 165 733 c 128,-1,37
 226 782 226 782 319 782 c 0,38,39
 408 782 408 782 465 739.5 c 128,-1,40
 522 697 522 697 555 621 c 128,-1,41
 588 545 588 545 605 444 c 1,42,-1
 925 444 l 1,43,-1
 925 364 l 1,44,-1
 620 364 l 1,45,46
 640 267 640 267 683 167 c 128,-1,47
 726 67 726 67 780 -31 c 1,48,-1
 707 -67 l 1,0,1
EndSplineSet
Ligature2: "'rlig' Required Ligatures in +BBwEPgQ9BDMEPgQ7BEwEQQQ6BDgEOQAA lookup 25 subtable" u182B.ini u1822.med
EndChar

StartChar: u182C_1827.ini
Encoding: 320 -1 114
Width: 885
VWidth: 1750
GlyphClass: 2
Flags: W
LayerCount: 2
Fore
SplineSet
737 -119 m 0,0,1
 667 -119 667 -119 624.5 -76 c 128,-1,2
 582 -33 582 -33 547 41 c 0,3,4
 507 126 507 126 481.5 220.5 c 128,-1,5
 456 315 456 315 445 418 c 0,6,7
 437 494 437 494 421 552.5 c 128,-1,8
 405 611 405 611 374 644 c 128,-1,9
 343 677 343 677 287 677 c 0,10,11
 229 677 229 677 193 641 c 128,-1,12
 157 605 157 605 140.5 546 c 128,-1,13
 124 487 124 487 124 417 c 0,14,15
 124 323 124 323 156 246 c 128,-1,16
 188 169 188 169 245 85 c 1,17,-1
 174 42 l 1,18,19
 45 240 45 240 45 417 c 0,20,21
 45 512 45 512 72 589.5 c 128,-1,22
 99 667 99 667 153 713.5 c 128,-1,23
 207 760 207 760 287 760 c 0,24,25
 365 760 365 760 412.5 719 c 128,-1,26
 460 678 460 678 485 607 c 128,-1,27
 510 536 510 536 521 444 c 1,28,-1
 915 444 l 1,29,-1
 915 364 l 1,30,-1
 530 364 l 1,31,32
 539 294 539 294 556.5 233 c 128,-1,33
 574 172 574 172 599 117 c 0,34,35
 618 75 618 75 638.5 40.5 c 128,-1,36
 659 6 659 6 683.5 -15 c 128,-1,37
 708 -36 708 -36 737 -36 c 0,38,39
 792 -36 792 -36 819 6 c 1,40,-1
 819 -85 l 1,41,42
 796 -119 796 -119 737 -119 c 0,0,1
EndSplineSet
Ligature2: "'rlig' Required Ligatures in +BBwEPgQ9BDMEPgQ7BEwEQQQ6BDgEOQAA lookup 25 subtable" u182C.ini u1827.med
EndChar

StartChar: u182C_1827.iniV1
Encoding: 322 -1 116
Width: 885
VWidth: 1750
GlyphClass: 2
Flags: W
LayerCount: 2
Fore
SplineSet
737 -119 m 0,0,1
 667 -119 667 -119 624.5 -76 c 128,-1,2
 582 -33 582 -33 547 41 c 0,3,4
 507 126 507 126 481.5 220.5 c 128,-1,5
 456 315 456 315 445 418 c 0,6,7
 437 494 437 494 421 552.5 c 128,-1,8
 405 611 405 611 374 644 c 128,-1,9
 343 677 343 677 287 677 c 0,10,11
 229 677 229 677 193 641 c 128,-1,12
 157 605 157 605 140.5 546 c 128,-1,13
 124 487 124 487 124 417 c 0,14,15
 124 323 124 323 156 246 c 128,-1,16
 188 169 188 169 245 85 c 1,17,-1
 174 42 l 1,18,19
 45 240 45 240 45 417 c 0,20,21
 45 512 45 512 72 589.5 c 128,-1,22
 99 667 99 667 153 713.5 c 128,-1,23
 207 760 207 760 287 760 c 0,24,25
 365 760 365 760 412.5 719 c 128,-1,26
 460 678 460 678 485 607 c 128,-1,27
 510 536 510 536 521 444 c 1,28,-1
 915 444 l 1,29,-1
 915 364 l 1,30,-1
 530 364 l 1,31,32
 539 294 539 294 556.5 233 c 128,-1,33
 574 172 574 172 599 117 c 0,34,35
 618 75 618 75 638.5 40.5 c 128,-1,36
 659 6 659 6 683.5 -15 c 128,-1,37
 708 -36 708 -36 737 -36 c 0,38,39
 792 -36 792 -36 819 6 c 1,40,-1
 819 -85 l 1,41,42
 796 -119 796 -119 737 -119 c 0,0,1
162 -196 m 1,43,-1
 119 -157 l 1,44,45
 181 -70 181 -70 240 -11 c 1,46,-1
 301 -80 l 1,47,48
 256 -112 256 -112 221.5 -141 c 128,-1,49
 187 -170 187 -170 162 -196 c 1,43,-1
377 -196 m 1,50,-1
 334 -157 l 1,51,52
 396 -70 396 -70 455 -11 c 1,53,-1
 516 -80 l 1,54,55
 471 -112 471 -112 436.5 -141 c 128,-1,56
 402 -170 402 -170 377 -196 c 1,50,-1
EndSplineSet
Ligature2: "'rlig' Required Ligatures in +BBwEPgQ9BDMEPgQ7BEwEQQQ6BDgEOQAA lookup 25 subtable" u182C.iniV1 u1827.med
EndChar

StartChar: u182B_1827.ini
Encoding: 323 -1 117
Width: 984
VWidth: 1750
GlyphClass: 2
Flags: W
LayerCount: 2
Fore
SplineSet
836 -119 m 0,0,1
 766 -119 766 -119 723 -75.5 c 128,-1,2
 680 -32 680 -32 645 41 c 0,3,4
 605 125 605 125 576 219.5 c 128,-1,5
 547 314 547 314 530 418 c 0,6,7
 516 502 516 502 492.5 565 c 128,-1,8
 469 628 469 628 427.5 663.5 c 128,-1,9
 386 699 386 699 319 699 c 0,10,11
 254 699 254 699 211 664.5 c 128,-1,12
 168 630 168 630 146.5 572.5 c 128,-1,13
 125 515 125 515 124 444 c 1,14,-1
 397 444 l 1,15,16
 418 360 418 360 418 275 c 0,17,18
 418 217 418 217 395 171 c 128,-1,19
 372 125 372 125 330.5 99 c 128,-1,20
 289 73 289 73 231 73 c 0,21,22
 179 73 179 73 138 67.5 c 128,-1,23
 97 62 97 62 62 42 c 1,24,-1
 62 122 l 1,25,26
 94 143 94 143 138 148 c 128,-1,27
 182 153 182 153 231 153 c 0,28,29
 281 153 281 153 310 186.5 c 128,-1,30
 339 220 339 220 339 275 c 0,31,32
 339 304 339 304 336.5 326.5 c 128,-1,33
 334 349 334 349 329 364 c 1,34,-1
 45 364 l 1,35,-1
 45 408 l 2,36,37
 45 515 45 515 74.5 599.5 c 128,-1,38
 104 684 104 684 165 733 c 128,-1,39
 226 782 226 782 319 782 c 0,40,41
 408 782 408 782 464 739.5 c 128,-1,42
 520 697 520 697 553 621 c 128,-1,43
 586 545 586 545 604 444 c 1,44,-1
 1014 444 l 1,45,-1
 1014 364 l 1,46,-1
 619 364 l 1,47,48
 630 306 630 306 650 241 c 128,-1,49
 670 176 670 176 703 106 c 256,50,51
 736 36 736 36 767.5 0 c 128,-1,52
 799 -36 799 -36 836 -36 c 0,53,54
 890 -36 890 -36 918 6 c 1,55,-1
 918 -85 l 1,56,57
 895 -119 895 -119 836 -119 c 0,0,1
EndSplineSet
Ligature2: "'rlig' Required Ligatures in +BBwEPgQ9BDMEPgQ7BEwEQQQ6BDgEOQAA lookup 25 subtable" u182B.ini u1827.med
EndChar

StartChar: u182A_1827.ini
Encoding: 326 -1 120
Width: 1006
VWidth: 1750
GlyphClass: 2
Flags: W
LayerCount: 2
Fore
SplineSet
858 -119 m 0,0,1
 788 -119 788 -119 745 -75.5 c 128,-1,2
 702 -32 702 -32 667 41 c 0,3,4
 627 125 627 125 598.5 219.5 c 128,-1,5
 570 314 570 314 552 418 c 0,6,7
 538 504 538 504 512.5 567 c 128,-1,8
 487 630 487 630 443.5 664.5 c 128,-1,9
 400 699 400 699 330 699 c 0,10,11
 262 699 262 699 216.5 665.5 c 128,-1,12
 171 632 171 632 148 574 c 128,-1,13
 125 516 125 516 124 444 c 1,14,-1
 428 444 l 1,15,16
 434 427 434 427 439.5 394 c 128,-1,17
 445 361 445 361 448 327.5 c 128,-1,18
 451 294 451 294 451 275 c 0,19,20
 451 207 451 207 428.5 153.5 c 128,-1,21
 406 100 406 100 365.5 70 c 128,-1,22
 325 40 325 40 271 40 c 0,23,24
 45 40 45 40 45 408 c 0,25,26
 45 516 45 516 76 600.5 c 128,-1,27
 107 685 107 685 170.5 733.5 c 128,-1,28
 234 782 234 782 330 782 c 0,29,30
 421 782 421 782 480 740 c 128,-1,31
 539 698 539 698 573.5 622 c 128,-1,32
 608 546 608 546 626 444 c 1,33,-1
 1036 444 l 1,34,-1
 1036 364 l 1,35,-1
 641 364 l 1,36,37
 649 320 649 320 664.5 267 c 128,-1,38
 680 214 680 214 701 160.5 c 128,-1,39
 722 107 722 107 747 62.5 c 128,-1,40
 772 18 772 18 799.5 -9 c 128,-1,41
 827 -36 827 -36 855 -36 c 0,42,43
 912 -36 912 -36 940 6 c 1,44,-1
 940 -85 l 1,45,46
 917 -119 917 -119 858 -119 c 0,0,1
264 123 m 0,47,48
 319 123 319 123 345.5 167 c 128,-1,49
 372 211 372 211 372 275 c 0,50,51
 372 337 372 337 362 364 c 1,52,-1
 124 364 l 1,53,54
 127 123 127 123 264 123 c 0,47,48
EndSplineSet
Ligature2: "'rlig' Required Ligatures in +BBwEPgQ9BDMEPgQ7BEwEQQQ6BDgEOQAA lookup 25 subtable" u182A.ini u1827.med
EndChar

StartChar: u1802
Encoding: 12 6146 126
Width: 384
VWidth: 1750
GlyphClass: 2
Flags: W
LayerCount: 2
Fore
SplineSet
321 339 m 256,0,1
 295 339 295 339 277.5 355 c 128,-1,2
 260 371 260 371 260 407 c 0,3,4
 260 444 260 444 277.5 459 c 128,-1,5
 295 474 295 474 321 474 c 256,6,7
 347 474 347 474 365.5 459 c 128,-1,8
 384 444 384 444 384 407 c 0,9,10
 384 371 384 371 365.5 355 c 128,-1,11
 347 339 347 339 321 339 c 256,0,1
EndSplineSet
EndChar

StartChar: u1839_1820.ini
Encoding: 331 -1 127
Width: 863
VWidth: 1750
GlyphClass: 2
Flags: W
LayerCount: 2
Fore
SplineSet
199 -182 m 1,0,1
 169 -137 169 -137 169 -64 c 0,2,3
 169 -5 169 -5 201 50 c 1,4,5
 45 99 45 99 45 408 c 0,6,7
 45 519 45 519 79.5 603 c 128,-1,8
 114 687 114 687 182.5 734.5 c 128,-1,9
 251 782 251 782 352 782 c 0,10,11
 444 782 444 782 505.5 737.5 c 128,-1,12
 567 693 567 693 603 617 c 128,-1,13
 639 541 639 541 652 444 c 1,14,-1
 893 444 l 1,15,-1
 893 364 l 1,16,-1
 683 364 l 1,17,-1
 664 96 l 1,18,-1
 598 96 l 1,19,-1
 579 364 l 2,20,21
 567 531 567 531 512.5 615 c 128,-1,22
 458 699 458 699 352 699 c 0,23,24
 278 699 278 699 227.5 666 c 128,-1,25
 177 633 177 633 151 575.5 c 128,-1,26
 125 518 125 518 124 444 c 1,27,-1
 428 444 l 1,28,29
 433 431 433 431 437 408 c 128,-1,30
 441 385 441 385 444 359 c 128,-1,31
 447 333 447 333 449 309.5 c 128,-1,32
 451 286 451 286 451 272 c 0,33,34
 451 199 451 199 425.5 147 c 128,-1,35
 400 95 400 95 361 67.5 c 128,-1,36
 322 40 322 40 280 40 c 2,37,-1
 271 40 l 1,38,39
 251 -8 251 -8 251 -63 c 0,40,41
 251 -130 251 -130 289 -182 c 1,42,-1
 199 -182 l 1,0,1
264 123 m 0,43,44
 318 123 318 123 345 166.5 c 128,-1,45
 372 210 372 210 372 274 c 0,46,47
 372 304 372 304 369.5 327 c 128,-1,48
 367 350 367 350 362 364 c 1,49,-1
 124 364 l 1,50,51
 127 123 127 123 264 123 c 0,43,44
EndSplineSet
Ligature2: "'rlig' Required Ligatures in +BBwEPgQ9BDMEPgQ7BEwEQQQ6BDgEOQAA lookup 25 subtable" u1839.ini u1820.med
EndChar

StartChar: u1839_1822.ini
Encoding: 332 -1 128
Width: 917
VWidth: 1750
GlyphClass: 2
Flags: W
LayerCount: 2
Fore
SplineSet
199 -182 m 1,0,1
 169 -137 169 -137 169 -64 c 0,2,3
 169 -5 169 -5 201 50 c 1,4,5
 45 99 45 99 45 408 c 0,6,7
 45 516 45 516 76 600.5 c 128,-1,8
 107 685 107 685 170.5 733.5 c 128,-1,9
 234 782 234 782 330 782 c 0,10,11
 422 782 422 782 480.5 740.5 c 128,-1,12
 539 699 539 699 573.5 623 c 128,-1,13
 608 547 608 547 627 444 c 1,14,-1
 947 444 l 1,15,-1
 947 364 l 1,16,-1
 642 364 l 1,17,18
 662 270 662 270 702 173.5 c 128,-1,19
 742 77 742 77 802 -31 c 1,20,-1
 729 -67 l 1,21,22
 692 4 692 4 664.5 62.5 c 128,-1,23
 637 121 637 121 616 176 c 128,-1,24
 595 231 595 231 579.5 289.5 c 128,-1,25
 564 348 564 348 552 418 c 0,26,27
 538 504 538 504 512.5 567 c 128,-1,28
 487 630 487 630 443.5 664.5 c 128,-1,29
 400 699 400 699 330 699 c 0,30,31
 262 699 262 699 216.5 665.5 c 128,-1,32
 171 632 171 632 148 574 c 128,-1,33
 125 516 125 516 124 444 c 1,34,-1
 428 444 l 1,35,36
 434 427 434 427 439.5 393.5 c 128,-1,37
 445 360 445 360 448 326.5 c 128,-1,38
 451 293 451 293 451 274 c 0,39,40
 451 206 451 206 428 153 c 128,-1,41
 405 100 405 100 365.5 70 c 128,-1,42
 326 40 326 40 276 40 c 2,43,-1
 271 40 l 1,44,45
 251 -8 251 -8 251 -63 c 0,46,47
 251 -130 251 -130 289 -182 c 1,48,-1
 199 -182 l 1,0,1
264 123 m 0,49,50
 319 123 319 123 345.5 167 c 128,-1,51
 372 211 372 211 372 275 c 0,52,53
 372 337 372 337 362 364 c 1,54,-1
 124 364 l 1,55,56
 127 123 127 123 264 123 c 0,49,50
EndSplineSet
Ligature2: "'rlig' Required Ligatures in +BBwEPgQ9BDMEPgQ7BEwEQQQ6BDgEOQAA lookup 25 subtable" u1839.ini u1822.med
EndChar

StartChar: u183A
Encoding: 61 6202 129
Width: 551
VWidth: 1750
GlyphClass: 2
Flags: W
LayerCount: 2
Fore
SplineSet
244 35 m 1,0,1
 159 129 159 129 119 215 c 1,2,-1
 111 96 l 1,3,-1
 45 96 l 1,4,-1
 45 419 l 2,5,6
 45 507 45 507 70.5 576.5 c 128,-1,7
 96 646 96 646 147 686.5 c 128,-1,8
 198 727 198 727 274 727 c 256,9,10
 350 727 350 727 399 685.5 c 128,-1,11
 448 644 448 644 474 574.5 c 128,-1,12
 500 505 500 505 506 419 c 1,13,-1
 427 409 l 1,14,15
 418 532 418 532 379.5 588 c 128,-1,16
 341 644 341 644 274 644 c 0,17,18
 220 644 220 644 187 614 c 128,-1,19
 154 584 154 584 139 533.5 c 128,-1,20
 124 483 124 483 124 419 c 0,21,22
 124 352 124 352 168 271.5 c 128,-1,23
 212 191 212 191 306 90 c 1,24,-1
 244 35 l 1,0,1
EndSplineSet
Substitution2: "'init' +BB0EMARHBDAEOwRMBD0ESwQ1 +BEQEPgRABDwESwAA in +BBwEPgQ9BDMEPgQ7BEwEQQQ6BDgEOQAA lookup 8 subtable" u183A.ini
Substitution2: "'medi' Medial Forms in +BBwEPgQ9BDMEPgQ7BEwEQQQ6BDgEOQAA lookup 6 subtable" u183A.med
Substitution2: "'fina' Terminal Forms in +BBwEPgQ9BDMEPgQ7BEwEQQQ6BDgEOQAA lookup 4 subtable" u183A.fin
EndChar

StartChar: u183A.ini
Encoding: 333 -1 130
Width: 429
VWidth: 1750
GlyphClass: 2
Flags: W
LayerCount: 2
Fore
SplineSet
244 35 m 1,0,1
 159 129 159 129 119 215 c 1,2,-1
 111 96 l 1,3,-1
 45 96 l 1,4,-1
 45 419 l 2,5,6
 45 507 45 507 70.5 576.5 c 128,-1,7
 96 646 96 646 147 686.5 c 128,-1,8
 198 727 198 727 274 727 c 0,9,10
 385 727 385 727 440.5 638 c 128,-1,11
 496 549 496 549 503 364 c 1,12,-1
 429 364 l 1,13,14
 424 447 424 447 410.5 510 c 128,-1,15
 397 573 397 573 365.5 608.5 c 128,-1,16
 334 644 334 644 274 644 c 0,17,18
 220 644 220 644 187 614 c 128,-1,19
 154 584 154 584 139 533.5 c 128,-1,20
 124 483 124 483 124 419 c 0,21,22
 124 352 124 352 168 271.5 c 128,-1,23
 212 191 212 191 306 90 c 1,24,-1
 244 35 l 1,0,1
EndSplineSet
EndChar

StartChar: u1836
Encoding: 57 6198 132
Width: 496
VWidth: 1750
GlyphClass: 2
Flags: W
LayerCount: 2
Fore
SplineSet
125 -119 m 1,0,-1
 87 -70 l 1,1,2
 111 -44 111 -44 135.5 -20.5 c 128,-1,3
 160 3 160 3 186 25 c 1,4,5
 155 89 155 89 126.5 160.5 c 128,-1,6
 98 232 98 232 77 304.5 c 128,-1,7
 56 377 56 377 45 444 c 1,8,-1
 451 444 l 1,9,-1
 451 364 l 1,10,-1
 138 364 l 1,11,12
 148 326 148 326 166 277.5 c 128,-1,13
 184 229 184 229 205.5 178 c 128,-1,14
 227 127 227 127 250 79 c 128,-1,15
 273 31 273 31 293 -7 c 1,16,17
 280 -14 280 -14 256.5 -29 c 128,-1,18
 233 -44 233 -44 207 -61.5 c 128,-1,19
 181 -79 181 -79 158.5 -94.5 c 128,-1,20
 136 -110 136 -110 125 -119 c 1,0,-1
EndSplineSet
Substitution2: "'init' +BB0EMARHBDAEOwRMBD0ESwQ1 +BEQEPgRABDwESwAA in +BBwEPgQ9BDMEPgQ7BEwEQQQ6BDgEOQAA lookup 8 subtable" u1836.ini
Substitution2: "'medi' Medial Forms in +BBwEPgQ9BDMEPgQ7BEwEQQQ6BDgEOQAA lookup 6 subtable" u1836.med
Substitution2: "'fina' Terminal Forms in +BBwEPgQ9BDMEPgQ7BEwEQQQ6BDgEOQAA lookup 4 subtable" u1836.fin
EndChar

StartChar: u1836.med
Encoding: 335 -1 133
Width: 361
VWidth: 1750
GlyphClass: 2
Flags: W
LayerCount: 2
Fore
SplineSet
65 -119 m 1,0,-1
 27 -70 l 1,1,2
 51 -44 51 -44 75.5 -20.5 c 128,-1,3
 100 3 100 3 126 25 c 1,4,5
 44 196 44 196 0 364 c 1,6,-1
 0 444 l 1,7,-1
 391 444 l 1,8,-1
 391 364 l 1,9,-1
 78 364 l 1,10,11
 88 326 88 326 106 277.5 c 128,-1,12
 124 229 124 229 145.5 178 c 128,-1,13
 167 127 167 127 190 79 c 128,-1,14
 213 31 213 31 233 -7 c 1,15,16
 220 -14 220 -14 196.5 -29 c 128,-1,17
 173 -44 173 -44 147 -61.5 c 128,-1,18
 121 -79 121 -79 98.5 -94.5 c 128,-1,19
 76 -110 76 -110 65 -119 c 1,0,-1
EndSplineSet
EndChar

StartChar: u182C_1821.iniV1
Encoding: 336 -1 134
Width: 714
VWidth: 1750
GlyphClass: 2
Flags: W
LayerCount: 2
Fore
SplineSet
174 42 m 1,0,1
 45 240 45 240 45 417 c 0,2,3
 45 512 45 512 73.5 581.5 c 128,-1,4
 102 651 102 651 153.5 689 c 128,-1,5
 205 727 205 727 274 727 c 0,6,7
 349 727 349 727 395.5 691.5 c 128,-1,8
 442 656 442 656 467.5 592.5 c 128,-1,9
 493 529 493 529 503 444 c 1,10,-1
 744 444 l 1,11,-1
 744 364 l 1,12,-1
 534 364 l 1,13,-1
 515 96 l 1,14,-1
 449 96 l 1,15,-1
 430 363 l 2,16,17
 424 446 424 446 410.5 509.5 c 128,-1,18
 397 573 397 573 366 608.5 c 128,-1,19
 335 644 335 644 275 644 c 0,20,21
 206 644 206 644 165 588.5 c 128,-1,22
 124 533 124 533 124 417 c 0,23,24
 124 323 124 323 156 246 c 128,-1,25
 188 169 188 169 245 85 c 1,26,-1
 174 42 l 1,0,1
184 -196 m 1,27,-1
 141 -157 l 1,28,29
 203 -70 203 -70 262 -11 c 1,30,-1
 323 -80 l 1,31,32
 278 -112 278 -112 243.5 -141 c 128,-1,33
 209 -170 209 -170 184 -196 c 1,27,-1
399 -196 m 1,34,-1
 356 -157 l 1,35,36
 418 -70 418 -70 477 -11 c 1,37,-1
 538 -80 l 1,38,39
 493 -112 493 -112 458.5 -141 c 128,-1,40
 424 -170 424 -170 399 -196 c 1,34,-1
EndSplineSet
Ligature2: "'rlig' Required Ligatures in +BBwEPgQ9BDMEPgQ7BEwEQQQ6BDgEOQAA lookup 25 subtable" u182C.iniV1 u1821.med
EndChar

StartChar: u182C_1821.medV1
Encoding: 337 -1 135
Width: 666
VWidth: 1750
GlyphClass: 2
Flags: W
LayerCount: 2
Fore
SplineSet
126 42 m 1,0,1
 -3 240 -3 240 -3 417 c 0,2,3
 -3 512 -3 512 25.5 581.5 c 128,-1,4
 54 651 54 651 105.5 689 c 128,-1,5
 157 727 157 727 226 727 c 0,6,7
 301 727 301 727 347.5 691.5 c 128,-1,8
 394 656 394 656 419.5 592.5 c 128,-1,9
 445 529 445 529 455 444 c 1,10,-1
 696 444 l 1,11,-1
 696 364 l 1,12,-1
 486 364 l 1,13,-1
 467 96 l 1,14,-1
 401 96 l 1,15,-1
 382 363 l 2,16,17
 376 446 376 446 362.5 509.5 c 128,-1,18
 349 573 349 573 318 608.5 c 128,-1,19
 287 644 287 644 227 644 c 0,20,21
 158 644 158 644 117 588.5 c 128,-1,22
 76 533 76 533 76 417 c 0,23,24
 76 323 76 323 108 246 c 128,-1,25
 140 169 140 169 197 85 c 1,26,-1
 126 42 l 1,0,1
136 -196 m 1,27,-1
 93 -157 l 1,28,29
 155 -70 155 -70 214 -11 c 1,30,-1
 275 -80 l 1,31,32
 230 -112 230 -112 195.5 -141 c 128,-1,33
 161 -170 161 -170 136 -196 c 1,27,-1
350 -196 m 1,34,-1
 307 -157 l 1,35,36
 369 -70 369 -70 428 -11 c 1,37,-1
 489 -80 l 1,38,39
 444 -112 444 -112 409.5 -141 c 128,-1,40
 375 -170 375 -170 350 -196 c 1,34,-1
EndSplineSet
Ligature2: "'rlig' Required Ligatures in +BBwEPgQ9BDMEPgQ7BEwEQQQ6BDgEOQAA lookup 25 subtable" u182C.medV1 u1821.med
EndChar

StartChar: u182C_1827.medV1
Encoding: 338 -1 136
Width: 837
VWidth: 1750
GlyphClass: 2
Flags: W
LayerCount: 2
Fore
SplineSet
689 -119 m 0,0,1
 619 -119 619 -119 576.5 -76 c 128,-1,2
 534 -33 534 -33 499 41 c 0,3,4
 459 126 459 126 433.5 220.5 c 128,-1,5
 408 315 408 315 397 418 c 0,6,7
 389 494 389 494 373 552.5 c 128,-1,8
 357 611 357 611 326 644 c 128,-1,9
 295 677 295 677 239 677 c 0,10,11
 181 677 181 677 145 641 c 128,-1,12
 109 605 109 605 92.5 546 c 128,-1,13
 76 487 76 487 76 417 c 0,14,15
 76 323 76 323 108 246 c 128,-1,16
 140 169 140 169 197 85 c 1,17,-1
 126 42 l 1,18,19
 -3 240 -3 240 -3 417 c 0,20,21
 -3 512 -3 512 24 589.5 c 128,-1,22
 51 667 51 667 105 713.5 c 128,-1,23
 159 760 159 760 239 760 c 0,24,25
 317 760 317 760 364.5 719 c 128,-1,26
 412 678 412 678 437 607 c 128,-1,27
 462 536 462 536 473 444 c 1,28,-1
 867 444 l 1,29,-1
 867 364 l 1,30,-1
 482 364 l 1,31,32
 491 294 491 294 508.5 233 c 128,-1,33
 526 172 526 172 551 117 c 0,34,35
 570 75 570 75 590.5 40.5 c 128,-1,36
 611 6 611 6 635.5 -15 c 128,-1,37
 660 -36 660 -36 689 -36 c 0,38,39
 744 -36 744 -36 771 6 c 1,40,-1
 771 -85 l 1,41,42
 748 -119 748 -119 689 -119 c 0,0,1
114 -196 m 1,43,-1
 71 -157 l 1,44,45
 133 -70 133 -70 192 -11 c 1,46,-1
 253 -80 l 1,47,48
 208 -112 208 -112 173.5 -141 c 128,-1,49
 139 -170 139 -170 114 -196 c 1,43,-1
328 -196 m 1,50,-1
 285 -157 l 1,51,52
 347 -70 347 -70 406 -11 c 1,53,-1
 467 -80 l 1,54,55
 422 -112 422 -112 387.5 -141 c 128,-1,56
 353 -170 353 -170 328 -196 c 1,50,-1
EndSplineSet
Ligature2: "'rlig' Required Ligatures in +BBwEPgQ9BDMEPgQ7BEwEQQQ6BDgEOQAA lookup 25 subtable" u182C.medV1 u1827.med
EndChar

StartChar: u1842
Encoding: 69 6210 137
Width: 1177
VWidth: 1750
GlyphClass: 2
Flags: W
LayerCount: 2
Fore
SplineSet
242 40 m 0,0,1
 144 40 144 40 94.5 98.5 c 128,-1,2
 45 157 45 157 45 260 c 0,3,4
 45 317 45 317 56 361 c 128,-1,5
 67 405 67 405 90 444 c 1,6,-1
 1132 444 l 1,7,-1
 1132 364 l 1,8,-1
 902 364 l 1,9,10
 924 319 924 319 924 249 c 0,11,12
 924 154 924 154 872.5 97 c 128,-1,13
 821 40 821 40 726 40 c 0,14,15
 630 40 630 40 579.5 94.5 c 128,-1,16
 529 149 529 149 529 249 c 0,17,18
 529 313 529 313 549 364 c 1,19,-1
 420 364 l 1,20,21
 440 316 440 316 440 249 c 0,22,23
 440 155 440 155 388.5 97.5 c 128,-1,24
 337 40 337 40 242 40 c 0,0,1
242 123 m 0,25,26
 297 123 297 123 329 155 c 128,-1,27
 361 187 361 187 361 251 c 0,28,29
 361 316 361 316 341 364 c 1,30,-1
 144 364 l 1,31,32
 124 321 124 321 124 262 c 0,33,34
 124 123 124 123 242 123 c 0,25,26
726 123 m 0,35,36
 781 123 781 123 813 155 c 128,-1,37
 845 187 845 187 845 251 c 256,38,39
 845 315 845 315 825 364 c 1,40,-1
 628 364 l 1,41,42
 608 315 608 315 608 251 c 0,43,44
 608 123 608 123 726 123 c 0,35,36
EndSplineSet
Substitution2: "'init' +BB0EMARHBDAEOwRMBD0ESwQ1 +BEQEPgRABDwESwAA in +BBwEPgQ9BDMEPgQ7BEwEQQQ6BDgEOQAA lookup 8 subtable" u1842.ini
Substitution2: "'medi' Medial Forms in +BBwEPgQ9BDMEPgQ7BEwEQQQ6BDgEOQAA lookup 6 subtable" u1842.med
Substitution2: "'fina' Terminal Forms in +BBwEPgQ9BDMEPgQ7BEwEQQQ6BDgEOQAA lookup 4 subtable" u1842.fin
EndChar

StartChar: u1842.fin
Encoding: 339 -1 138
Width: 1032
VWidth: 1750
GlyphClass: 2
Flags: W
LayerCount: 2
Fore
SplineSet
197 40 m 0,0,1
 101 40 101 40 50.5 94.5 c 128,-1,2
 0 149 0 149 0 249 c 0,3,4
 0 316 0 316 20 364 c 1,5,-1
 0 364 l 1,6,-1
 0 444 l 1,7,-1
 987 444 l 1,8,-1
 987 364 l 1,9,-1
 857 364 l 1,10,11
 879 319 879 319 879 249 c 0,12,13
 879 154 879 154 827.5 97 c 128,-1,14
 776 40 776 40 681 40 c 0,15,16
 585 40 585 40 534.5 94.5 c 128,-1,17
 484 149 484 149 484 249 c 0,18,19
 484 313 484 313 504 364 c 1,20,-1
 373 364 l 1,21,22
 395 316 395 316 395 249 c 0,23,24
 395 155 395 155 343.5 97.5 c 128,-1,25
 292 40 292 40 197 40 c 0,0,1
197 123 m 0,26,27
 253 123 253 123 284.5 155 c 128,-1,28
 316 187 316 187 316 251 c 0,29,30
 316 316 316 316 296 364 c 1,31,-1
 99 364 l 1,32,33
 79 316 79 316 79 251 c 0,34,35
 79 123 79 123 197 123 c 0,26,27
681 123 m 0,36,37
 736 123 736 123 768 155 c 128,-1,38
 800 187 800 187 800 251 c 0,39,40
 800 316 800 316 780 364 c 1,41,-1
 583 364 l 1,42,43
 563 316 563 316 563 251 c 0,44,45
 563 123 563 123 681 123 c 0,36,37
EndSplineSet
EndChar

StartChar: u1842.med
Encoding: 341 -1 140
Width: 1057
VWidth: 1750
GlyphClass: 2
Flags: W
LayerCount: 2
Fore
SplineSet
197 40 m 0,0,1
 101 40 101 40 50.5 94.5 c 128,-1,2
 0 149 0 149 0 249 c 0,3,4
 0 316 0 316 20 364 c 1,5,-1
 0 364 l 1,6,-1
 0 444 l 1,7,-1
 1087 444 l 1,8,-1
 1087 364 l 1,9,-1
 857 364 l 1,10,11
 879 319 879 319 879 249 c 0,12,13
 879 154 879 154 827.5 97 c 128,-1,14
 776 40 776 40 681 40 c 0,15,16
 585 40 585 40 534.5 94.5 c 128,-1,17
 484 149 484 149 484 249 c 0,18,19
 484 313 484 313 504 364 c 1,20,-1
 373 364 l 1,21,22
 395 316 395 316 395 249 c 0,23,24
 395 155 395 155 343.5 97.5 c 128,-1,25
 292 40 292 40 197 40 c 0,0,1
197 123 m 0,26,27
 253 123 253 123 284.5 155 c 128,-1,28
 316 187 316 187 316 251 c 0,29,30
 316 316 316 316 296 364 c 1,31,-1
 99 364 l 1,32,33
 79 316 79 316 79 251 c 0,34,35
 79 123 79 123 197 123 c 0,26,27
681 123 m 0,36,37
 736 123 736 123 768 155 c 128,-1,38
 800 187 800 187 800 251 c 0,39,40
 800 316 800 316 780 364 c 1,41,-1
 583 364 l 1,42,43
 563 316 563 316 563 251 c 0,44,45
 563 123 563 123 681 123 c 0,36,37
EndSplineSet
EndChar

StartChar: u1841.fin
Encoding: 344 -1 144
Width: 496
VWidth: 1750
GlyphClass: 2
Flags: W
LayerCount: 2
Fore
SplineSet
140 -182 m 1,0,1
 69 -50 69 -50 34.5 83 c 128,-1,2
 0 216 0 216 0 364 c 2,3,-1
 0 444 l 1,4,-1
 75 444 l 1,5,-1
 75 364 l 2,6,7
 75 241 75 241 99 138 c 128,-1,8
 123 35 123 35 179 -72 c 1,9,-1
 303 -17 l 1,10,11
 219 148 219 148 219 366 c 2,12,-1
 219 444 l 1,13,-1
 451 444 l 1,14,-1
 451 364 l 1,15,-1
 295 364 l 1,16,17
 297 252 297 252 325 149.5 c 128,-1,18
 353 47 353 47 409 -57 c 1,19,-1
 140 -182 l 1,0,1
EndSplineSet
EndChar

StartChar: u182A.fin
Encoding: 346 -1 146
Width: 747
VWidth: 1750
GlyphClass: 2
Flags: W
LayerCount: 2
Fore
SplineSet
397 -264 m 1,0,1
 378 -227 378 -227 378 -187 c 0,2,3
 378 -123 378 -123 406.5 -68.5 c 128,-1,4
 435 -14 435 -14 484 50 c 0,5,6
 531 112 531 112 561.5 164.5 c 128,-1,7
 592 217 592 217 607.5 270.5 c 128,-1,8
 623 324 623 324 623 388 c 0,9,10
 623 534 623 534 550.5 616.5 c 128,-1,11
 478 699 478 699 344 699 c 0,12,13
 223 699 223 699 152 632.5 c 128,-1,14
 81 566 81 566 78 444 c 1,15,-1
 382 444 l 1,16,17
 389 424 389 424 394 392 c 128,-1,18
 399 360 399 360 402 328 c 128,-1,19
 405 296 405 296 405 275 c 0,20,21
 405 206 405 206 381.5 153 c 128,-1,22
 358 100 358 100 317.5 70 c 128,-1,23
 277 40 277 40 225 40 c 0,24,25
 110 40 110 40 54.5 132.5 c 128,-1,26
 -1 225 -1 225 -1 408 c 0,27,28
 -1 524 -1 524 39 608 c 128,-1,29
 79 692 79 692 156 737 c 128,-1,30
 233 782 233 782 344 782 c 0,31,32
 457 782 457 782 537 734.5 c 128,-1,33
 617 687 617 687 659.5 598.5 c 128,-1,34
 702 510 702 510 702 388 c 0,35,36
 702 316 702 316 682 251.5 c 128,-1,37
 662 187 662 187 624.5 124.5 c 128,-1,38
 587 62 587 62 536 -7 c 0,39,40
 509 -43 509 -43 492 -71 c 128,-1,41
 475 -99 475 -99 466.5 -126 c 128,-1,42
 458 -153 458 -153 458 -187 c 0,43,44
 458 -225 458 -225 479 -264 c 1,45,-1
 397 -264 l 1,0,1
218 123 m 0,46,47
 273 123 273 123 299.5 167 c 128,-1,48
 326 211 326 211 326 275 c 0,49,50
 326 334 326 334 316 364 c 1,51,-1
 78 364 l 1,52,53
 82 123 82 123 218 123 c 0,46,47
EndSplineSet
EndChar

StartChar: u182B.fin
Encoding: 347 -1 147
Width: 715
VWidth: 1750
GlyphClass: 2
Flags: W
LayerCount: 2
Fore
SplineSet
365 -264 m 1,0,1
 346 -231 346 -231 346 -187 c 0,2,3
 346 -122 346 -122 374.5 -69 c 128,-1,4
 403 -16 403 -16 452 50 c 0,5,6
 499 113 499 113 530 165 c 128,-1,7
 561 217 561 217 576 270 c 128,-1,8
 591 323 591 323 591 388 c 0,9,10
 591 482 591 482 561.5 552 c 128,-1,11
 532 622 532 622 472.5 660.5 c 128,-1,12
 413 699 413 699 322 699 c 0,13,14
 244 699 244 699 191 666.5 c 128,-1,15
 138 634 138 634 109.5 577 c 128,-1,16
 81 520 81 520 79 444 c 1,17,-1
 352 444 l 1,18,19
 373 360 373 360 373 275 c 0,20,21
 373 217 373 217 350 171 c 128,-1,22
 327 125 327 125 285.5 99 c 128,-1,23
 244 73 244 73 186 73 c 0,24,25
 134 73 134 73 92.5 67 c 128,-1,26
 51 61 51 61 16 42 c 1,27,-1
 16 122 l 1,28,29
 49 143 49 143 93 148 c 128,-1,30
 137 153 137 153 186 153 c 0,31,32
 236 153 236 153 265 186.5 c 128,-1,33
 294 220 294 220 294 275 c 0,34,35
 294 335 294 335 284 364 c 1,36,-1
 0 364 l 1,37,-1
 0 408 l 2,38,39
 0 523 0 523 39 607 c 128,-1,40
 78 691 78 691 150 736.5 c 128,-1,41
 222 782 222 782 321 782 c 0,42,43
 433 782 433 782 510.5 734 c 128,-1,44
 588 686 588 686 629 598 c 128,-1,45
 670 510 670 510 670 388 c 0,46,47
 670 316 670 316 649.5 251.5 c 128,-1,48
 629 187 629 187 592 124 c 128,-1,49
 555 61 555 61 504 -7 c 0,50,51
 477 -43 477 -43 460 -71 c 128,-1,52
 443 -99 443 -99 434.5 -126 c 128,-1,53
 426 -153 426 -153 426 -187 c 0,54,55
 426 -225 426 -225 447 -264 c 1,56,-1
 365 -264 l 1,0,1
EndSplineSet
EndChar

StartChar: u183A.fin
Encoding: 348 -1 148
Width: 620
VWidth: 1750
GlyphClass: 2
Flags: W
LayerCount: 2
Fore
SplineSet
259 -264 m 1,0,1
 240 -226 240 -226 240 -187 c 0,2,3
 240 -120 240 -120 269 -67 c 128,-1,4
 298 -14 298 -14 350 50 c 0,5,6
 400 111 400 111 432.5 163.5 c 128,-1,7
 465 216 465 216 481 270 c 128,-1,8
 497 324 497 324 497 388 c 0,9,10
 497 504 497 504 442.5 574 c 128,-1,11
 388 644 388 644 284 644 c 0,12,13
 184 644 184 644 131.5 584.5 c 128,-1,14
 79 525 79 525 79 419 c 0,15,16
 79 369 79 369 100 319.5 c 128,-1,17
 121 270 121 270 155 222 c 128,-1,18
 189 174 189 174 228 128 c 1,19,-1
 166 73 l 1,20,21
 135 111 135 111 112 146.5 c 128,-1,22
 89 182 89 182 74 215 c 1,23,-1
 66 96 l 1,24,-1
 0 96 l 1,25,-1
 0 419 l 2,26,27
 0 514 0 514 35 583 c 128,-1,28
 70 652 70 652 134 689.5 c 128,-1,29
 198 727 198 727 284 727 c 0,30,31
 380 727 380 727 444.5 684 c 128,-1,32
 509 641 509 641 542 564.5 c 128,-1,33
 575 488 575 488 575 388 c 0,34,35
 575 314 575 314 554.5 250 c 128,-1,36
 534 186 534 186 496 124 c 128,-1,37
 458 62 458 62 403 -7 c 0,38,39
 362 -59 362 -59 341 -98 c 128,-1,40
 320 -137 320 -137 320 -187 c 0,41,42
 320 -225 320 -225 341 -264 c 1,43,-1
 259 -264 l 1,0,1
EndSplineSet
EndChar

StartChar: u1843.med
Encoding: 349 -1 149
Width: 120
VWidth: 1750
GlyphClass: 2
Flags: W
LayerCount: 2
Fore
SplineSet
0 364 m 1,0,-1
 0 444 l 1,1,-1
 22 444 l 1,2,-1
 0 632 l 1,3,-1
 88 632 l 1,4,-1
 65 444 l 1,5,-1
 161 444 l 1,6,-1
 161 364 l 1,7,-1
 0 364 l 1,0,-1
EndSplineSet
EndChar

StartChar: u1843.fin
Encoding: 351 -1 151
Width: 399
VWidth: 1750
GlyphClass: 2
Flags: W
LayerCount: 2
Fore
SplineSet
88 -264 m 1,0,1
 69 -232 69 -232 69 -187 c 0,2,3
 69 -128 69 -128 96 -77 c 128,-1,4
 123 -26 123 -26 164 28 c 0,5,6
 213 92 213 92 242 143 c 128,-1,7
 271 194 271 194 271 245 c 0,8,9
 271 305 271 305 234 334.5 c 128,-1,10
 197 364 197 364 117 364 c 2,11,-1
 0 364 l 1,12,-1
 0 444 l 1,13,-1
 22 444 l 1,14,-1
 0 632 l 1,15,-1
 88 632 l 1,16,-1
 65 444 l 1,17,-1
 118 444 l 2,18,19
 233 444 233 444 291 392.5 c 128,-1,20
 349 341 349 341 349 245 c 0,21,22
 349 178 349 178 310.5 109 c 128,-1,23
 272 40 272 40 216 -31 c 0,24,25
 193 -61 193 -61 178 -85 c 128,-1,26
 163 -109 163 -109 156 -132.5 c 128,-1,27
 149 -156 149 -156 149 -187 c 0,28,29
 149 -225 149 -225 170 -264 c 1,30,-1
 88 -264 l 1,0,1
EndSplineSet
EndChar

StartChar: u1845.med
Encoding: 353 -1 154
Width: 544
VWidth: 1750
GlyphClass: 2
Flags: W
LayerCount: 2
Fore
SplineSet
422 9 m 1,0,1
 392 36 392 36 317 36 c 2,2,-1
 176 36 l 2,3,4
 0 36 0 36 0 223 c 2,5,-1
 0 444 l 1,6,-1
 79 444 l 1,7,-1
 79 223 l 2,8,9
 79 119 79 119 176 119 c 2,10,-1
 209 119 l 1,11,-1
 209 444 l 1,12,-1
 574 444 l 1,13,-1
 574 364 l 1,14,-1
 288 364 l 1,15,-1
 288 119 l 1,16,-1
 317 119 l 2,17,18
 354 119 354 119 381.5 111.5 c 128,-1,19
 409 104 409 104 422 92 c 1,20,-1
 422 9 l 1,0,1
EndSplineSet
Substitution2: "Single Substitution lookup 18 subtable" u1845.medV1
EndChar

StartChar: u1866_1823
Encoding: 354 -1 155
Width: 797
VWidth: 1750
GlyphClass: 2
Flags: W
LayerCount: 2
Fore
SplineSet
249 40 m 0,0,1
 143 40 143 40 94 125 c 128,-1,2
 45 210 45 210 45 375 c 0,3,4
 45 548 45 548 102.5 640.5 c 128,-1,5
 160 733 160 733 271 733 c 0,6,7
 347 733 347 733 396 670 c 1,8,9
 423 704 423 704 451 718.5 c 128,-1,10
 479 733 479 733 516 733 c 0,11,12
 582 733 582 733 627.5 704.5 c 128,-1,13
 673 676 673 676 700.5 626.5 c 128,-1,14
 728 577 728 577 740 512.5 c 128,-1,15
 752 448 752 448 752 375 c 0,16,17
 752 203 752 203 699.5 121.5 c 128,-1,18
 647 40 647 40 538 40 c 0,19,20
 490 40 490 40 453.5 63.5 c 128,-1,21
 417 87 417 87 396 135 c 1,22,23
 377 88 377 88 336.5 64 c 128,-1,24
 296 40 296 40 249 40 c 0,0,1
126 444 m 1,25,-1
 670 444 l 1,26,27
 661 549 661 549 624 599.5 c 128,-1,28
 587 650 587 650 516 650 c 0,29,30
 475 650 475 650 447 630 c 128,-1,31
 419 610 419 610 396 571 c 1,32,33
 371 613 371 613 341.5 631.5 c 128,-1,34
 312 650 312 650 271 650 c 0,35,36
 205 650 205 650 169.5 600 c 128,-1,37
 134 550 134 550 126 444 c 1,25,-1
249 123 m 0,38,39
 306 123 306 123 332.5 170.5 c 128,-1,40
 359 218 359 218 359 286 c 2,41,-1
 359 364 l 1,42,-1
 124 364 l 1,43,44
 124 294 124 294 133.5 239.5 c 128,-1,45
 143 185 143 185 170 154 c 128,-1,46
 197 123 197 123 249 123 c 0,38,39
538 123 m 0,47,48
 588 123 588 123 616.5 146.5 c 128,-1,49
 645 170 645 170 658 223 c 128,-1,50
 671 276 671 276 673 364 c 1,51,-1
 438 364 l 1,52,-1
 438 286 l 2,53,54
 438 123 438 123 538 123 c 0,47,48
EndSplineSet
Ligature2: "'rlig' Required Ligatures in +BBwEPgQ9BDMEPgQ7BEwEQQQ6BDgEOQAA lookup 25 subtable" u1866.ini u1823.fin
EndChar

StartChar: u1850
Encoding: 83 6224 156
Width: 723
VWidth: 1750
GlyphClass: 2
Flags: W
LayerCount: 2
Fore
SplineSet
281 96 m 1,0,1
 192 269 192 269 50 364 c 1,2,3
 47 378 47 378 46 392 c 128,-1,4
 45 406 45 406 45 420 c 0,5,6
 45 512 45 512 71.5 577 c 128,-1,7
 98 642 98 642 145 676.5 c 128,-1,8
 192 711 192 711 253 711 c 0,9,10
 347 711 347 711 393.5 645.5 c 128,-1,11
 440 580 440 580 443 444 c 1,12,-1
 678 444 l 1,13,-1
 678 364 l 1,14,-1
 443 364 l 1,15,16
 439 288 439 288 421.5 221 c 128,-1,17
 404 154 404 154 370 96 c 1,18,-1
 281 96 l 1,0,1
324 176 m 1,19,20
 347 230 347 230 355.5 285.5 c 128,-1,21
 364 341 364 341 364 409 c 0,22,23
 364 474 364 474 356 524.5 c 128,-1,24
 348 575 348 575 324 604 c 128,-1,25
 300 633 300 633 253 633 c 0,26,27
 197 633 197 633 160.5 576.5 c 128,-1,28
 124 520 124 520 124 420 c 0,29,30
 124 418 124 418 124.5 415.5 c 128,-1,31
 125 413 125 413 126 405 c 1,32,33
 164 379 164 379 201 342 c 128,-1,34
 238 305 238 305 270 262 c 128,-1,35
 302 219 302 219 324 176 c 1,19,20
EndSplineSet
Substitution2: "'init' +BB0EMARHBDAEOwRMBD0ESwQ1 +BEQEPgRABDwESwAA in +BBwEPgQ9BDMEPgQ7BEwEQQQ6BDgEOQAA lookup 8 subtable" u1850.ini
Substitution2: "'medi' Medial Forms in +BBwEPgQ9BDMEPgQ7BEwEQQQ6BDgEOQAA lookup 6 subtable" u1850.med
Substitution2: "'fina' Terminal Forms in +BBwEPgQ9BDMEPgQ7BEwEQQQ6BDgEOQAA lookup 4 subtable" u1850.fin
EndChar

StartChar: u1850.fin
Encoding: 357 -1 159
Width: 824
VWidth: 1750
GlyphClass: 2
Flags: W
LayerCount: 2
Fore
SplineSet
231 96 m 1,0,1
 142 267 142 267 0 364 c 1,2,3
 -2 378 -2 378 -3.5 393 c 128,-1,4
 -5 408 -5 408 -5 422 c 0,5,6
 -5 514 -5 514 22 578.5 c 128,-1,7
 49 643 49 643 96 677 c 128,-1,8
 143 711 143 711 203 711 c 0,9,10
 297 711 297 711 343.5 645.5 c 128,-1,11
 390 580 390 580 393 444 c 1,12,-1
 604 444 l 2,13,14
 779 444 779 444 779 279 c 0,15,16
 779 213 779 213 754 162 c 1,17,-1
 680 162 l 1,18,19
 702 213 702 213 702 279 c 0,20,21
 702 320 702 320 679.5 342 c 128,-1,22
 657 364 657 364 604 364 c 2,23,-1
 393 364 l 1,24,25
 390 288 390 288 371.5 221 c 128,-1,26
 353 154 353 154 320 96 c 1,27,-1
 231 96 l 1,0,1
274 176 m 1,28,29
 297 230 297 230 305.5 285.5 c 128,-1,30
 314 341 314 341 314 409 c 0,31,32
 314 474 314 474 305.5 524.5 c 128,-1,33
 297 575 297 575 273.5 604 c 128,-1,34
 250 633 250 633 203 633 c 0,35,36
 158 633 158 633 129.5 602 c 128,-1,37
 101 571 101 571 87.5 522.5 c 128,-1,38
 74 474 74 474 74 420 c 0,39,40
 74 419 74 419 74.5 416 c 128,-1,41
 75 413 75 413 76 405 c 1,42,43
 114 380 114 380 151 342.5 c 128,-1,44
 188 305 188 305 220 262 c 128,-1,45
 252 219 252 219 274 176 c 1,28,29
EndSplineSet
EndChar

StartChar: u184F
Encoding: 82 6223 160
Width: 526
VWidth: 1750
GlyphClass: 2
Flags: W
LayerCount: 2
Fore
SplineSet
341 74 m 1,0,1
 251 77 251 77 184.5 122 c 128,-1,2
 118 167 118 167 81.5 241.5 c 128,-1,3
 45 316 45 316 45 409 c 0,4,5
 45 487 45 487 72 544.5 c 128,-1,6
 99 602 99 602 144.5 633.5 c 128,-1,7
 190 665 190 665 246 665 c 0,8,9
 313 665 313 665 353 614 c 1,10,11
 367 641 367 641 383.5 667 c 128,-1,12
 400 693 400 693 417 718 c 1,13,-1
 516 718 l 1,14,15
 455 632 455 632 416 549.5 c 128,-1,16
 377 467 377 467 359 379 c 128,-1,17
 341 291 341 291 341 186 c 2,18,-1
 341 74 l 1,0,1
262 183 m 1,19,20
 262 391 262 391 324 548 c 1,21,22
 296 593 296 593 246 593 c 0,23,24
 204 593 204 593 175.5 568 c 128,-1,25
 147 543 147 543 133 501.5 c 128,-1,26
 119 460 119 460 119 410 c 0,27,28
 119 331 119 331 155 270 c 128,-1,29
 191 209 191 209 262 183 c 1,19,20
EndSplineSet
Substitution2: "'init' +BB0EMARHBDAEOwRMBD0ESwQ1 +BEQEPgRABDwESwAA in +BBwEPgQ9BDMEPgQ7BEwEQQQ6BDgEOQAA lookup 8 subtable" u184F.ini
Substitution2: "'medi' Medial Forms in +BBwEPgQ9BDMEPgQ7BEwEQQQ6BDgEOQAA lookup 6 subtable" u184F.med
Substitution2: "'fina' Terminal Forms in +BBwEPgQ9BDMEPgQ7BEwEQQQ6BDgEOQAA lookup 4 subtable" u184F.fin
EndChar

StartChar: u1853.med
Encoding: 358 -1 161
Width: 530
VWidth: 1750
GlyphClass: 2
Flags: W
LayerCount: 2
Fore
SplineSet
356 -176 m 1,0,1
 315 -144 315 -144 273.5 -137 c 128,-1,2
 232 -130 232 -130 176 -130 c 2,3,-1
 155 -130 l 2,4,5
 77 -130 77 -130 38.5 -93.5 c 128,-1,6
 0 -57 0 -57 0 12 c 0,7,8
 0 84 0 84 45 122.5 c 128,-1,9
 90 161 90 161 180 161 c 2,10,-1
 269 161 l 1,11,12
 241 249 241 249 241 364 c 1,13,-1
 0 364 l 1,14,-1
 0 444 l 1,15,-1
 560 444 l 1,16,-1
 560 364 l 1,17,-1
 315 364 l 1,18,19
 315 256 315 256 356 142 c 1,20,-1
 356 81 l 1,21,-1
 180 81 l 2,22,23
 133 81 133 81 102 68 c 128,-1,24
 71 55 71 55 71 12 c 0,25,26
 71 -16 71 -16 92 -33 c 128,-1,27
 113 -50 113 -50 155 -50 c 2,28,-1
 176 -50 l 2,29,30
 232 -50 232 -50 277 -56.5 c 128,-1,31
 322 -63 322 -63 356 -89 c 1,32,-1
 356 -176 l 1,0,1
EndSplineSet
EndChar

StartChar: u1853
Encoding: 86 6227 163
Width: 767
VWidth: 1750
GlyphClass: 2
Flags: W
LayerCount: 2
Fore
SplineSet
518 -176 m 1,0,1
 477 -144 477 -144 435.5 -137 c 128,-1,2
 394 -130 394 -130 338 -130 c 2,3,-1
 317 -130 l 2,4,5
 162 -130 162 -130 162 12 c 0,6,7
 162 84 162 84 207 122.5 c 128,-1,8
 252 161 252 161 342 161 c 2,9,-1
 431 161 l 1,10,11
 403 251 403 251 403 364 c 1,12,-1
 45 364 l 1,13,-1
 63 444 l 1,14,-1
 722 444 l 1,15,-1
 722 364 l 1,16,-1
 477 364 l 1,17,18
 477 256 477 256 518 142 c 1,19,-1
 518 81 l 1,20,-1
 342 81 l 2,21,22
 295 81 295 81 264 68 c 128,-1,23
 233 55 233 55 233 12 c 0,24,25
 233 -16 233 -16 254 -33 c 128,-1,26
 275 -50 275 -50 317 -50 c 2,27,-1
 338 -50 l 2,28,29
 394 -50 394 -50 440 -56.5 c 128,-1,30
 486 -63 486 -63 518 -89 c 1,31,-1
 518 -176 l 1,0,1
EndSplineSet
Substitution2: "'init' +BB0EMARHBDAEOwRMBD0ESwQ1 +BEQEPgRABDwESwAA in +BBwEPgQ9BDMEPgQ7BEwEQQQ6BDgEOQAA lookup 8 subtable" u1853.ini
Substitution2: "'medi' Medial Forms in +BBwEPgQ9BDMEPgQ7BEwEQQQ6BDgEOQAA lookup 6 subtable" u1853.med
Substitution2: "'fina' Terminal Forms in +BBwEPgQ9BDMEPgQ7BEwEQQQ6BDgEOQAA lookup 4 subtable" u1853.fin
EndChar

StartChar: u1846.fin
Encoding: 360 -1 164
Width: 423
VWidth: 1750
GlyphClass: 2
Flags: W
LayerCount: 2
Fore
SplineSet
378 3 m 1,0,-1
 176 47 l 2,1,2
 87 67 87 67 43.5 124.5 c 128,-1,3
 0 182 0 182 0 267 c 2,4,-1
 0 444 l 1,5,-1
 378 444 l 1,6,-1
 378 3 l 1,0,-1
300 104 m 1,7,-1
 300 364 l 1,8,-1
 79 364 l 1,9,-1
 79 267 l 2,10,11
 79 214 79 214 108.5 177.5 c 128,-1,12
 138 141 138 141 198 127 c 2,13,-1
 300 104 l 1,7,-1
EndSplineSet
EndChar

StartChar: u1846.med
Encoding: 361 -1 165
Width: 560
VWidth: 1750
GlyphClass: 2
Flags: W
LayerCount: 2
Fore
SplineSet
378 3 m 1,0,-1
 176 47 l 2,1,2
 87 67 87 67 43.5 124.5 c 128,-1,3
 0 182 0 182 0 267 c 2,4,-1
 0 444 l 1,5,-1
 590 444 l 1,6,-1
 590 364 l 1,7,-1
 378 364 l 1,8,-1
 378 3 l 1,0,-1
300 104 m 1,9,-1
 300 364 l 1,10,-1
 79 364 l 1,11,-1
 79 267 l 2,12,13
 79 214 79 214 108.5 177.5 c 128,-1,14
 138 141 138 141 198 127 c 2,15,-1
 300 104 l 1,9,-1
EndSplineSet
Substitution2: "Single Substitution lookup 18 subtable" u1846.medV1
EndChar

StartChar: u184C.ini
Encoding: 362 -1 166
Width: 594
VWidth: 1750
GlyphClass: 2
Flags: W
LayerCount: 2
Fore
SplineSet
45 63 m 1,0,-1
 45 711 l 1,1,-1
 116 711 l 1,2,-1
 116 444 l 1,3,-1
 210 444 l 1,4,5
 210 530 210 530 239.5 593.5 c 128,-1,6
 269 657 269 657 321 692 c 128,-1,7
 373 727 373 727 439 727 c 0,8,9
 550 727 550 727 605.5 638 c 128,-1,10
 661 549 661 549 668 364 c 1,11,-1
 594 364 l 1,12,13
 589 447 589 447 575.5 510 c 128,-1,14
 562 573 562 573 530.5 608.5 c 128,-1,15
 499 644 499 644 439 644 c 0,16,17
 370 644 370 644 329.5 591.5 c 128,-1,18
 289 539 289 539 289 430 c 0,19,20
 289 266 289 266 405 63 c 1,21,-1
 45 63 l 1,0,-1
116 146 m 1,22,-1
 276 146 l 1,23,24
 225 257 225 257 213 364 c 1,25,-1
 116 364 l 1,26,-1
 116 146 l 1,22,-1
EndSplineSet
EndChar

StartChar: u1822
Encoding: 37 6178 167
Width: 993
VWidth: 1750
GlyphClass: 2
Flags: W
LayerCount: 2
Fore
SplineSet
619 42 m 1,0,1
 505 209 505 209 492 364 c 1,2,-1
 445 364 l 2,3,4
 390 364 390 364 360.5 350 c 128,-1,5
 331 336 331 336 318.5 304.5 c 128,-1,6
 306 273 306 273 302 219 c 2,7,-1
 292 74 l 1,8,-1
 226 74 l 1,9,-1
 200 437 l 2,10,11
 196 499 196 499 180 537 c 128,-1,12
 164 575 164 575 118 575 c 256,13,14
 72 575 72 575 10 550 c 1,15,-1
 10 623 l 1,16,17
 81 653 81 653 139 653 c 0,18,19
 194 653 194 653 223 628 c 128,-1,20
 252 603 252 603 264 556.5 c 128,-1,21
 276 510 276 510 278 445 c 2,22,-1
 281 361 l 1,23,-1
 285 361 l 1,24,25
 318 444 318 444 444 444 c 2,26,-1
 491 444 l 1,27,28
 499 557 499 557 557.5 624.5 c 128,-1,29
 616 692 616 692 718 692 c 0,30,31
 795 692 795 692 844 650 c 128,-1,32
 893 608 893 608 918 538.5 c 128,-1,33
 943 469 943 469 948 386 c 1,34,-1
 868 376 l 1,35,36
 860 488 860 488 822 548.5 c 128,-1,37
 784 609 784 609 718 609 c 0,38,39
 649 609 649 609 609 559.5 c 128,-1,40
 569 510 569 510 569 407 c 0,41,42
 569 317 569 317 602.5 239.5 c 128,-1,43
 636 162 636 162 691 85 c 1,44,-1
 619 42 l 1,0,1
EndSplineSet
Substitution2: "Single Substitution lookup 24 subtable" u1822.fin
Substitution2: "Single Substitution lookup 22 subtable" u1822.med
Substitution2: "'init' +BB0EMARHBDAEOwRMBD0ESwQ1 +BEQEPgRABDwESwAA in +BBwEPgQ9BDMEPgQ7BEwEQQQ6BDgEOQAA lookup 8 subtable" u1822.ini
Substitution2: "'medi' Medial Forms in +BBwEPgQ9BDMEPgQ7BEwEQQQ6BDgEOQAA lookup 6 subtable" u1822.med
Substitution2: "'fina' Terminal Forms in +BBwEPgQ9BDMEPgQ7BEwEQQQ6BDgEOQAA lookup 4 subtable" u1822.fin
EndChar

StartChar: u1826.isoV1
Encoding: 363 -1 168
Width: 1126
VWidth: 1750
GlyphClass: 2
Flags: W
LayerCount: 2
Fore
SplineSet
717 40 m 0,0,1
 612 40 612 40 555.5 118.5 c 128,-1,2
 499 197 499 197 491 364 c 1,3,-1
 445 364 l 2,4,5
 391 364 391 364 361.5 350.5 c 128,-1,6
 332 337 332 337 319 305.5 c 128,-1,7
 306 274 306 274 302 219 c 2,8,-1
 292 74 l 1,9,-1
 226 74 l 1,10,-1
 200 437 l 2,11,12
 196 499 196 499 180 537 c 128,-1,13
 164 575 164 575 118 575 c 256,14,15
 72 575 72 575 10 550 c 1,16,-1
 10 623 l 1,17,18
 81 653 81 653 139 653 c 0,19,20
 194 653 194 653 223 628 c 128,-1,21
 252 603 252 603 264 556.5 c 128,-1,22
 276 510 276 510 278 445 c 2,23,-1
 281 361 l 1,24,-1
 285 361 l 1,25,26
 318 444 318 444 444 444 c 2,27,-1
 492 444 l 1,28,29
 498 545 498 545 532 621 c 128,-1,30
 566 697 566 697 628.5 739.5 c 128,-1,31
 691 782 691 782 781 782 c 0,32,33
 850 782 850 782 904 752 c 128,-1,34
 958 722 958 722 996 671 c 128,-1,35
 1034 620 1034 620 1055.5 555 c 128,-1,36
 1077 490 1077 490 1081 419 c 1,37,-1
 1001 409 l 1,38,39
 996 488 996 488 970.5 553.5 c 128,-1,40
 945 619 945 619 898 659 c 128,-1,41
 851 699 851 699 781 699 c 0,42,43
 712 699 712 699 665.5 665.5 c 128,-1,44
 619 632 619 632 595 574.5 c 128,-1,45
 571 517 571 517 570 444 c 1,46,-1
 874 444 l 1,47,48
 881 424 881 424 886 393 c 128,-1,49
 891 362 891 362 894 330 c 128,-1,50
 897 298 897 298 897 275 c 0,51,52
 897 207 897 207 874.5 153.5 c 128,-1,53
 852 100 852 100 811.5 70 c 128,-1,54
 771 40 771 40 717 40 c 0,0,1
710 123 m 0,55,56
 765 123 765 123 791.5 167 c 128,-1,57
 818 211 818 211 818 275 c 0,58,59
 818 304 818 304 815.5 326.5 c 128,-1,60
 813 349 813 349 808 364 c 1,61,-1
 570 364 l 1,62,63
 574 123 574 123 710 123 c 0,55,56
EndSplineSet
Ligature2: "'rlig' Required Ligatures in +BBwEPgQ9BDMEPgQ7BEwEQQQ6BDgEOQAA lookup 26 subtable" u1826.iso FVS1
EndChar

StartChar: u186E
Encoding: 113 6254 170
Width: 756
VWidth: 1750
GlyphClass: 2
Flags: W
LayerCount: 2
Fore
SplineSet
443 73 m 1,0,1
 432 132 432 132 416 201.5 c 128,-1,2
 400 271 400 271 382 341.5 c 128,-1,3
 364 412 364 412 345 476.5 c 128,-1,4
 326 541 326 541 308 590 c 1,5,-1
 304 590 l 1,6,7
 290 520 290 520 270 459 c 0,8,9
 250 399 250 399 220 372.5 c 128,-1,10
 190 346 190 346 135 346 c 0,11,12
 88 346 88 346 45 371 c 1,13,-1
 45 446 l 1,14,15
 90 427 90 427 131 427 c 0,16,17
 158 427 158 427 176 445 c 128,-1,18
 194 463 194 463 206 493 c 128,-1,19
 218 523 218 523 227 559 c 0,20,21
 241 614 241 614 248 646 c 128,-1,22
 255 678 255 678 258 694 c 1,23,-1
 114 694 l 1,24,-1
 114 756 l 1,25,-1
 271 756 l 1,26,-1
 271 888 l 1,27,-1
 334 888 l 1,28,-1
 334 756 l 1,29,-1
 499 756 l 1,30,-1
 499 694 l 1,31,-1
 352 694 l 1,32,33
 373 631 373 631 392 568.5 c 128,-1,34
 411 506 411 506 428 444 c 1,35,-1
 711 444 l 1,36,-1
 711 364 l 1,37,-1
 450 364 l 1,38,39
 476 260 476 260 493 187 c 128,-1,40
 510 114 510 114 519 73 c 1,41,-1
 443 73 l 1,0,1
EndSplineSet
Substitution2: "'init' +BB0EMARHBDAEOwRMBD0ESwQ1 +BEQEPgRABDwESwAA in +BBwEPgQ9BDMEPgQ7BEwEQQQ6BDgEOQAA lookup 8 subtable" u186E.ini
Substitution2: "'medi' Medial Forms in +BBwEPgQ9BDMEPgQ7BEwEQQQ6BDgEOQAA lookup 6 subtable" u186E.med
Substitution2: "'fina' Terminal Forms in +BBwEPgQ9BDMEPgQ7BEwEQQQ6BDgEOQAA lookup 4 subtable" u186E.fin
EndChar

StartChar: u1823
Encoding: 38 6179 171
Width: 932
VWidth: 1750
GlyphClass: 2
Flags: W
LayerCount: 2
Fore
SplineSet
689 40 m 256,0,1
 594 40 594 40 543 94.5 c 128,-1,2
 492 149 492 149 492 249 c 0,3,4
 492 316 492 316 512 364 c 1,5,-1
 445 364 l 2,6,7
 390 364 390 364 360.5 350 c 128,-1,8
 331 336 331 336 318.5 304.5 c 128,-1,9
 306 273 306 273 302 219 c 2,10,-1
 292 74 l 1,11,-1
 226 74 l 1,12,-1
 200 437 l 2,13,14
 196 499 196 499 180 537 c 128,-1,15
 164 575 164 575 118 575 c 256,16,17
 72 575 72 575 10 550 c 1,18,-1
 10 623 l 1,19,20
 81 653 81 653 139 653 c 0,21,22
 194 653 194 653 223 628 c 128,-1,23
 252 603 252 603 264 556.5 c 128,-1,24
 276 510 276 510 278 445 c 2,25,-1
 281 361 l 1,26,-1
 285 361 l 1,27,28
 318 444 318 444 444 444 c 2,29,-1
 840 444 l 1,30,31
 862 405 862 405 874.5 350.5 c 128,-1,32
 887 296 887 296 887 249 c 0,33,34
 887 155 887 155 835.5 97.5 c 128,-1,35
 784 40 784 40 689 40 c 256,0,1
689 123 m 0,36,37
 745 123 745 123 776.5 155 c 128,-1,38
 808 187 808 187 808 251 c 0,39,40
 808 313 808 313 786 364 c 1,41,-1
 591 364 l 1,42,43
 571 315 571 315 571 251 c 0,44,45
 571 123 571 123 689 123 c 0,36,37
EndSplineSet
Substitution2: "'init' +BB0EMARHBDAEOwRMBD0ESwQ1 +BEQEPgRABDwESwAA in +BBwEPgQ9BDMEPgQ7BEwEQQQ6BDgEOQAA lookup 8 subtable" u1823.ini
Substitution2: "'medi' Medial Forms in +BBwEPgQ9BDMEPgQ7BEwEQQQ6BDgEOQAA lookup 6 subtable" u1823.med
Substitution2: "'fina' Terminal Forms in +BBwEPgQ9BDMEPgQ7BEwEQQQ6BDgEOQAA lookup 4 subtable" u1823.fin
EndChar

StartChar: u1825.ini
Encoding: 368 -1 175
Width: 1360
VWidth: 1750
GlyphClass: 2
Flags: W
LayerCount: 2
Fore
SplineSet
1172 -67 m 1,0,1
 1113 43 1113 43 1070 151 c 128,-1,2
 1027 259 1027 259 999 364 c 1,3,-1
 865 364 l 1,4,5
 887 316 887 316 887 249 c 0,6,7
 887 155 887 155 835.5 97.5 c 128,-1,8
 784 40 784 40 689 40 c 256,9,10
 594 40 594 40 543 94.5 c 128,-1,11
 492 149 492 149 492 249 c 0,12,13
 492 316 492 316 512 364 c 1,14,-1
 445 364 l 2,15,16
 390 364 390 364 360.5 350 c 128,-1,17
 331 336 331 336 318.5 304.5 c 128,-1,18
 306 273 306 273 302 219 c 2,19,-1
 292 74 l 1,20,-1
 226 74 l 1,21,-1
 200 437 l 2,22,23
 196 499 196 499 180 537 c 128,-1,24
 164 575 164 575 118 575 c 256,25,26
 72 575 72 575 10 550 c 1,27,-1
 10 623 l 1,28,29
 81 653 81 653 139 653 c 0,30,31
 194 653 194 653 223 628 c 128,-1,32
 252 603 252 603 264 556.5 c 128,-1,33
 276 510 276 510 278 445 c 2,34,-1
 281 361 l 1,35,-1
 285 361 l 1,36,37
 318 444 318 444 444 444 c 2,38,-1
 1390 444 l 1,39,-1
 1390 364 l 1,40,-1
 1078 364 l 1,41,42
 1107 264 1107 264 1148.5 165.5 c 128,-1,43
 1190 67 1190 67 1245 -31 c 1,44,-1
 1172 -67 l 1,0,1
689 123 m 0,45,46
 745 123 745 123 776.5 155 c 128,-1,47
 808 187 808 187 808 251 c 256,48,49
 808 315 808 315 788 364 c 1,50,-1
 591 364 l 1,51,52
 571 315 571 315 571 251 c 0,53,54
 571 123 571 123 689 123 c 0,45,46
EndSplineSet
EndChar

StartChar: u1825.medV2
Encoding: 369 -1 176
Width: 1152
VWidth: 1750
GlyphClass: 2
Flags: W
LayerCount: 2
Fore
SplineSet
964 -67 m 1,0,1
 905 43 905 43 862 151 c 128,-1,2
 819 259 819 259 791 364 c 1,3,-1
 657 364 l 1,4,5
 679 316 679 316 679 249 c 0,6,7
 679 155 679 155 627.5 97.5 c 128,-1,8
 576 40 576 40 481 40 c 256,9,10
 386 40 386 40 335 94.5 c 128,-1,11
 284 149 284 149 284 249 c 0,12,13
 284 316 284 316 304 364 c 1,14,-1
 104 364 l 1,15,-1
 85 96 l 1,16,-1
 19 96 l 1,17,-1
 0 364 l 1,18,-1
 0 444 l 1,19,-1
 1182 444 l 1,20,-1
 1182 364 l 1,21,-1
 870 364 l 1,22,23
 899 264 899 264 940.5 165.5 c 128,-1,24
 982 67 982 67 1037 -31 c 1,25,-1
 964 -67 l 1,0,1
481 123 m 0,26,27
 537 123 537 123 568.5 155 c 128,-1,28
 600 187 600 187 600 251 c 256,29,30
 600 315 600 315 580 364 c 1,31,-1
 383 364 l 1,32,33
 363 315 363 315 363 251 c 0,34,35
 363 123 363 123 481 123 c 0,26,27
EndSplineSet
Ligature2: "'rlig' Required Ligatures in +BBwEPgQ9BDMEPgQ7BEwEQQQ6BDgEOQAA lookup 26 subtable" u1825.med FVS2
Ligature2: "'medi' Medial Forms in +BBwEPgQ9BDMEPgQ7BEwEQQQ6BDgEOQAA lookup 5 subtable" u1825 FVS2
EndChar

StartChar: u183E.fin
Encoding: 371 -1 178
Width: 771
VWidth: 1750
GlyphClass: 2
Flags: W
LayerCount: 2
Fore
SplineSet
140 -182 m 1,0,1
 69 -50 69 -50 34.5 83 c 128,-1,2
 0 216 0 216 0 364 c 2,3,-1
 0 444 l 1,4,-1
 75 444 l 1,5,-1
 75 364 l 2,6,7
 75 241 75 241 99 138 c 128,-1,8
 123 35 123 35 179 -72 c 1,9,-1
 303 -17 l 1,10,11
 219 148 219 148 219 366 c 2,12,-1
 219 444 l 1,13,-1
 551 444 l 2,14,15
 726 444 726 444 726 279 c 0,16,17
 726 216 726 216 701 162 c 1,18,-1
 627 162 l 1,19,20
 649 212 649 212 649 279 c 0,21,22
 649 320 649 320 626.5 342 c 128,-1,23
 604 364 604 364 551 364 c 2,24,-1
 295 364 l 1,25,26
 297 252 297 252 325 149.5 c 128,-1,27
 353 47 353 47 409 -57 c 1,28,-1
 140 -182 l 1,0,1
EndSplineSet
EndChar

StartChar: u1834.fin
Encoding: 372 -1 179
Width: 780
VWidth: 1750
GlyphClass: 2
Flags: W
LayerCount: 2
Fore
SplineSet
0 16 m 1,0,-1
 0 101 l 1,1,2
 47 131 47 131 106 137 c 128,-1,3
 165 143 165 143 235 143 c 2,4,-1
 271 143 l 1,5,6
 241 238 241 238 241 364 c 1,7,-1
 0 364 l 1,8,-1
 0 444 l 1,9,-1
 560 444 l 2,10,11
 735 444 735 444 735 279 c 0,12,13
 735 213 735 213 710 162 c 1,14,-1
 636 162 l 1,15,16
 658 213 658 213 658 279 c 0,17,18
 658 320 658 320 635.5 342 c 128,-1,19
 613 364 613 364 560 364 c 2,20,-1
 315 364 l 1,21,22
 315 301 315 301 325.5 245 c 128,-1,23
 336 189 336 189 356 129 c 1,24,-1
 356 63 l 1,25,-1
 235 63 l 2,26,27
 162 63 162 63 106.5 55 c 128,-1,28
 51 47 51 47 0 16 c 1,0,-1
EndSplineSet
EndChar

StartChar: u1823.ini
Encoding: 373 -1 180
Width: 1065
VWidth: 1750
GlyphClass: 2
Flags: W
LayerCount: 2
Fore
SplineSet
689 40 m 256,0,1
 594 40 594 40 543 94.5 c 128,-1,2
 492 149 492 149 492 249 c 0,3,4
 492 316 492 316 512 364 c 1,5,-1
 445 364 l 2,6,7
 390 364 390 364 360.5 350 c 128,-1,8
 331 336 331 336 318.5 304.5 c 128,-1,9
 306 273 306 273 302 219 c 2,10,-1
 292 74 l 1,11,-1
 226 74 l 1,12,-1
 200 437 l 2,13,14
 196 499 196 499 180 537 c 128,-1,15
 164 575 164 575 118 575 c 256,16,17
 72 575 72 575 10 550 c 1,18,-1
 10 623 l 1,19,20
 81 653 81 653 139 653 c 0,21,22
 194 653 194 653 223 628 c 128,-1,23
 252 603 252 603 264 556.5 c 128,-1,24
 276 510 276 510 278 445 c 2,25,-1
 281 361 l 1,26,-1
 285 361 l 1,27,28
 318 444 318 444 444 444 c 2,29,-1
 1095 444 l 1,30,-1
 1095 364 l 1,31,-1
 865 364 l 1,32,33
 887 316 887 316 887 249 c 0,34,35
 887 155 887 155 835.5 97.5 c 128,-1,36
 784 40 784 40 689 40 c 256,0,1
689 123 m 0,37,38
 745 123 745 123 776.5 155 c 128,-1,39
 808 187 808 187 808 251 c 256,40,41
 808 315 808 315 788 364 c 1,42,-1
 591 364 l 1,43,44
 571 315 571 315 571 251 c 0,45,46
 571 123 571 123 689 123 c 0,37,38
EndSplineSet
EndChar

StartChar: u1823.medV1
Encoding: 374 -1 181
Width: 857
VWidth: 1750
GlyphClass: 2
Flags: W
LayerCount: 2
Fore
SplineSet
481 40 m 256,0,1
 386 40 386 40 335 94.5 c 128,-1,2
 284 149 284 149 284 249 c 0,3,4
 284 316 284 316 304 364 c 1,5,-1
 104 364 l 1,6,-1
 85 96 l 1,7,-1
 19 96 l 1,8,-1
 0 364 l 1,9,-1
 0 444 l 1,10,-1
 887 444 l 1,11,-1
 887 364 l 1,12,-1
 657 364 l 1,13,14
 679 316 679 316 679 249 c 0,15,16
 679 155 679 155 627.5 97.5 c 128,-1,17
 576 40 576 40 481 40 c 256,0,1
481 123 m 0,18,19
 537 123 537 123 568.5 155 c 128,-1,20
 600 187 600 187 600 251 c 256,21,22
 600 315 600 315 580 364 c 1,23,-1
 383 364 l 1,24,25
 363 315 363 315 363 251 c 0,26,27
 363 123 363 123 481 123 c 0,18,19
EndSplineSet
Ligature2: "'medi' Medial Forms in +BBwEPgQ9BDMEPgQ7BEwEQQQ6BDgEOQAA lookup 5 subtable" u1823 FVS1
EndChar

StartChar: u1825
Encoding: 40 6181 182
Width: 1235
VWidth: 1750
GlyphClass: 2
Flags: W
LayerCount: 2
Fore
SplineSet
689 40 m 256,0,1
 594 40 594 40 543 94.5 c 128,-1,2
 492 149 492 149 492 249 c 0,3,4
 492 316 492 316 512 364 c 1,5,-1
 445 364 l 2,6,7
 391 364 391 364 361 351 c 128,-1,8
 331 338 331 338 318.5 306.5 c 128,-1,9
 306 275 306 275 302 219 c 2,10,-1
 292 74 l 1,11,-1
 226 74 l 1,12,-1
 200 437 l 2,13,14
 196 499 196 499 180 537 c 128,-1,15
 164 575 164 575 118 575 c 256,16,17
 72 575 72 575 10 550 c 1,18,-1
 10 623 l 1,19,20
 81 653 81 653 139 653 c 0,21,22
 194 653 194 653 223 628 c 128,-1,23
 252 603 252 603 264 556.5 c 128,-1,24
 276 510 276 510 278 445 c 2,25,-1
 281 361 l 1,26,-1
 285 361 l 1,27,28
 318 444 318 444 444 444 c 2,29,-1
 1015 444 l 2,30,31
 1190 444 1190 444 1190 279 c 0,32,33
 1190 216 1190 216 1165 162 c 1,34,-1
 1091 162 l 1,35,36
 1102 188 1102 188 1107.5 217 c 128,-1,37
 1113 246 1113 246 1113 279 c 0,38,39
 1113 320 1113 320 1090.5 342 c 128,-1,40
 1068 364 1068 364 1015 364 c 2,41,-1
 865 364 l 1,42,43
 887 316 887 316 887 249 c 0,44,45
 887 155 887 155 835.5 97.5 c 128,-1,46
 784 40 784 40 689 40 c 256,0,1
689 123 m 0,47,48
 745 123 745 123 776.5 155 c 128,-1,49
 808 187 808 187 808 251 c 256,50,51
 808 315 808 315 788 364 c 1,52,-1
 591 364 l 1,53,54
 571 315 571 315 571 251 c 0,55,56
 571 123 571 123 689 123 c 0,47,48
EndSplineSet
Substitution2: "'init' +BB0EMARHBDAEOwRMBD0ESwQ1 +BEQEPgRABDwESwAA in +BBwEPgQ9BDMEPgQ7BEwEQQQ6BDgEOQAA lookup 8 subtable" u1825.ini
Substitution2: "'medi' Medial Forms in +BBwEPgQ9BDMEPgQ7BEwEQQQ6BDgEOQAA lookup 6 subtable" u1825.med
Substitution2: "'fina' Terminal Forms in +BBwEPgQ9BDMEPgQ7BEwEQQQ6BDgEOQAA lookup 4 subtable" u1825.fin
EndChar

StartChar: u1825.finV1
Encoding: 375 -1 183
Width: 743
VWidth: 1750
GlyphClass: 2
Flags: W
LayerCount: 2
Fore
SplineSet
197 40 m 0,0,1
 101 40 101 40 50.5 94.5 c 128,-1,2
 0 149 0 149 0 249 c 0,3,4
 0 316 0 316 20 364 c 1,5,-1
 0 364 l 1,6,-1
 0 444 l 1,7,-1
 523 444 l 2,8,9
 698 444 698 444 698 279 c 0,10,11
 698 215 698 215 673 162 c 1,12,-1
 599 162 l 1,13,14
 621 213 621 213 621 279 c 0,15,16
 621 320 621 320 598.5 342 c 128,-1,17
 576 364 576 364 523 364 c 2,18,-1
 373 364 l 1,19,20
 395 316 395 316 395 249 c 0,21,22
 395 155 395 155 343.5 97.5 c 128,-1,23
 292 40 292 40 197 40 c 0,0,1
197 123 m 0,24,25
 253 123 253 123 284.5 155 c 128,-1,26
 316 187 316 187 316 251 c 0,27,28
 316 316 316 316 296 364 c 1,29,-1
 99 364 l 1,30,31
 79 316 79 316 79 251 c 0,32,33
 79 123 79 123 197 123 c 0,24,25
EndSplineSet
Ligature2: "'rlig' Required Ligatures in +BBwEPgQ9BDMEPgQ7BEwEQQQ6BDgEOQAA lookup 26 subtable" u1825.fin FVS1
EndChar

StartChar: u1833.fin
Encoding: 376 -1 184
Width: 1000
VWidth: 1750
GlyphClass: 2
Flags: W
LayerCount: 2
Fore
SplineSet
197 40 m 0,0,1
 101 40 101 40 50.5 94.5 c 128,-1,2
 0 149 0 149 0 249 c 0,3,4
 0 316 0 316 20 364 c 1,5,-1
 0 364 l 1,6,-1
 0 444 l 1,7,-1
 614 444 l 1,8,9
 614 376 614 376 622 321 c 128,-1,10
 630 266 630 266 654 225 c 128,-1,11
 678 184 678 184 724 156 c 1,12,13
 724 247 724 247 734 342 c 128,-1,14
 744 437 744 437 765 527.5 c 128,-1,15
 786 618 786 618 819 697 c 128,-1,16
 852 776 852 776 898 836 c 1,17,-1
 990 836 l 1,18,19
 922 751 922 751 880 638.5 c 128,-1,20
 838 526 838 526 819.5 401.5 c 128,-1,21
 801 277 801 277 801 156 c 2,22,-1
 801 53 l 1,23,24
 721 58 721 58 662 102.5 c 128,-1,25
 603 147 603 147 571.5 216.5 c 128,-1,26
 540 286 540 286 540 364 c 1,27,-1
 373 364 l 1,28,29
 395 316 395 316 395 249 c 0,30,31
 395 155 395 155 343.5 97.5 c 128,-1,32
 292 40 292 40 197 40 c 0,0,1
197 123 m 0,33,34
 253 123 253 123 284.5 155 c 128,-1,35
 316 187 316 187 316 251 c 0,36,37
 316 316 316 316 296 364 c 1,38,-1
 99 364 l 1,39,40
 79 316 79 316 79 251 c 0,41,42
 79 123 79 123 197 123 c 0,33,34
EndSplineSet
EndChar

StartChar: u182A_1825.V1
Encoding: 377 -1 185
Width: 1183
VWidth: 1750
GlyphClass: 2
Flags: W
LayerCount: 2
Fore
SplineSet
249 40 m 0,0,1
 143 40 143 40 94 125 c 128,-1,2
 45 210 45 210 45 375 c 0,3,4
 45 496 45 496 87.5 587.5 c 128,-1,5
 130 679 130 679 211 730.5 c 128,-1,6
 292 782 292 782 405 782 c 0,7,8
 502 782 502 782 575 741 c 128,-1,9
 648 700 648 700 692.5 624 c 128,-1,10
 737 548 737 548 748 444 c 1,11,-1
 963 444 l 2,12,13
 1138 444 1138 444 1138 279 c 0,14,15
 1138 215 1138 215 1113 162 c 1,16,-1
 1039 162 l 1,17,18
 1061 213 1061 213 1061 279 c 0,19,20
 1061 320 1061 320 1038.5 342 c 128,-1,21
 1016 364 1016 364 963 364 c 2,22,-1
 752 364 l 1,23,24
 751 201 751 201 698 120.5 c 128,-1,25
 645 40 645 40 538 40 c 0,26,27
 490 40 490 40 453.5 63.5 c 128,-1,28
 417 87 417 87 396 135 c 1,29,30
 377 88 377 88 336.5 64 c 128,-1,31
 296 40 296 40 249 40 c 0,0,1
127 444 m 1,32,-1
 668 444 l 1,33,34
 658 520 658 520 624.5 577.5 c 128,-1,35
 591 635 591 635 536 667 c 128,-1,36
 481 699 481 699 405 699 c 0,37,38
 278 699 278 699 209.5 632 c 128,-1,39
 141 565 141 565 127 444 c 1,32,-1
248 123 m 0,40,41
 304 123 304 123 331.5 168.5 c 128,-1,42
 359 214 359 214 359 282 c 2,43,-1
 359 364 l 1,44,-1
 124 364 l 1,45,46
 124 293 124 293 133.5 238.5 c 128,-1,47
 143 184 143 184 169.5 153.5 c 128,-1,48
 196 123 196 123 248 123 c 0,40,41
538 123 m 0,49,50
 588 123 588 123 616.5 146.5 c 128,-1,51
 645 170 645 170 658 223 c 128,-1,52
 671 276 671 276 673 364 c 1,53,-1
 438 364 l 1,54,-1
 438 286 l 2,55,56
 438 123 438 123 538 123 c 0,49,50
EndSplineSet
Ligature2: "'rlig' Required Ligatures in +BBwEPgQ9BDMEPgQ7BEwEQQQ6BDgEOQAA lookup 25 subtable" u182A.ini u1825.finV1
Ligature2: "'rlig' Required Ligatures in +BBwEPgQ9BDMEPgQ7BEwEQQQ6BDgEOQAA lookup 25 subtable" u182A.ini u1825.fin FVS1
EndChar

StartChar: u182C_1825
Encoding: 379 -1 188
Width: 1135
VWidth: 1750
GlyphClass: 2
Flags: W
LayerCount: 2
Fore
SplineSet
510 40 m 0,0,1
 410 40 410 40 359.5 103.5 c 128,-1,2
 309 167 309 167 309 275 c 0,3,4
 309 316 309 316 319 362.5 c 128,-1,5
 329 409 329 409 347 444 c 1,6,-1
 614 444 l 1,7,8
 572 677 572 677 365 677 c 0,9,10
 288 677 288 677 234 643 c 128,-1,11
 180 609 180 609 152 547.5 c 128,-1,12
 124 486 124 486 124 405 c 0,13,14
 124 336 124 336 146.5 251.5 c 128,-1,15
 169 167 169 167 219 73 c 1,16,-1
 146 42 l 1,17,18
 101 125 101 125 73 222.5 c 128,-1,19
 45 320 45 320 45 408 c 0,20,21
 45 512 45 512 84.5 591.5 c 128,-1,22
 124 671 124 671 196 715.5 c 128,-1,23
 268 760 268 760 365 760 c 0,24,25
 500 760 500 760 583.5 679 c 128,-1,26
 667 598 667 598 693 444 c 1,27,-1
 915 444 l 2,28,29
 1090 444 1090 444 1090 279 c 0,30,31
 1090 213 1090 213 1065 162 c 1,32,-1
 991 162 l 1,33,34
 1013 213 1013 213 1013 279 c 0,35,36
 1013 320 1013 320 990.5 342 c 128,-1,37
 968 364 968 364 915 364 c 2,38,-1
 702 364 l 1,39,40
 704 349 704 349 704 334 c 128,-1,41
 704 319 704 319 704 303 c 0,42,43
 704 224 704 224 678.5 164.5 c 128,-1,44
 653 105 653 105 609.5 72.5 c 128,-1,45
 566 40 566 40 510 40 c 0,0,1
502 123 m 0,46,47
 544 123 544 123 571 147.5 c 128,-1,48
 598 172 598 172 611.5 213 c 128,-1,49
 625 254 625 254 625 303 c 0,50,51
 625 319 625 319 625 334 c 128,-1,52
 625 349 625 349 623 364 c 1,53,-1
 404 364 l 1,54,55
 397 347 397 347 392.5 324.5 c 128,-1,56
 388 302 388 302 388 275 c 0,57,58
 388 123 388 123 502 123 c 0,46,47
EndSplineSet
Ligature2: "'rlig' Required Ligatures in +BBwEPgQ9BDMEPgQ7BEwEQQQ6BDgEOQAA lookup 25 subtable" u182C.ini u1825.fin
EndChar

StartChar: u1853.fin
Encoding: 380 -1 189
Width: 780
VWidth: 1750
GlyphClass: 2
Flags: W
LayerCount: 2
Fore
SplineSet
356 -176 m 1,0,1
 315 -144 315 -144 273.5 -137 c 128,-1,2
 232 -130 232 -130 176 -130 c 2,3,-1
 155 -130 l 2,4,5
 77 -130 77 -130 38.5 -93.5 c 128,-1,6
 0 -57 0 -57 0 12 c 0,7,8
 0 84 0 84 45 122.5 c 128,-1,9
 90 161 90 161 180 161 c 2,10,-1
 269 161 l 1,11,12
 241 249 241 249 241 364 c 1,13,-1
 0 364 l 1,14,-1
 0 444 l 1,15,-1
 560 444 l 2,16,17
 735 444 735 444 735 279 c 0,18,19
 735 213 735 213 710 162 c 1,20,-1
 636 162 l 1,21,22
 658 213 658 213 658 279 c 0,23,24
 658 320 658 320 635.5 342 c 128,-1,25
 613 364 613 364 560 364 c 2,26,-1
 315 364 l 1,27,28
 315 256 315 256 356 142 c 1,29,-1
 356 81 l 1,30,-1
 180 81 l 2,31,32
 133 81 133 81 102 67.5 c 128,-1,33
 71 54 71 54 71 12 c 0,34,35
 71 -16 71 -16 92 -33 c 128,-1,36
 113 -50 113 -50 155 -50 c 2,37,-1
 176 -50 l 2,38,39
 232 -50 232 -50 277 -56.5 c 128,-1,40
 322 -63 322 -63 356 -89 c 1,41,-1
 356 -176 l 1,0,1
EndSplineSet
EndChar

StartChar: u182A_182F.ini
Encoding: 381 -1 190
Width: 863
VWidth: 1750
GlyphClass: 2
Flags: W
LayerCount: 2
Fore
SplineSet
271 40 m 0,0,1
 45 40 45 40 45 408 c 0,2,3
 45 512 45 512 80.5 586.5 c 128,-1,4
 116 661 116 661 184 701.5 c 128,-1,5
 252 742 252 742 348 742 c 0,6,7
 459 742 459 742 530 683 c 1,8,9
 544 763 544 763 583 834 c 1,10,-1
 555 834 l 2,11,12
 497 834 497 834 451 840 c 128,-1,13
 405 846 405 846 375 872 c 1,14,-1
 375 950 l 1,15,16
 411 925 411 925 453 919.5 c 128,-1,17
 495 914 495 914 555 914 c 2,18,-1
 675 914 l 1,19,-1
 675 848 l 1,20,21
 637 787 637 787 616 730.5 c 128,-1,22
 595 674 595 674 593 611 c 1,23,24
 634 544 634 544 652 444 c 1,25,-1
 893 444 l 1,26,-1
 893 364 l 1,27,-1
 683 364 l 1,28,-1
 664 96 l 1,29,-1
 598 96 l 1,30,-1
 579 364 l 2,31,32
 558 659 558 659 348 659 c 0,33,34
 247 659 247 659 186.5 602 c 128,-1,35
 126 545 126 545 124 444 c 1,36,-1
 428 444 l 1,37,38
 434 427 434 427 439.5 394 c 128,-1,39
 445 361 445 361 448 327.5 c 128,-1,40
 451 294 451 294 451 275 c 0,41,42
 451 207 451 207 428 153.5 c 128,-1,43
 405 100 405 100 364.5 70 c 128,-1,44
 324 40 324 40 271 40 c 0,0,1
264 123 m 0,45,46
 319 123 319 123 345.5 167 c 128,-1,47
 372 211 372 211 372 275 c 0,48,49
 372 337 372 337 362 364 c 1,50,-1
 124 364 l 1,51,52
 127 123 127 123 264 123 c 0,45,46
EndSplineSet
Ligature2: "'rlig' Required Ligatures in +BBwEPgQ9BDMEPgQ7BEwEQQQ6BDgEOQAA lookup 25 subtable" u182A.ini u182F.med
EndChar

StartChar: u182E.med
Encoding: 382 -1 191
Width: 284
VWidth: 1750
GlyphClass: 2
Flags: W
LayerCount: 2
Fore
SplineSet
19 96 m 1,0,-1
 0 364 l 1,1,-1
 0 444 l 1,2,-1
 14 444 l 1,3,4
 13 500 13 500 2.5 549.5 c 128,-1,5
 -8 599 -8 599 -31 653 c 1,6,-1
 -31 719 l 1,7,-1
 90 719 l 2,8,9
 146 719 146 719 188 725 c 128,-1,10
 230 731 230 731 269 754 c 1,11,-1
 269 677 l 1,12,13
 237 650 237 650 193.5 644.5 c 128,-1,14
 150 639 150 639 90 639 c 2,15,-1
 54 639 l 1,16,17
 80 555 80 555 84 444 c 1,18,-1
 314 444 l 1,19,-1
 314 364 l 1,20,-1
 104 364 l 1,21,-1
 85 96 l 1,22,-1
 19 96 l 1,0,-1
EndSplineSet
EndChar

StartChar: u182E_182E.med
Encoding: 383 -1 192
Width: 568
VWidth: 1750
GlyphClass: 2
Flags: W
LayerCount: 2
Fore
SplineSet
19 96 m 1,0,-1
 0 364 l 1,1,-1
 0 444 l 1,2,-1
 14 444 l 1,3,4
 11 581 11 581 -31 693 c 1,5,-1
 -31 759 l 1,6,-1
 100 759 l 2,7,8
 180 759 180 759 209 778 c 1,9,-1
 209 700 l 1,10,11
 187 686 187 686 158.5 682.5 c 128,-1,12
 130 679 130 679 100 679 c 2,13,-1
 54 679 l 1,14,15
 82 570 82 570 84 444 c 1,16,-1
 298 444 l 1,17,18
 297 489 297 489 292 529 c 128,-1,19
 287 569 287 569 279 603 c 1,20,-1
 279 669 l 1,21,-1
 374 669 l 2,22,23
 433 669 433 669 474 674.5 c 128,-1,24
 515 680 515 680 553 705 c 1,25,-1
 553 627 l 1,26,27
 519 599 519 599 477.5 594 c 128,-1,28
 436 589 436 589 374 589 c 2,29,-1
 359 589 l 1,30,31
 362 558 362 558 364.5 522 c 128,-1,32
 367 486 367 486 368 444 c 1,33,-1
 598 444 l 1,34,-1
 598 364 l 1,35,-1
 388 364 l 1,36,-1
 369 96 l 1,37,-1
 303 96 l 1,38,-1
 284 364 l 1,39,-1
 104 364 l 1,40,-1
 85 96 l 1,41,-1
 19 96 l 1,0,-1
EndSplineSet
Ligature2: "'rlig' Required Ligatures in +BBwEPgQ9BDMEPgQ7BEwEQQQ6BDgEOQAA lookup 25 subtable" u182E.med u182E.med
EndChar

StartChar: u182E_182F.med
Encoding: 384 -1 193
Width: 568
VWidth: 1750
GlyphClass: 2
Flags: W
LayerCount: 2
Fore
SplineSet
19 96 m 1,0,-1
 0 364 l 1,1,-1
 0 444 l 1,2,-1
 13 444 l 1,3,4
 12 488 12 488 -3.5 528 c 128,-1,5
 -19 568 -19 568 -51 613 c 1,6,-1
 -51 679 l 1,7,-1
 63 679 l 2,8,9
 94 679 94 679 118.5 681 c 128,-1,10
 143 683 143 683 162 693 c 1,11,-1
 162 615 l 1,12,13
 148 606 148 606 126 602.5 c 128,-1,14
 104 599 104 599 63 599 c 2,15,-1
 41 599 l 1,16,17
 79 534 79 534 84 444 c 1,18,-1
 306 444 l 1,19,20
 310 575 310 575 366 679 c 1,21,-1
 342 679 l 2,22,23
 305 679 305 679 273.5 683 c 128,-1,24
 242 687 242 687 222 703 c 1,25,-1
 222 781 l 1,26,27
 246 765 246 765 277 762 c 128,-1,28
 308 759 308 759 342 759 c 2,29,-1
 452 759 l 1,30,-1
 452 693 l 1,31,32
 415 630 415 630 396.5 570 c 128,-1,33
 378 510 378 510 376 444 c 1,34,-1
 598 444 l 1,35,-1
 598 364 l 1,36,-1
 388 364 l 1,37,-1
 369 96 l 1,38,-1
 303 96 l 1,39,-1
 284 364 l 1,40,-1
 104 364 l 1,41,-1
 85 96 l 1,42,-1
 19 96 l 1,0,-1
EndSplineSet
Ligature2: "'rlig' Required Ligatures in +BBwEPgQ9BDMEPgQ7BEwEQQQ6BDgEOQAA lookup 25 subtable" u182E.med u182F.med
EndChar

StartChar: u1830.finV2
Encoding: 385 -1 194
Width: 831
VWidth: 1750
GlyphClass: 2
Flags: W
LayerCount: 2
Fore
SplineSet
28 73 m 1,0,1
 20 116 20 116 13.5 167 c 128,-1,2
 7 218 7 218 3.5 269 c 128,-1,3
 0 320 0 320 0 364 c 2,4,-1
 0 444 l 1,5,-1
 50 444 l 1,6,7
 72 522 72 522 106.5 594.5 c 128,-1,8
 141 667 141 667 190 734 c 1,9,-1
 271 734 l 1,10,11
 271 661 271 661 277 588 c 128,-1,12
 283 515 283 515 296 444 c 1,13,-1
 611 444 l 2,14,15
 786 444 786 444 786 279 c 0,16,17
 786 216 786 216 761 162 c 1,18,-1
 687 162 l 1,19,20
 709 212 709 212 709 279 c 0,21,22
 709 320 709 320 686.5 342 c 128,-1,23
 664 364 664 364 611 364 c 2,24,-1
 313 364 l 1,25,26
 331 290 331 290 358 217 c 128,-1,27
 385 144 385 144 419 73 c 1,28,-1
 334 73 l 1,29,30
 276 204 276 204 244.5 336.5 c 128,-1,31
 213 469 213 469 201 617 c 1,32,-1
 197 617 l 1,33,34
 142 515 142 515 117.5 413.5 c 128,-1,35
 93 312 93 312 93 199 c 0,36,37
 93 123 93 123 105 73 c 1,38,-1
 28 73 l 1,0,1
EndSplineSet
Ligature2: "'fina' Terminal Forms in +BBwEPgQ9BDMEPgQ7BEwEQQQ6BDgEOQAA lookup 3 subtable" u1830 FVS2
EndChar

StartChar: u182F_182F.med
Encoding: 387 -1 197
Width: 588
VWidth: 1750
GlyphClass: 2
Flags: W
LayerCount: 2
Fore
SplineSet
19 96 m 1,0,-1
 0 364 l 1,1,-1
 0 444 l 1,2,-1
 16 444 l 1,3,4
 18 485 18 485 21.5 521 c 128,-1,5
 25 557 25 557 32 589 c 1,6,-1
 26 589 l 2,7,8
 -32 589 -32 589 -77.5 595 c 128,-1,9
 -123 601 -123 601 -153 627 c 1,10,-1
 -153 705 l 1,11,12
 -119 680 -119 680 -75 674.5 c 128,-1,13
 -31 669 -31 669 26 669 c 2,14,-1
 117 669 l 1,15,-1
 117 603 l 1,16,17
 88 518 88 518 86 444 c 1,18,-1
 320 444 l 1,19,20
 321 571 321 571 356 679 c 1,21,-1
 338 679 l 2,22,23
 299 679 299 679 265.5 684 c 128,-1,24
 232 689 232 689 209 707 c 1,25,-1
 209 785 l 1,26,27
 233 766 233 766 264 762.5 c 128,-1,28
 295 759 295 759 338 759 c 2,29,-1
 441 759 l 1,30,-1
 441 693 l 1,31,32
 416 631 416 631 404 568.5 c 128,-1,33
 392 506 392 506 390 444 c 1,34,-1
 618 444 l 1,35,-1
 618 364 l 1,36,-1
 408 364 l 1,37,-1
 389 96 l 1,38,-1
 323 96 l 1,39,-1
 304 364 l 1,40,-1
 104 364 l 1,41,-1
 85 96 l 1,42,-1
 19 96 l 1,0,-1
EndSplineSet
Ligature2: "'rlig' Required Ligatures in +BBwEPgQ9BDMEPgQ7BEwEQQQ6BDgEOQAA lookup 25 subtable" u182F.med u182F.med
EndChar

StartChar: u1833.finV1
Encoding: 388 -1 198
Width: 863
VWidth: 1750
GlyphClass: 2
Flags: W
LayerCount: 2
Fore
SplineSet
319 -157 m 0,0,1
 260 -157 260 -157 218 -125.5 c 128,-1,2
 176 -94 176 -94 144.5 -38.5 c 128,-1,3
 113 17 113 17 84 88 c 0,4,5
 59 153 59 153 38 222 c 128,-1,6
 17 291 17 291 0 364 c 1,7,-1
 0 444 l 1,8,-1
 643 444 l 2,9,10
 818 444 818 444 818 279 c 0,11,12
 818 213 818 213 793 162 c 1,13,-1
 719 162 l 1,14,15
 741 213 741 213 741 279 c 0,16,17
 741 320 741 320 718.5 342 c 128,-1,18
 696 364 696 364 643 364 c 2,19,-1
 79 364 l 1,20,21
 105 261 105 261 142 154 c 1,22,23
 166 189 166 189 205 210.5 c 128,-1,24
 244 232 244 232 290 232 c 0,25,26
 383 232 383 232 437 176.5 c 128,-1,27
 491 121 491 121 491 27 c 0,28,29
 491 -28 491 -28 469 -69.5 c 128,-1,30
 447 -111 447 -111 408 -134 c 128,-1,31
 369 -157 369 -157 319 -157 c 0,0,1
319 -77 m 256,32,33
 361 -77 361 -77 387 -49.5 c 128,-1,34
 413 -22 413 -22 413 27 c 0,35,36
 413 84 413 84 382.5 118.5 c 128,-1,37
 352 153 352 153 290 153 c 0,38,39
 252 153 252 153 220.5 132 c 128,-1,40
 189 111 189 111 172 76 c 1,41,42
 206 -6 206 -6 241.5 -41.5 c 128,-1,43
 277 -77 277 -77 319 -77 c 256,32,33
EndSplineSet
Ligature2: "'fina' Terminal Forms in +BBwEPgQ9BDMEPgQ7BEwEQQQ6BDgEOQAA lookup 3 subtable" u1833 FVS1
EndChar

StartChar: u182D_182F.med
Encoding: 389 -1 199
Width: 666
VWidth: 1750
GlyphClass: 2
Flags: W
LayerCount: 2
Fore
SplineSet
126 42 m 1,0,1
 -3 240 -3 240 -3 417 c 0,2,3
 -3 513 -3 513 25.5 582.5 c 128,-1,4
 54 652 54 652 105.5 689.5 c 128,-1,5
 157 727 157 727 226 727 c 0,6,7
 300 727 300 727 351 688 c 1,8,9
 359 729 359 729 372 765.5 c 128,-1,10
 385 802 385 802 404 834 c 1,11,-1
 376 834 l 2,12,13
 318 834 318 834 272.5 839.5 c 128,-1,14
 227 845 227 845 196 872 c 1,15,-1
 196 950 l 1,16,17
 232 925 232 925 275.5 919.5 c 128,-1,18
 319 914 319 914 376 914 c 2,19,-1
 496 914 l 1,20,-1
 496 848 l 1,21,22
 455 787 455 787 434.5 728.5 c 128,-1,23
 414 670 414 670 414 605 c 1,24,25
 443 538 443 538 455 444 c 1,26,-1
 696 444 l 1,27,-1
 696 364 l 1,28,-1
 486 364 l 1,29,-1
 467 96 l 1,30,-1
 401 96 l 1,31,-1
 382 364 l 2,32,33
 376 449 376 449 362 512 c 128,-1,34
 348 575 348 575 316.5 609.5 c 128,-1,35
 285 644 285 644 226 644 c 0,36,37
 157 644 157 644 116.5 588.5 c 128,-1,38
 76 533 76 533 76 417 c 0,39,40
 76 326 76 326 107 248.5 c 128,-1,41
 138 171 138 171 197 85 c 1,42,-1
 126 42 l 1,0,1
EndSplineSet
Ligature2: "Ligature Substitution lookup 28 subtable" u182D.med u182F.med
Ligature2: "'rlig' Required Ligatures in +BBwEPgQ9BDMEPgQ7BEwEQQQ6BDgEOQAA lookup 25 subtable" u182D.medV2 u182F.med
EndChar

StartChar: u182A_1822
Encoding: 390 -1 200
Width: 1167
VWidth: 1750
GlyphClass: 2
Flags: W
LayerCount: 2
Fore
SplineSet
729 -67 m 1,0,1
 688 13 688 13 657.5 77.5 c 128,-1,2
 627 142 627 142 609 192 c 0,3,4
 573 293 573 293 552 418 c 0,5,6
 538 504 538 504 512.5 567 c 128,-1,7
 487 630 487 630 443.5 664.5 c 128,-1,8
 400 699 400 699 330 699 c 0,9,10
 262 699 262 699 216.5 665.5 c 128,-1,11
 171 632 171 632 148 574 c 128,-1,12
 125 516 125 516 124 444 c 1,13,-1
 428 444 l 1,14,15
 434 427 434 427 439.5 394 c 128,-1,16
 445 361 445 361 448 327.5 c 128,-1,17
 451 294 451 294 451 275 c 0,18,19
 451 206 451 206 427.5 153 c 128,-1,20
 404 100 404 100 363.5 70 c 128,-1,21
 323 40 323 40 270 40 c 0,22,23
 45 40 45 40 45 408 c 0,24,25
 45 516 45 516 76 600.5 c 128,-1,26
 107 685 107 685 170.5 733.5 c 128,-1,27
 234 782 234 782 330 782 c 0,28,29
 422 782 422 782 480.5 740.5 c 128,-1,30
 539 699 539 699 573.5 623 c 128,-1,31
 608 547 608 547 627 444 c 1,32,-1
 947 444 l 2,33,34
 1122 444 1122 444 1122 279 c 0,35,36
 1122 216 1122 216 1097 162 c 1,37,-1
 1023 162 l 1,38,39
 1045 212 1045 212 1045 279 c 0,40,41
 1045 320 1045 320 1022.5 342 c 128,-1,42
 1000 364 1000 364 947 364 c 2,43,-1
 642 364 l 1,44,45
 662 270 662 270 702 173.5 c 128,-1,46
 742 77 742 77 802 -31 c 1,47,-1
 729 -67 l 1,0,1
264 123 m 0,48,49
 319 123 319 123 345.5 167 c 128,-1,50
 372 211 372 211 372 275 c 0,51,52
 372 337 372 337 362 364 c 1,53,-1
 124 364 l 1,54,55
 127 123 127 123 264 123 c 0,48,49
EndSplineSet
Ligature2: "'rlig' Required Ligatures in +BBwEPgQ9BDMEPgQ7BEwEQQQ6BDgEOQAA lookup 25 subtable" u182A.ini u1822.fin
EndChar

StartChar: u1838.fin
Encoding: 395 -1 205
Width: 708
VWidth: 1750
GlyphClass: 2
Flags: W
LayerCount: 2
Fore
SplineSet
309 -119 m 0,0,1
 248 -119 248 -119 206 -84 c 128,-1,2
 164 -49 164 -49 132 13.5 c 128,-1,3
 100 76 100 76 68 157 c 0,4,5
 49 207 49 207 32 258.5 c 128,-1,6
 15 310 15 310 0 364 c 1,7,-1
 0 444 l 1,8,-1
 488 444 l 2,9,10
 663 444 663 444 663 279 c 0,11,12
 663 216 663 216 638 162 c 1,13,-1
 564 162 l 1,14,15
 586 212 586 212 586 279 c 0,16,17
 586 320 586 320 563.5 342 c 128,-1,18
 541 364 541 364 488 364 c 2,19,-1
 79 364 l 1,20,21
 94 312 94 312 113 259 c 128,-1,22
 132 206 132 206 156 152 c 0,23,24
 179 101 179 101 202 58 c 128,-1,25
 225 15 225 15 251 -10.5 c 128,-1,26
 277 -36 277 -36 309 -36 c 0,27,28
 364 -36 364 -36 392 6 c 1,29,-1
 392 -85 l 1,30,31
 368 -119 368 -119 309 -119 c 0,0,1
EndSplineSet
Substitution2: "Single Substitution lookup 19 subtable" u1838.finV1
EndChar

StartChar: u182A.ini
Encoding: 396 -1 206
Width: 557
VWidth: 1750
GlyphClass: 2
Flags: W
LayerCount: 2
Fore
SplineSet
273 40 m 0,0,1
 157 40 157 40 101 132 c 128,-1,2
 45 224 45 224 45 408 c 0,3,4
 45 516 45 516 77 600.5 c 128,-1,5
 109 685 109 685 173.5 733.5 c 128,-1,6
 238 782 238 782 335 782 c 0,7,8
 409 782 409 782 464 748.5 c 128,-1,9
 519 715 519 715 556.5 656.5 c 128,-1,10
 594 598 594 598 612.5 522.5 c 128,-1,11
 631 447 631 447 631 364 c 1,12,-1
 557 364 l 1,13,14
 553 523 553 523 493.5 611 c 128,-1,15
 434 699 434 699 335 699 c 0,16,17
 267 699 267 699 220 665.5 c 128,-1,18
 173 632 173 632 149 574.5 c 128,-1,19
 125 517 125 517 124 444 c 1,20,-1
 428 444 l 1,21,22
 434 427 434 427 439.5 394 c 128,-1,23
 445 361 445 361 448 327.5 c 128,-1,24
 451 294 451 294 451 275 c 0,25,26
 451 207 451 207 428 153.5 c 128,-1,27
 405 100 405 100 365 70 c 128,-1,28
 325 40 325 40 273 40 c 0,0,1
264 123 m 0,29,30
 319 123 319 123 345.5 167 c 128,-1,31
 372 211 372 211 372 275 c 0,32,33
 372 337 372 337 362 364 c 1,34,-1
 124 364 l 1,35,36
 127 123 127 123 264 123 c 0,29,30
EndSplineSet
EndChar

StartChar: u1844.med
Encoding: 397 -1 207
Width: 484
VWidth: 1750
GlyphClass: 2
Flags: W
LayerCount: 2
Fore
SplineSet
362 9 m 1,0,1
 332 36 332 36 257 36 c 2,2,-1
 216 36 l 2,3,4
 112 36 112 36 56 92 c 128,-1,5
 0 148 0 148 0 263 c 2,6,-1
 0 444 l 1,7,-1
 514 444 l 1,8,-1
 514 364 l 1,9,-1
 79 364 l 1,10,-1
 79 263 l 2,11,12
 79 119 79 119 216 119 c 2,13,-1
 257 119 l 2,14,15
 294 119 294 119 321.5 111.5 c 128,-1,16
 349 104 349 104 362 92 c 1,17,-1
 362 9 l 1,0,1
EndSplineSet
Substitution2: "Single Substitution lookup 18 subtable" u1844.medV1
EndChar

StartChar: u1845.medV1
Encoding: 398 -1 208
Width: 828
VWidth: 1750
GlyphClass: 2
Flags: W
LayerCount: 2
Fore
SplineSet
706 9 m 1,0,1
 676 36 676 36 601 36 c 2,2,-1
 460 36 l 2,3,4
 284 36 284 36 284 223 c 2,5,-1
 284 364 l 1,6,-1
 104 364 l 1,7,-1
 85 96 l 1,8,-1
 19 96 l 1,9,-1
 0 364 l 1,10,-1
 0 444 l 1,11,-1
 363 444 l 1,12,-1
 363 223 l 2,13,14
 363 119 363 119 460 119 c 2,15,-1
 493 119 l 1,16,-1
 493 444 l 1,17,-1
 858 444 l 1,18,-1
 858 364 l 1,19,-1
 572 364 l 1,20,-1
 572 119 l 1,21,-1
 601 119 l 2,22,23
 675 119 675 119 706 92 c 1,24,-1
 706 9 l 1,0,1
EndSplineSet
Ligature2: "'medi' Medial Forms in +BBwEPgQ9BDMEPgQ7BEwEQQQ6BDgEOQAA lookup 5 subtable" u1845 FVS1
EndChar

StartChar: u1845.fin
Encoding: 399 -1 209
Width: 414
VWidth: 1750
GlyphClass: 2
Flags: W
LayerCount: 2
Fore
SplineSet
278 87 m 1,0,-1
 209 133 l 1,1,2
 251 186 251 186 270.5 243 c 128,-1,3
 290 300 290 300 290 373 c 0,4,5
 290 480 290 480 236 545.5 c 128,-1,6
 182 611 182 611 79 629 c 1,7,-1
 79 96 l 1,8,-1
 0 96 l 1,9,-1
 0 714 l 1,10,11
 112 714 112 714 195 673 c 128,-1,12
 278 632 278 632 323.5 556 c 128,-1,13
 369 480 369 480 369 373 c 0,14,15
 369 286 369 286 347 217 c 128,-1,16
 325 148 325 148 278 87 c 1,0,-1
EndSplineSet
EndChar

StartChar: u1845
Encoding: 72 6213 210
Width: 906
VWidth: 1750
GlyphClass: 2
Flags: W
LayerCount: 2
Fore
SplineSet
226 74 m 1,0,-1
 200 437 l 2,1,2
 196 499 196 499 180 537 c 128,-1,3
 164 575 164 575 118 575 c 256,4,5
 72 575 72 575 10 550 c 1,6,-1
 10 623 l 1,7,8
 81 653 81 653 139 653 c 0,9,10
 194 653 194 653 223 628 c 128,-1,11
 252 603 252 603 264 556.5 c 128,-1,12
 276 510 276 510 278 445 c 2,13,-1
 281 361 l 1,14,-1
 285 361 l 1,15,16
 318 444 318 444 444 444 c 2,17,-1
 492 444 l 1,18,-1
 492 714 l 1,19,20
 604 714 604 714 687 673 c 128,-1,21
 770 632 770 632 815.5 556 c 128,-1,22
 861 480 861 480 861 373 c 0,23,24
 861 286 861 286 839 217 c 128,-1,25
 817 148 817 148 770 87 c 1,26,-1
 701 133 l 1,27,28
 743 186 743 186 762.5 243 c 128,-1,29
 782 300 782 300 782 373 c 0,30,31
 782 479 782 479 728.5 544.5 c 128,-1,32
 675 610 675 610 571 629 c 1,33,-1
 571 96 l 1,34,-1
 492 96 l 1,35,-1
 492 364 l 1,36,-1
 445 364 l 2,37,38
 391 364 391 364 361 351 c 128,-1,39
 331 338 331 338 318.5 306.5 c 128,-1,40
 306 275 306 275 302 219 c 2,41,-1
 292 74 l 1,42,-1
 226 74 l 1,0,-1
EndSplineSet
Substitution2: "'init' +BB0EMARHBDAEOwRMBD0ESwQ1 +BEQEPgRABDwESwAA in +BBwEPgQ9BDMEPgQ7BEwEQQQ6BDgEOQAA lookup 8 subtable" u1845.ini
Substitution2: "'medi' Medial Forms in +BBwEPgQ9BDMEPgQ7BEwEQQQ6BDgEOQAA lookup 6 subtable" u1845.med
Substitution2: "'fina' Terminal Forms in +BBwEPgQ9BDMEPgQ7BEwEQQQ6BDgEOQAA lookup 4 subtable" u1845.fin
EndChar

StartChar: u1844.fin
Encoding: 400 -1 211
Width: 407
VWidth: 1750
GlyphClass: 2
Flags: W
LayerCount: 2
Fore
SplineSet
362 9 m 1,0,1
 332 36 332 36 257 36 c 2,2,-1
 216 36 l 2,3,4
 112 36 112 36 56 92 c 128,-1,5
 0 148 0 148 0 263 c 2,6,-1
 0 444 l 1,7,-1
 362 444 l 1,8,-1
 362 364 l 1,9,-1
 79 364 l 1,10,-1
 79 263 l 2,11,12
 79 119 79 119 216 119 c 2,13,-1
 257 119 l 2,14,15
 294 119 294 119 321.5 111.5 c 128,-1,16
 349 104 349 104 362 92 c 1,17,-1
 362 9 l 1,0,1
EndSplineSet
EndChar

StartChar: u1844.medV1
Encoding: 401 -1 212
Width: 768
VWidth: 1750
GlyphClass: 2
Flags: W
LayerCount: 2
Fore
SplineSet
646 9 m 1,0,1
 616 36 616 36 541 36 c 2,2,-1
 500 36 l 2,3,4
 396 36 396 36 340 92 c 128,-1,5
 284 148 284 148 284 263 c 2,6,-1
 284 364 l 1,7,-1
 104 364 l 1,8,-1
 85 96 l 1,9,-1
 19 96 l 1,10,-1
 0 364 l 1,11,-1
 0 444 l 1,12,-1
 798 444 l 1,13,-1
 798 364 l 1,14,-1
 363 364 l 1,15,-1
 363 263 l 2,16,17
 363 119 363 119 500 119 c 2,18,-1
 541 119 l 2,19,20
 615 119 615 119 646 92 c 1,21,-1
 646 9 l 1,0,1
EndSplineSet
Ligature2: "'medi' Medial Forms in +BBwEPgQ9BDMEPgQ7BEwEQQQ6BDgEOQAA lookup 5 subtable" u1844 FVS1
EndChar

StartChar: u1845.ini
Encoding: 402 -1 213
Width: 1036
VWidth: 1750
GlyphClass: 2
Flags: W
LayerCount: 2
Fore
SplineSet
914 9 m 1,0,1
 884 36 884 36 809 36 c 2,2,-1
 668 36 l 2,3,4
 492 36 492 36 492 223 c 2,5,-1
 492 364 l 1,6,-1
 445 364 l 2,7,8
 390 364 390 364 360.5 350 c 128,-1,9
 331 336 331 336 318.5 304.5 c 128,-1,10
 306 273 306 273 302 219 c 2,11,-1
 292 74 l 1,12,-1
 226 74 l 1,13,-1
 200 437 l 2,14,15
 196 499 196 499 180.5 537 c 128,-1,16
 165 575 165 575 118 575 c 0,17,18
 72 575 72 575 10 550 c 1,19,-1
 10 623 l 1,20,21
 81 653 81 653 139 653 c 0,22,23
 194 653 194 653 223 628 c 128,-1,24
 252 603 252 603 264 556.5 c 128,-1,25
 276 510 276 510 278 445 c 2,26,-1
 281 361 l 1,27,-1
 285 361 l 1,28,29
 318 444 318 444 444 444 c 2,30,-1
 571 444 l 1,31,-1
 571 223 l 2,32,33
 571 119 571 119 668 119 c 2,34,-1
 701 119 l 1,35,-1
 701 444 l 1,36,-1
 1066 444 l 1,37,-1
 1066 364 l 1,38,-1
 780 364 l 1,39,-1
 780 119 l 1,40,-1
 809 119 l 2,41,42
 883 119 883 119 914 92 c 1,43,-1
 914 9 l 1,0,1
EndSplineSet
EndChar

StartChar: u1844.ini
Encoding: 403 -1 214
Width: 976
VWidth: 1750
GlyphClass: 2
Flags: W
LayerCount: 2
Fore
SplineSet
854 9 m 1,0,1
 824 36 824 36 749 36 c 2,2,-1
 708 36 l 2,3,4
 604 36 604 36 548 92 c 128,-1,5
 492 148 492 148 492 263 c 2,6,-1
 492 364 l 1,7,-1
 445 364 l 2,8,9
 390 364 390 364 360.5 350 c 128,-1,10
 331 336 331 336 318.5 304.5 c 128,-1,11
 306 273 306 273 302 219 c 2,12,-1
 292 74 l 1,13,-1
 226 74 l 1,14,-1
 200 437 l 2,15,16
 196 499 196 499 180 537 c 128,-1,17
 164 575 164 575 118 575 c 256,18,19
 72 575 72 575 10 550 c 1,20,-1
 10 623 l 1,21,22
 81 653 81 653 139 653 c 0,23,24
 194 653 194 653 223 628 c 128,-1,25
 252 603 252 603 264 556.5 c 128,-1,26
 276 510 276 510 278 445 c 2,27,-1
 281 361 l 1,28,-1
 285 361 l 1,29,30
 318 444 318 444 444 444 c 2,31,-1
 1006 444 l 1,32,-1
 1006 364 l 1,33,-1
 571 364 l 1,34,-1
 571 263 l 2,35,36
 571 119 571 119 708 119 c 2,37,-1
 749 119 l 2,38,39
 823 119 823 119 854 92 c 1,40,-1
 854 9 l 1,0,1
EndSplineSet
EndChar

StartChar: u1844
Encoding: 71 6212 215
Width: 899
VWidth: 1750
GlyphClass: 2
Flags: W
LayerCount: 2
Fore
SplineSet
854 9 m 1,0,1
 824 36 824 36 749 36 c 2,2,-1
 708 36 l 2,3,4
 604 36 604 36 548 92 c 128,-1,5
 492 148 492 148 492 263 c 2,6,-1
 492 364 l 1,7,-1
 445 364 l 2,8,9
 390 364 390 364 360.5 350 c 128,-1,10
 331 336 331 336 318.5 304.5 c 128,-1,11
 306 273 306 273 302 219 c 2,12,-1
 292 74 l 1,13,-1
 226 74 l 1,14,-1
 200 437 l 2,15,16
 196 499 196 499 180 537 c 128,-1,17
 164 575 164 575 118 575 c 256,18,19
 72 575 72 575 10 550 c 1,20,-1
 10 623 l 1,21,22
 81 653 81 653 139 653 c 0,23,24
 194 653 194 653 223 628 c 128,-1,25
 252 603 252 603 264 556.5 c 128,-1,26
 276 510 276 510 278 445 c 2,27,-1
 281 361 l 1,28,-1
 285 361 l 1,29,30
 318 444 318 444 444 444 c 2,31,-1
 854 444 l 1,32,-1
 854 364 l 1,33,-1
 571 364 l 1,34,-1
 571 263 l 2,35,36
 571 119 571 119 708 119 c 2,37,-1
 749 119 l 2,38,39
 823 119 823 119 854 92 c 1,40,-1
 854 9 l 1,0,1
EndSplineSet
Substitution2: "'init' +BB0EMARHBDAEOwRMBD0ESwQ1 +BEQEPgRABDwESwAA in +BBwEPgQ9BDMEPgQ7BEwEQQQ6BDgEOQAA lookup 8 subtable" u1844.ini
Substitution2: "'medi' Medial Forms in +BBwEPgQ9BDMEPgQ7BEwEQQQ6BDgEOQAA lookup 6 subtable" u1844.med
Substitution2: "'fina' Terminal Forms in +BBwEPgQ9BDMEPgQ7BEwEQQQ6BDgEOQAA lookup 4 subtable" u1844.fin
EndChar

StartChar: u1846.ini
Encoding: 405 -1 217
Width: 1052
VWidth: 1750
GlyphClass: 2
Flags: W
LayerCount: 2
Fore
SplineSet
870 3 m 1,0,-1
 668 47 l 2,1,2
 579 67 579 67 535.5 124.5 c 128,-1,3
 492 182 492 182 492 267 c 2,4,-1
 492 364 l 1,5,-1
 445 364 l 2,6,7
 390 364 390 364 360.5 350 c 128,-1,8
 331 336 331 336 318.5 304.5 c 128,-1,9
 306 273 306 273 302 219 c 2,10,-1
 292 74 l 1,11,-1
 226 74 l 1,12,-1
 200 437 l 2,13,14
 196 499 196 499 180 537 c 128,-1,15
 164 575 164 575 118 575 c 256,16,17
 72 575 72 575 10 550 c 1,18,-1
 10 623 l 1,19,20
 81 653 81 653 139 653 c 0,21,22
 194 653 194 653 223 628 c 128,-1,23
 252 603 252 603 264 556.5 c 128,-1,24
 276 510 276 510 278 445 c 2,25,-1
 281 361 l 1,26,-1
 285 361 l 1,27,28
 318 444 318 444 444 444 c 2,29,-1
 1082 444 l 1,30,-1
 1082 364 l 1,31,-1
 870 364 l 1,32,-1
 870 3 l 1,0,-1
792 104 m 1,33,-1
 792 364 l 1,34,-1
 571 364 l 1,35,-1
 571 267 l 2,36,37
 571 214 571 214 600.5 177.5 c 128,-1,38
 630 141 630 141 690 127 c 2,39,-1
 792 104 l 1,33,-1
EndSplineSet
EndChar

StartChar: u1846
Encoding: 73 6214 218
Width: 915
VWidth: 1750
GlyphClass: 2
Flags: W
LayerCount: 2
Fore
SplineSet
870 3 m 1,0,-1
 668 47 l 2,1,2
 579 67 579 67 535.5 124.5 c 128,-1,3
 492 182 492 182 492 267 c 2,4,-1
 492 364 l 1,5,-1
 445 364 l 2,6,7
 391 364 391 364 361 351 c 128,-1,8
 331 338 331 338 318.5 306.5 c 128,-1,9
 306 275 306 275 302 219 c 2,10,-1
 292 74 l 1,11,-1
 226 74 l 1,12,-1
 200 437 l 2,13,14
 196 499 196 499 180 537 c 128,-1,15
 164 575 164 575 118 575 c 256,16,17
 72 575 72 575 10 550 c 1,18,-1
 10 623 l 1,19,20
 81 653 81 653 139 653 c 0,21,22
 194 653 194 653 223 628 c 128,-1,23
 252 603 252 603 264 556.5 c 128,-1,24
 276 510 276 510 278 445 c 2,25,-1
 281 361 l 1,26,-1
 285 361 l 1,27,28
 318 444 318 444 444 444 c 2,29,-1
 870 444 l 1,30,-1
 870 3 l 1,0,-1
792 104 m 1,31,-1
 792 364 l 1,32,-1
 571 364 l 1,33,-1
 571 267 l 2,34,35
 571 214 571 214 600.5 177.5 c 128,-1,36
 630 141 630 141 690 127 c 2,37,-1
 792 104 l 1,31,-1
EndSplineSet
Substitution2: "'init' +BB0EMARHBDAEOwRMBD0ESwQ1 +BEQEPgRABDwESwAA in +BBwEPgQ9BDMEPgQ7BEwEQQQ6BDgEOQAA lookup 8 subtable" u1846.ini
Substitution2: "'medi' Medial Forms in +BBwEPgQ9BDMEPgQ7BEwEQQQ6BDgEOQAA lookup 6 subtable" u1846.med
Substitution2: "'fina' Terminal Forms in +BBwEPgQ9BDMEPgQ7BEwEQQQ6BDgEOQAA lookup 4 subtable" u1846.fin
EndChar

StartChar: u1847
Encoding: 74 6215 219
Width: 1126
VWidth: 1750
GlyphClass: 2
Flags: W
LayerCount: 2
Fore
SplineSet
792 -121 m 1,0,1
 769 -78 769 -78 749 -37.5 c 128,-1,2
 729 3 729 3 712 40 c 1,3,4
 608 42 608 42 553.5 120.5 c 128,-1,5
 499 199 499 199 491 364 c 1,6,-1
 445 364 l 2,7,8
 390 364 390 364 360.5 350 c 128,-1,9
 331 336 331 336 318.5 304.5 c 128,-1,10
 306 273 306 273 302 219 c 2,11,-1
 292 74 l 1,12,-1
 226 74 l 1,13,-1
 200 437 l 2,14,15
 196 499 196 499 180 537 c 128,-1,16
 164 575 164 575 118 575 c 256,17,18
 72 575 72 575 10 550 c 1,19,-1
 10 623 l 1,20,21
 81 653 81 653 139 653 c 0,22,23
 194 653 194 653 223 628 c 128,-1,24
 252 603 252 603 264 556.5 c 128,-1,25
 276 510 276 510 278 445 c 2,26,-1
 281 361 l 1,27,-1
 285 361 l 1,28,29
 318 444 318 444 444 444 c 2,30,-1
 492 444 l 1,31,32
 498 545 498 545 532 621 c 128,-1,33
 566 697 566 697 628.5 739.5 c 128,-1,34
 691 782 691 782 781 782 c 0,35,36
 849 782 849 782 903 752.5 c 128,-1,37
 957 723 957 723 995 672 c 128,-1,38
 1033 621 1033 621 1055 556 c 128,-1,39
 1077 491 1077 491 1081 419 c 1,40,-1
 1001 409 l 1,41,42
 996 488 996 488 970.5 553.5 c 128,-1,43
 945 619 945 619 898 659 c 128,-1,44
 851 699 851 699 781 699 c 0,45,46
 712 699 712 699 665.5 665.5 c 128,-1,47
 619 632 619 632 595 574.5 c 128,-1,48
 571 517 571 517 570 444 c 1,49,-1
 874 444 l 1,50,51
 881 424 881 424 886 393 c 128,-1,52
 891 362 891 362 894 330 c 128,-1,53
 897 298 897 298 897 275 c 0,54,55
 897 194 897 194 868 138.5 c 128,-1,56
 839 83 839 83 792 58 c 1,57,58
 809 20 809 20 827 -14.5 c 128,-1,59
 845 -49 845 -49 863 -81 c 1,60,-1
 792 -121 l 1,0,1
710 123 m 0,61,62
 765 123 765 123 791.5 167 c 128,-1,63
 818 211 818 211 818 275 c 0,64,65
 818 304 818 304 815.5 326.5 c 128,-1,66
 813 349 813 349 808 364 c 1,67,-1
 570 364 l 1,68,69
 574 123 574 123 710 123 c 0,61,62
EndSplineSet
Substitution2: "'init' +BB0EMARHBDAEOwRMBD0ESwQ1 +BEQEPgRABDwESwAA in +BBwEPgQ9BDMEPgQ7BEwEQQQ6BDgEOQAA lookup 8 subtable" u1847.ini
Substitution2: "'medi' Medial Forms in +BBwEPgQ9BDMEPgQ7BEwEQQQ6BDgEOQAA lookup 6 subtable" u1847.med
Substitution2: "'fina' Terminal Forms in +BBwEPgQ9BDMEPgQ7BEwEQQQ6BDgEOQAA lookup 4 subtable" u1847.fin
EndChar

StartChar: u1847.V1
Encoding: 406 -1 220
Width: 932
VWidth: 1750
GlyphClass: 2
Flags: W
LayerCount: 2
Fore
SplineSet
768 -121 m 1,0,1
 745 -78 745 -78 725 -37.5 c 128,-1,2
 705 3 705 3 688 40 c 1,3,4
 594 40 594 40 543 94.5 c 128,-1,5
 492 149 492 149 492 249 c 0,6,7
 492 316 492 316 512 364 c 1,8,-1
 445 364 l 2,9,10
 391 364 391 364 361 351 c 128,-1,11
 331 338 331 338 318.5 306.5 c 128,-1,12
 306 275 306 275 302 219 c 2,13,-1
 292 74 l 1,14,-1
 226 74 l 1,15,-1
 200 437 l 2,16,17
 196 499 196 499 180 537 c 128,-1,18
 164 575 164 575 118 575 c 256,19,20
 72 575 72 575 10 550 c 1,21,-1
 10 623 l 1,22,23
 81 653 81 653 139 653 c 0,24,25
 194 653 194 653 223 628 c 128,-1,26
 252 603 252 603 264 556.5 c 128,-1,27
 276 510 276 510 278 445 c 2,28,-1
 281 361 l 1,29,-1
 285 361 l 1,30,31
 318 444 318 444 444 444 c 2,32,-1
 840 444 l 1,33,34
 862 405 862 405 874.5 350.5 c 128,-1,35
 887 296 887 296 887 249 c 0,36,37
 887 171 887 171 855.5 122.5 c 128,-1,38
 824 74 824 74 770 54 c 1,39,40
 786 20 786 20 803 -14 c 128,-1,41
 820 -48 820 -48 839 -81 c 1,42,-1
 768 -121 l 1,0,1
689 123 m 0,43,44
 745 123 745 123 776.5 155 c 128,-1,45
 808 187 808 187 808 251 c 0,46,47
 808 313 808 313 786 364 c 1,48,-1
 591 364 l 1,49,50
 571 315 571 315 571 251 c 0,51,52
 571 123 571 123 689 123 c 0,43,44
EndSplineSet
Ligature2: "'isol' Isolated Forms in +BBwEPgQ9BDMEPgQ7BEwEQQQ6BDgEOQAA lookup 1 subtable" u1847 FVS1
EndChar

StartChar: u1847.ini
Encoding: 407 -1 221
Width: 1065
VWidth: 1750
GlyphClass: 2
Flags: W
LayerCount: 2
Fore
SplineSet
768 -121 m 1,0,1
 745 -78 745 -78 725 -37.5 c 128,-1,2
 705 3 705 3 688 40 c 1,3,4
 594 40 594 40 543 94.5 c 128,-1,5
 492 149 492 149 492 249 c 0,6,7
 492 316 492 316 512 364 c 1,8,-1
 445 364 l 2,9,10
 390 364 390 364 360.5 350 c 128,-1,11
 331 336 331 336 318.5 304.5 c 128,-1,12
 306 273 306 273 302 219 c 2,13,-1
 292 74 l 1,14,-1
 226 74 l 1,15,-1
 200 437 l 2,16,17
 196 499 196 499 180 537 c 128,-1,18
 164 575 164 575 118 575 c 256,19,20
 72 575 72 575 10 550 c 1,21,-1
 10 623 l 1,22,23
 81 653 81 653 139 653 c 0,24,25
 194 653 194 653 223 628 c 128,-1,26
 252 603 252 603 264 556.5 c 128,-1,27
 276 510 276 510 278 445 c 2,28,-1
 281 361 l 1,29,-1
 285 361 l 1,30,31
 318 444 318 444 444 444 c 2,32,-1
 1095 444 l 1,33,-1
 1095 364 l 1,34,-1
 865 364 l 1,35,36
 887 316 887 316 887 249 c 0,37,38
 887 171 887 171 855.5 122.5 c 128,-1,39
 824 74 824 74 770 54 c 1,40,41
 786 20 786 20 803 -14 c 128,-1,42
 820 -48 820 -48 839 -81 c 1,43,-1
 768 -121 l 1,0,1
689 123 m 0,44,45
 745 123 745 123 776.5 155 c 128,-1,46
 808 187 808 187 808 251 c 256,47,48
 808 315 808 315 788 364 c 1,49,-1
 591 364 l 1,50,51
 571 315 571 315 571 251 c 0,52,53
 571 123 571 123 689 123 c 0,44,45
EndSplineSet
EndChar

StartChar: u1847.med
Encoding: 408 -1 222
Width: 573
VWidth: 1750
GlyphClass: 2
Flags: W
LayerCount: 2
Fore
SplineSet
276 -121 m 1,0,1
 254 -80 254 -80 234 -40 c 128,-1,2
 214 0 214 0 196 40 c 1,3,4
 101 40 101 40 50.5 95 c 128,-1,5
 0 150 0 150 0 249 c 0,6,7
 0 316 0 316 20 364 c 1,8,-1
 0 364 l 1,9,-1
 0 444 l 1,10,-1
 603 444 l 1,11,-1
 603 364 l 1,12,-1
 373 364 l 1,13,14
 395 316 395 316 395 249 c 0,15,16
 395 176 395 176 364 124.5 c 128,-1,17
 333 73 333 73 278 53 c 1,18,19
 292 24 292 24 309 -9.5 c 128,-1,20
 326 -43 326 -43 347 -81 c 1,21,-1
 276 -121 l 1,0,1
197 123 m 0,22,23
 253 123 253 123 284.5 155 c 128,-1,24
 316 187 316 187 316 251 c 0,25,26
 316 316 316 316 296 364 c 1,27,-1
 99 364 l 1,28,29
 79 316 79 316 79 251 c 0,30,31
 79 123 79 123 197 123 c 0,22,23
EndSplineSet
Substitution2: "Single Substitution lookup 20 subtable" u1847.medV2
Substitution2: "Single Substitution lookup 18 subtable" u1847.medV1
EndChar

StartChar: u1847.medV1
Encoding: 409 -1 223
Width: 857
VWidth: 1750
GlyphClass: 2
Flags: W
LayerCount: 2
Fore
SplineSet
560 -121 m 1,0,1
 537 -78 537 -78 517 -37.5 c 128,-1,2
 497 3 497 3 480 40 c 1,3,4
 386 40 386 40 335 94.5 c 128,-1,5
 284 149 284 149 284 249 c 0,6,7
 284 316 284 316 304 364 c 1,8,-1
 104 364 l 1,9,-1
 85 96 l 1,10,-1
 19 96 l 1,11,-1
 0 364 l 1,12,-1
 0 444 l 1,13,-1
 887 444 l 1,14,-1
 887 364 l 1,15,-1
 657 364 l 1,16,17
 679 316 679 316 679 249 c 0,18,19
 679 171 679 171 647.5 122.5 c 128,-1,20
 616 74 616 74 562 54 c 1,21,22
 578 20 578 20 595 -14 c 128,-1,23
 612 -48 612 -48 631 -81 c 1,24,-1
 560 -121 l 1,0,1
481 123 m 0,25,26
 537 123 537 123 568.5 155 c 128,-1,27
 600 187 600 187 600 251 c 256,28,29
 600 315 600 315 580 364 c 1,30,-1
 383 364 l 1,31,32
 363 315 363 315 363 251 c 0,33,34
 363 123 363 123 481 123 c 0,25,26
EndSplineSet
Ligature2: "'medi' Medial Forms in +BBwEPgQ9BDMEPgQ7BEwEQQQ6BDgEOQAA lookup 5 subtable" u1847 FVS1
EndChar

StartChar: u1847.fin
Encoding: 411 -1 225
Width: 634
VWidth: 1750
GlyphClass: 2
Flags: W
LayerCount: 2
Fore
SplineSet
300 -121 m 1,0,1
 275 -77 275 -77 255.5 -36.5 c 128,-1,2
 236 4 236 4 220 40 c 1,3,4
 106 42 106 42 52.5 135 c 128,-1,5
 -1 228 -1 228 -1 408 c 0,6,7
 -1 516 -1 516 31 600.5 c 128,-1,8
 63 685 63 685 127.5 733.5 c 128,-1,9
 192 782 192 782 289 782 c 0,10,11
 357 782 357 782 410.5 753 c 128,-1,12
 464 724 464 724 502 673.5 c 128,-1,13
 540 623 540 623 562 557.5 c 128,-1,14
 584 492 584 492 589 419 c 1,15,-1
 509 409 l 1,16,17
 503 491 503 491 477 556.5 c 128,-1,18
 451 622 451 622 404.5 660.5 c 128,-1,19
 358 699 358 699 289 699 c 256,20,21
 220 699 220 699 174 666 c 128,-1,22
 128 633 128 633 104 575.5 c 128,-1,23
 80 518 80 518 78 444 c 1,24,-1
 382 444 l 1,25,26
 389 424 389 424 394 392 c 128,-1,27
 399 360 399 360 402 328 c 128,-1,28
 405 296 405 296 405 275 c 0,29,30
 405 194 405 194 376 138.5 c 128,-1,31
 347 83 347 83 300 58 c 1,32,33
 317 22 317 22 334.5 -12.5 c 128,-1,34
 352 -47 352 -47 371 -81 c 1,35,-1
 300 -121 l 1,0,1
218 123 m 0,36,37
 273 123 273 123 299.5 167 c 128,-1,38
 326 211 326 211 326 275 c 0,39,40
 326 334 326 334 316 364 c 1,41,-1
 78 364 l 1,42,43
 82 123 82 123 218 123 c 0,36,37
EndSplineSet
EndChar

StartChar: u1848
Encoding: 75 6216 227
Width: 915
VWidth: 1750
GlyphClass: 2
Flags: W
LayerCount: 2
Fore
SplineSet
870 3 m 1,0,-1
 668 47 l 2,1,2
 579 67 579 67 535.5 124.5 c 128,-1,3
 492 182 492 182 492 267 c 2,4,-1
 492 364 l 1,5,-1
 445 364 l 2,6,7
 390 364 390 364 360.5 350 c 128,-1,8
 331 336 331 336 318.5 304.5 c 128,-1,9
 306 273 306 273 302 219 c 2,10,-1
 292 74 l 1,11,-1
 226 74 l 1,12,-1
 200 437 l 2,13,14
 196 501 196 501 180.5 538 c 128,-1,15
 165 575 165 575 118 575 c 0,16,17
 72 575 72 575 10 550 c 1,18,-1
 10 623 l 1,19,20
 81 653 81 653 139 653 c 0,21,22
 194 653 194 653 223 628 c 128,-1,23
 252 603 252 603 264 556.5 c 128,-1,24
 276 510 276 510 278 445 c 2,25,-1
 281 361 l 1,26,-1
 285 361 l 1,27,28
 318 444 318 444 444 444 c 2,29,-1
 545 444 l 1,30,31
 526 486 526 486 504 530.5 c 128,-1,32
 482 575 482 575 457 621 c 1,33,-1
 528 661 l 1,34,35
 557 608 557 608 583 554 c 128,-1,36
 609 500 609 500 631 444 c 1,37,-1
 870 444 l 1,38,-1
 870 3 l 1,0,-1
792 104 m 1,39,-1
 792 364 l 1,40,-1
 571 364 l 1,41,-1
 571 267 l 2,42,43
 571 214 571 214 600.5 177.5 c 128,-1,44
 630 141 630 141 690 127 c 2,45,-1
 792 104 l 1,39,-1
EndSplineSet
Substitution2: "'init' +BB0EMARHBDAEOwRMBD0ESwQ1 +BEQEPgRABDwESwAA in +BBwEPgQ9BDMEPgQ7BEwEQQQ6BDgEOQAA lookup 8 subtable" u1848.ini
Substitution2: "'medi' Medial Forms in +BBwEPgQ9BDMEPgQ7BEwEQQQ6BDgEOQAA lookup 6 subtable" u1848.med
Substitution2: "'fina' Terminal Forms in +BBwEPgQ9BDMEPgQ7BEwEQQQ6BDgEOQAA lookup 4 subtable" u1848.fin
EndChar

StartChar: u1848.ini
Encoding: 413 -1 228
Width: 1052
VWidth: 1750
GlyphClass: 2
Flags: W
LayerCount: 2
Fore
SplineSet
870 3 m 1,0,-1
 668 47 l 2,1,2
 579 67 579 67 535.5 124.5 c 128,-1,3
 492 182 492 182 492 267 c 2,4,-1
 492 364 l 1,5,-1
 445 364 l 2,6,7
 390 364 390 364 360.5 350 c 128,-1,8
 331 336 331 336 318.5 304.5 c 128,-1,9
 306 273 306 273 302 219 c 2,10,-1
 292 74 l 1,11,-1
 226 74 l 1,12,-1
 200 437 l 2,13,14
 196 499 196 499 180 537 c 128,-1,15
 164 575 164 575 118 575 c 256,16,17
 72 575 72 575 10 550 c 1,18,-1
 10 623 l 1,19,20
 81 653 81 653 139 653 c 0,21,22
 194 653 194 653 223 628 c 128,-1,23
 252 603 252 603 264 556.5 c 128,-1,24
 276 510 276 510 278 445 c 2,25,-1
 281 361 l 1,26,-1
 285 361 l 1,27,28
 318 444 318 444 444 444 c 2,29,-1
 545 444 l 1,30,31
 526 486 526 486 504 530.5 c 128,-1,32
 482 575 482 575 457 621 c 1,33,-1
 528 661 l 1,34,35
 557 608 557 608 583 554 c 128,-1,36
 609 500 609 500 631 444 c 1,37,-1
 1082 444 l 1,38,-1
 1082 364 l 1,39,-1
 870 364 l 1,40,-1
 870 3 l 1,0,-1
792 104 m 1,41,-1
 792 364 l 1,42,-1
 571 364 l 1,43,-1
 571 267 l 2,44,45
 571 214 571 214 600.5 177.5 c 128,-1,46
 630 141 630 141 690 127 c 2,47,-1
 792 104 l 1,41,-1
EndSplineSet
EndChar

StartChar: u1848.med
Encoding: 414 -1 229
Width: 560
VWidth: 1750
GlyphClass: 2
Flags: W
LayerCount: 2
Fore
SplineSet
378 3 m 1,0,-1
 176 47 l 2,1,2
 87 67 87 67 43.5 124.5 c 128,-1,3
 0 182 0 182 0 267 c 2,4,-1
 0 444 l 1,5,-1
 150 444 l 1,6,7
 126 498 126 498 104 542.5 c 128,-1,8
 82 587 82 587 62 621 c 1,9,-1
 133 661 l 1,10,11
 164 604 164 604 189.5 550 c 128,-1,12
 215 496 215 496 236 444 c 1,13,-1
 590 444 l 1,14,-1
 590 364 l 1,15,-1
 378 364 l 1,16,-1
 378 3 l 1,0,-1
300 104 m 1,17,-1
 300 364 l 1,18,-1
 79 364 l 1,19,-1
 79 267 l 2,20,21
 79 214 79 214 108.5 177.5 c 128,-1,22
 138 141 138 141 198 127 c 2,23,-1
 300 104 l 1,17,-1
EndSplineSet
Substitution2: "Single Substitution lookup 18 subtable" u1848.medV1
EndChar

StartChar: u1848.medV1
Encoding: 415 -1 230
Width: 844
VWidth: 1750
GlyphClass: 2
Flags: W
LayerCount: 2
Fore
SplineSet
662 3 m 1,0,-1
 460 47 l 2,1,2
 371 67 371 67 327.5 124.5 c 128,-1,3
 284 182 284 182 284 267 c 2,4,-1
 284 364 l 1,5,-1
 104 364 l 1,6,-1
 85 96 l 1,7,-1
 19 96 l 1,8,-1
 0 364 l 1,9,-1
 0 444 l 1,10,-1
 337 444 l 1,11,12
 313 497 313 497 291 541 c 128,-1,13
 269 585 269 585 249 621 c 1,14,-1
 320 661 l 1,15,16
 349 608 349 608 375 554 c 128,-1,17
 401 500 401 500 423 444 c 1,18,-1
 874 444 l 1,19,-1
 874 364 l 1,20,-1
 662 364 l 1,21,-1
 662 3 l 1,0,-1
584 104 m 1,22,-1
 584 364 l 1,23,-1
 363 364 l 1,24,-1
 363 267 l 2,25,26
 363 214 363 214 392.5 177.5 c 128,-1,27
 422 141 422 141 482 127 c 2,28,-1
 584 104 l 1,22,-1
EndSplineSet
Ligature2: "'medi' Medial Forms in +BBwEPgQ9BDMEPgQ7BEwEQQQ6BDgEOQAA lookup 5 subtable" u1848 FVS1
EndChar

StartChar: u1848.fin
Encoding: 416 -1 231
Width: 423
VWidth: 1750
GlyphClass: 2
Flags: W
LayerCount: 2
Fore
SplineSet
378 3 m 1,0,-1
 176 47 l 2,1,2
 87 67 87 67 43.5 124.5 c 128,-1,3
 0 182 0 182 0 267 c 2,4,-1
 0 444 l 1,5,-1
 150 444 l 1,6,7
 129 491 129 491 107 535.5 c 128,-1,8
 85 580 85 580 62 621 c 1,9,-1
 133 661 l 1,10,11
 164 604 164 604 189.5 550 c 128,-1,12
 215 496 215 496 236 444 c 1,13,-1
 378 444 l 1,14,-1
 378 3 l 1,0,-1
300 104 m 1,15,-1
 300 364 l 1,16,-1
 79 364 l 1,17,-1
 79 267 l 2,18,19
 79 214 79 214 108.5 177.5 c 128,-1,20
 138 141 138 141 198 127 c 2,21,-1
 300 104 l 1,15,-1
EndSplineSet
EndChar

StartChar: u184A
Encoding: 77 6218 238
Width: 1069
VWidth: 1750
GlyphClass: 2
Flags: W
LayerCount: 2
Fore
SplineSet
763 -264 m 1,0,1
 744 -233 744 -233 744 -187 c 0,2,3
 744 -128 744 -128 770.5 -77 c 128,-1,4
 797 -26 797 -26 839 28 c 0,5,6
 890 94 890 94 918 144 c 128,-1,7
 946 194 946 194 946 245 c 0,8,9
 946 305 946 305 909 334.5 c 128,-1,10
 872 364 872 364 792 364 c 2,11,-1
 408 364 l 1,12,-1
 408 263 l 2,13,14
 408 119 408 119 545 119 c 2,15,-1
 586 119 l 2,16,17
 660 119 660 119 691 92 c 1,18,-1
 691 9 l 1,19,20
 661 36 661 36 586 36 c 2,21,-1
 545 36 l 2,22,23
 441 36 441 36 385 92 c 128,-1,24
 329 148 329 148 329 263 c 2,25,-1
 329 364 l 1,26,-1
 149 364 l 1,27,-1
 130 96 l 1,28,-1
 64 96 l 1,29,-1
 45 364 l 1,30,-1
 45 444 l 1,31,-1
 793 444 l 2,32,33
 909 444 909 444 966.5 392.5 c 128,-1,34
 1024 341 1024 341 1024 245 c 0,35,36
 1024 175 1024 175 985.5 109 c 128,-1,37
 947 43 947 43 891 -31 c 0,38,39
 869 -61 869 -61 854 -84.5 c 128,-1,40
 839 -108 839 -108 831.5 -132 c 128,-1,41
 824 -156 824 -156 824 -187 c 0,42,43
 824 -228 824 -228 845 -264 c 1,44,-1
 763 -264 l 1,0,1
EndSplineSet
Substitution2: "'init' +BB0EMARHBDAEOwRMBD0ESwQ1 +BEQEPgRABDwESwAA in +BBwEPgQ9BDMEPgQ7BEwEQQQ6BDgEOQAA lookup 8 subtable" u184A.ini
Substitution2: "'medi' Medial Forms in +BBwEPgQ9BDMEPgQ7BEwEQQQ6BDgEOQAA lookup 6 subtable" u184A.med
Substitution2: "'fina' Terminal Forms in +BBwEPgQ9BDMEPgQ7BEwEQQQ6BDgEOQAA lookup 4 subtable" u184A.fin
EndChar

StartChar: u184B
Encoding: 78 6219 243
Width: 925
VWidth: 1750
GlyphClass: 2
Flags: W
LayerCount: 2
Fore
SplineSet
619 -264 m 1,0,1
 600 -233 600 -233 600 -187 c 0,2,3
 600 -128 600 -128 627 -77.5 c 128,-1,4
 654 -27 654 -27 695 28 c 0,5,6
 743 91 743 91 772.5 141.5 c 128,-1,7
 802 192 802 192 802 245 c 0,8,9
 802 305 802 305 765 334.5 c 128,-1,10
 728 364 728 364 648 364 c 2,11,-1
 420 364 l 1,12,13
 440 316 440 316 440 249 c 0,14,15
 440 155 440 155 388.5 97.5 c 128,-1,16
 337 40 337 40 242 40 c 0,17,18
 144 40 144 40 94.5 98.5 c 128,-1,19
 45 157 45 157 45 260 c 0,20,21
 45 317 45 317 56 361 c 128,-1,22
 67 405 67 405 90 444 c 1,23,-1
 649 444 l 2,24,25
 765 444 765 444 822.5 392.5 c 128,-1,26
 880 341 880 341 880 245 c 0,27,28
 880 176 880 176 841.5 109.5 c 128,-1,29
 803 43 803 43 747 -31 c 0,30,31
 725 -61 725 -61 710 -84.5 c 128,-1,32
 695 -108 695 -108 687.5 -132 c 128,-1,33
 680 -156 680 -156 680 -187 c 0,34,35
 680 -228 680 -228 701 -264 c 1,36,-1
 619 -264 l 1,0,1
242 123 m 0,37,38
 297 123 297 123 329 155 c 128,-1,39
 361 187 361 187 361 251 c 0,40,41
 361 316 361 316 341 364 c 1,42,-1
 144 364 l 1,43,44
 124 321 124 321 124 262 c 0,45,46
 124 123 124 123 242 123 c 0,37,38
EndSplineSet
Substitution2: "'init' +BB0EMARHBDAEOwRMBD0ESwQ1 +BEQEPgRABDwESwAA in +BBwEPgQ9BDMEPgQ7BEwEQQQ6BDgEOQAA lookup 8 subtable" u184B.ini
Substitution2: "'medi' Medial Forms in +BBwEPgQ9BDMEPgQ7BEwEQQQ6BDgEOQAA lookup 6 subtable" u184B.med
Substitution2: "'fina' Terminal Forms in +BBwEPgQ9BDMEPgQ7BEwEQQQ6BDgEOQAA lookup 4 subtable" u184B.fin
EndChar

StartChar: u184B.fin
Encoding: 428 -1 246
Width: 880
VWidth: 1750
GlyphClass: 2
Flags: W
LayerCount: 2
Fore
SplineSet
574 -264 m 1,0,1
 555 -231 555 -231 555 -187 c 0,2,3
 555 -129 555 -129 582 -77.5 c 128,-1,4
 609 -26 609 -26 650 28 c 0,5,6
 701 94 701 94 729 144 c 128,-1,7
 757 194 757 194 757 245 c 0,8,9
 757 305 757 305 720 334.5 c 128,-1,10
 683 364 683 364 603 364 c 2,11,-1
 373 364 l 1,12,13
 395 316 395 316 395 249 c 0,14,15
 395 155 395 155 343.5 97.5 c 128,-1,16
 292 40 292 40 197 40 c 0,17,18
 101 40 101 40 50.5 94.5 c 128,-1,19
 0 149 0 149 0 249 c 0,20,21
 0 316 0 316 20 364 c 1,22,-1
 0 364 l 1,23,-1
 0 444 l 1,24,-1
 604 444 l 2,25,26
 720 444 720 444 777.5 392.5 c 128,-1,27
 835 341 835 341 835 245 c 0,28,29
 835 178 835 178 796.5 110 c 128,-1,30
 758 42 758 42 702 -31 c 0,31,32
 678 -63 678 -63 663 -86 c 128,-1,33
 648 -109 648 -109 641.5 -132 c 128,-1,34
 635 -155 635 -155 635 -187 c 0,35,36
 635 -225 635 -225 656 -264 c 1,37,-1
 574 -264 l 1,0,1
197 123 m 0,38,39
 253 123 253 123 284.5 155 c 128,-1,40
 316 187 316 187 316 251 c 0,41,42
 316 316 316 316 296 364 c 1,43,-1
 99 364 l 1,44,45
 79 316 79 316 79 251 c 0,46,47
 79 123 79 123 197 123 c 0,38,39
EndSplineSet
EndChar

StartChar: u184B_1848
Encoding: 449 -1 267
Width: 797
VWidth: 1750
GlyphClass: 2
Flags: W
LayerCount: 2
Fore
SplineSet
249 40 m 0,0,1
 143 40 143 40 94 125 c 128,-1,2
 45 210 45 210 45 375 c 0,3,4
 45 488 45 488 83 576.5 c 128,-1,5
 121 665 121 665 194 718.5 c 128,-1,6
 267 772 267 772 372 780 c 1,7,8
 361 805 361 805 344.5 838 c 128,-1,9
 328 871 328 871 305 913 c 1,10,-1
 376 953 l 1,11,12
 403 903 403 903 424 859 c 128,-1,13
 445 815 445 815 461 778 c 1,14,15
 557 765 557 765 621.5 709.5 c 128,-1,16
 686 654 686 654 719 567.5 c 128,-1,17
 752 481 752 481 752 375 c 0,18,19
 752 203 752 203 699.5 121.5 c 128,-1,20
 647 40 647 40 538 40 c 0,21,22
 490 40 490 40 453.5 63.5 c 128,-1,23
 417 87 417 87 396 135 c 1,24,25
 377 88 377 88 336.5 64 c 128,-1,26
 296 40 296 40 249 40 c 0,0,1
127 444 m 1,27,-1
 668 444 l 1,28,29
 658 520 658 520 624.5 577.5 c 128,-1,30
 591 635 591 635 536 667 c 128,-1,31
 481 699 481 699 405 699 c 0,32,33
 277 699 277 699 210 632 c 128,-1,34
 143 565 143 565 127 444 c 1,27,-1
248 123 m 0,35,36
 304 123 304 123 331.5 169 c 128,-1,37
 359 215 359 215 359 283 c 2,38,-1
 359 364 l 1,39,-1
 124 364 l 1,40,41
 124 293 124 293 133.5 238.5 c 128,-1,42
 143 184 143 184 169.5 153.5 c 128,-1,43
 196 123 196 123 248 123 c 0,35,36
538 123 m 0,44,45
 588 123 588 123 616.5 146.5 c 128,-1,46
 645 170 645 170 658 223 c 128,-1,47
 671 276 671 276 673 364 c 1,48,-1
 438 364 l 1,49,-1
 438 286 l 2,50,51
 438 123 438 123 538 123 c 0,44,45
EndSplineSet
Ligature2: "'rlig' Required Ligatures in +BBwEPgQ9BDMEPgQ7BEwEQQQ6BDgEOQAA lookup 25 subtable" u184B.ini u1848.fin
EndChar

StartChar: u184B_1848.ini
Encoding: 450 -1 268
Width: 933
VWidth: 1750
GlyphClass: 2
Flags: W
LayerCount: 2
Fore
SplineSet
249 40 m 0,0,1
 143 40 143 40 94 125 c 128,-1,2
 45 210 45 210 45 375 c 0,3,4
 45 488 45 488 83 576.5 c 128,-1,5
 121 665 121 665 194 718.5 c 128,-1,6
 267 772 267 772 372 780 c 1,7,8
 361 805 361 805 344.5 838 c 128,-1,9
 328 871 328 871 305 913 c 1,10,-1
 376 953 l 1,11,12
 403 903 403 903 424 859 c 128,-1,13
 445 815 445 815 461 778 c 1,14,15
 544 768 544 768 605 722 c 128,-1,16
 666 676 666 676 702.5 604.5 c 128,-1,17
 739 533 739 533 748 444 c 1,18,-1
 963 444 l 1,19,-1
 963 364 l 1,20,-1
 752 364 l 1,21,22
 751 201 751 201 698 120.5 c 128,-1,23
 645 40 645 40 538 40 c 0,24,25
 490 40 490 40 453.5 63.5 c 128,-1,26
 417 87 417 87 396 135 c 1,27,28
 377 88 377 88 336.5 64 c 128,-1,29
 296 40 296 40 249 40 c 0,0,1
127 444 m 1,30,-1
 668 444 l 1,31,32
 658 520 658 520 624.5 577.5 c 128,-1,33
 591 635 591 635 536 667 c 128,-1,34
 481 699 481 699 405 699 c 0,35,36
 276 699 276 699 210 632.5 c 128,-1,37
 144 566 144 566 127 444 c 1,30,-1
248 123 m 0,38,39
 304 123 304 123 331.5 168.5 c 128,-1,40
 359 214 359 214 359 283 c 2,41,-1
 359 364 l 1,42,-1
 124 364 l 1,43,44
 124 295 124 295 133 240.5 c 128,-1,45
 142 186 142 186 169 154.5 c 128,-1,46
 196 123 196 123 248 123 c 0,38,39
538 123 m 0,47,48
 588 123 588 123 616.5 146.5 c 128,-1,49
 645 170 645 170 658 223 c 128,-1,50
 671 276 671 276 673 364 c 1,51,-1
 438 364 l 1,52,-1
 438 286 l 2,53,54
 438 123 438 123 538 123 c 0,47,48
EndSplineSet
Ligature2: "'rlig' Required Ligatures in +BBwEPgQ9BDMEPgQ7BEwEQQQ6BDgEOQAA lookup 25 subtable" u184B.ini u1848.med
EndChar

StartChar: u184C
Encoding: 79 6220 276
Width: 716
VWidth: 1750
GlyphClass: 2
Flags: W
LayerCount: 2
Fore
SplineSet
45 63 m 1,0,-1
 45 711 l 1,1,-1
 116 711 l 1,2,-1
 116 444 l 1,3,-1
 210 444 l 1,4,5
 210 530 210 530 239 593.5 c 128,-1,6
 268 657 268 657 320 692 c 128,-1,7
 372 727 372 727 439 727 c 0,8,9
 515 727 515 727 564 686 c 128,-1,10
 613 645 613 645 639 575 c 128,-1,11
 665 505 665 505 671 419 c 1,12,-1
 592 409 l 1,13,14
 583 532 583 532 544.5 588 c 128,-1,15
 506 644 506 644 439 644 c 0,16,17
 370 644 370 644 329.5 591.5 c 128,-1,18
 289 539 289 539 289 430 c 0,19,20
 289 266 289 266 405 63 c 1,21,-1
 45 63 l 1,0,-1
116 146 m 1,22,-1
 276 146 l 1,23,24
 225 257 225 257 213 364 c 1,25,-1
 116 364 l 1,26,-1
 116 146 l 1,22,-1
EndSplineSet
Substitution2: "'init' +BB0EMARHBDAEOwRMBD0ESwQ1 +BEQEPgRABDwESwAA in +BBwEPgQ9BDMEPgQ7BEwEQQQ6BDgEOQAA lookup 8 subtable" u184C.ini
Substitution2: "'medi' Medial Forms in +BBwEPgQ9BDMEPgQ7BEwEQQQ6BDgEOQAA lookup 6 subtable" u184C.med
Substitution2: "'fina' Terminal Forms in +BBwEPgQ9BDMEPgQ7BEwEQQQ6BDgEOQAA lookup 4 subtable" u184C.fin
EndChar

StartChar: u184C.fin
Encoding: 458 -1 277
Width: 785
VWidth: 1750
GlyphClass: 2
Flags: W
LayerCount: 2
Fore
SplineSet
424 -264 m 1,0,1
 405 -227 405 -227 405 -187 c 0,2,3
 405 -140 405 -140 418.5 -102.5 c 128,-1,4
 432 -65 432 -65 457 -28.5 c 128,-1,5
 482 8 482 8 515 50 c 0,6,7
 565 113 565 113 597.5 165 c 128,-1,8
 630 217 630 217 646 270 c 128,-1,9
 662 323 662 323 662 388 c 0,10,11
 662 504 662 504 607.5 574 c 128,-1,12
 553 644 553 644 449 644 c 0,13,14
 349 644 349 644 296.5 584.5 c 128,-1,15
 244 525 244 525 244 419 c 0,16,17
 244 259 244 259 360 63 c 1,18,-1
 0 63 l 1,19,-1
 0 711 l 1,20,-1
 71 711 l 1,21,-1
 71 444 l 1,22,-1
 165 444 l 1,23,24
 173 576 173 576 248.5 651.5 c 128,-1,25
 324 727 324 727 449 727 c 0,26,27
 545 727 545 727 609.5 684 c 128,-1,28
 674 641 674 641 707 564.5 c 128,-1,29
 740 488 740 488 740 388 c 0,30,31
 740 314 740 314 719.5 249.5 c 128,-1,32
 699 185 699 185 660.5 123 c 128,-1,33
 622 61 622 61 568 -7 c 0,34,35
 529 -56 529 -56 507 -95.5 c 128,-1,36
 485 -135 485 -135 485 -187 c 0,37,38
 485 -225 485 -225 506 -264 c 1,39,-1
 424 -264 l 1,0,1
71 146 m 1,40,-1
 230 146 l 1,41,42
 176 258 176 258 167 364 c 1,43,-1
 71 364 l 1,44,-1
 71 146 l 1,40,-1
EndSplineSet
EndChar

StartChar: u184C_1823
Encoding: 459 -1 278
Width: 914
VWidth: 1750
GlyphClass: 2
Flags: W
LayerCount: 2
Fore
SplineSet
673 40 m 0,0,1
 574 40 574 40 524 104 c 128,-1,2
 474 168 474 168 474 275 c 0,3,4
 474 316 474 316 484 362.5 c 128,-1,5
 494 409 494 409 512 444 c 1,6,-1
 779 444 l 1,7,8
 737 677 737 677 530 677 c 0,9,10
 453 677 453 677 399 643 c 128,-1,11
 345 609 345 609 317 547.5 c 128,-1,12
 289 486 289 486 289 405 c 0,13,14
 289 251 289 251 405 63 c 1,15,-1
 45 63 l 1,16,-1
 45 711 l 1,17,-1
 116 711 l 1,18,-1
 116 444 l 1,19,-1
 211 444 l 1,20,21
 219 540 219 540 260 611 c 128,-1,22
 301 682 301 682 370 721 c 128,-1,23
 439 760 439 760 530 760 c 256,24,25
 621 760 621 760 685.5 725.5 c 128,-1,26
 750 691 750 691 790.5 629 c 128,-1,27
 831 567 831 567 850 483.5 c 128,-1,28
 869 400 869 400 869 303 c 0,29,30
 869 225 869 225 844 165.5 c 128,-1,31
 819 106 819 106 775 73 c 128,-1,32
 731 40 731 40 673 40 c 0,0,1
116 146 m 1,33,-1
 273 146 l 1,34,35
 220 257 220 257 211 364 c 1,36,-1
 116 364 l 1,37,-1
 116 146 l 1,33,-1
667 123 m 0,38,39
 709 123 709 123 736 147.5 c 128,-1,40
 763 172 763 172 776.5 213 c 128,-1,41
 790 254 790 254 790 303 c 0,42,43
 790 319 790 319 790 334 c 128,-1,44
 790 349 790 349 788 364 c 1,45,-1
 569 364 l 1,46,47
 562 347 562 347 557.5 324.5 c 128,-1,48
 553 302 553 302 553 275 c 0,49,50
 553 123 553 123 667 123 c 0,38,39
EndSplineSet
Ligature2: "'rlig' Required Ligatures in +BBwEPgQ9BDMEPgQ7BEwEQQQ6BDgEOQAA lookup 25 subtable" u184C.ini u1823.fin
EndChar

StartChar: u184C_1823.ini
Encoding: 460 -1 279
Width: 1050
VWidth: 1750
GlyphClass: 2
Flags: W
LayerCount: 2
Fore
SplineSet
674 40 m 0,0,1
 574 40 574 40 524 104 c 128,-1,2
 474 168 474 168 474 275 c 0,3,4
 474 316 474 316 484 362.5 c 128,-1,5
 494 409 494 409 512 444 c 1,6,-1
 779 444 l 1,7,8
 737 677 737 677 530 677 c 0,9,10
 453 677 453 677 399 643 c 128,-1,11
 345 609 345 609 317 547.5 c 128,-1,12
 289 486 289 486 289 405 c 0,13,14
 289 251 289 251 405 63 c 1,15,-1
 45 63 l 1,16,-1
 45 711 l 1,17,-1
 116 711 l 1,18,-1
 116 444 l 1,19,-1
 211 444 l 1,20,21
 219 540 219 540 260 611 c 128,-1,22
 301 682 301 682 370 721 c 128,-1,23
 439 760 439 760 530 760 c 0,24,25
 666 760 666 760 749 679 c 128,-1,26
 832 598 832 598 858 444 c 1,27,-1
 1080 444 l 1,28,-1
 1080 364 l 1,29,-1
 867 364 l 1,30,31
 869 349 869 349 869 333.5 c 128,-1,32
 869 318 869 318 869 302 c 0,33,34
 869 222 869 222 843.5 163 c 128,-1,35
 818 104 818 104 774 72 c 128,-1,36
 730 40 730 40 674 40 c 0,0,1
116 146 m 1,37,-1
 273 146 l 1,38,39
 220 257 220 257 211 364 c 1,40,-1
 116 364 l 1,41,-1
 116 146 l 1,37,-1
667 123 m 0,42,43
 709 123 709 123 736 147 c 128,-1,44
 763 171 763 171 776.5 211.5 c 128,-1,45
 790 252 790 252 790 301 c 0,46,47
 790 317 790 317 790 333 c 128,-1,48
 790 349 790 349 788 364 c 1,49,-1
 569 364 l 1,50,51
 562 347 562 347 557.5 324.5 c 128,-1,52
 553 302 553 302 553 275 c 0,53,54
 553 123 553 123 667 123 c 0,42,43
EndSplineSet
Ligature2: "'rlig' Required Ligatures in +BBwEPgQ9BDMEPgQ7BEwEQQQ6BDgEOQAA lookup 25 subtable" u184C.ini u1823.med
EndChar

StartChar: u184C_1844
Encoding: 463 -1 282
Width: 1001
VWidth: 1750
GlyphClass: 2
Flags: W
LayerCount: 2
Fore
SplineSet
956 9 m 1,0,1
 926 36 926 36 851 36 c 2,2,-1
 810 36 l 2,3,4
 706 36 706 36 650 92 c 128,-1,5
 594 148 594 148 594 263 c 2,6,-1
 594 374 l 2,7,8
 594 644 594 644 439 644 c 0,9,10
 370 644 370 644 329.5 591.5 c 128,-1,11
 289 539 289 539 289 430 c 0,12,13
 289 266 289 266 405 63 c 1,14,-1
 45 63 l 1,15,-1
 45 711 l 1,16,-1
 116 711 l 1,17,-1
 116 444 l 1,18,-1
 210 444 l 1,19,20
 210 530 210 530 239 593.5 c 128,-1,21
 268 657 268 657 320 692 c 128,-1,22
 372 727 372 727 439 727 c 0,23,24
 513 727 513 727 561.5 688.5 c 128,-1,25
 610 650 610 650 636.5 586 c 128,-1,26
 663 522 663 522 670 444 c 1,27,-1
 956 444 l 1,28,-1
 956 364 l 1,29,-1
 673 364 l 1,30,-1
 673 263 l 2,31,32
 673 119 673 119 810 119 c 2,33,-1
 851 119 l 2,34,35
 925 119 925 119 956 92 c 1,36,-1
 956 9 l 1,0,1
116 146 m 1,37,-1
 276 146 l 1,38,39
 225 257 225 257 213 364 c 1,40,-1
 116 364 l 1,41,-1
 116 146 l 1,37,-1
EndSplineSet
Ligature2: "'rlig' Required Ligatures in +BBwEPgQ9BDMEPgQ7BEwEQQQ6BDgEOQAA lookup 25 subtable" u184C.ini u1844.fin
EndChar

StartChar: u184C_1844.ini
Encoding: 464 -1 283
Width: 1078
VWidth: 1750
GlyphClass: 2
Flags: W
LayerCount: 2
Fore
SplineSet
956 9 m 1,0,1
 926 36 926 36 851 36 c 2,2,-1
 810 36 l 2,3,4
 706 36 706 36 650 92 c 128,-1,5
 594 148 594 148 594 263 c 2,6,-1
 594 374 l 2,7,8
 594 644 594 644 439 644 c 0,9,10
 370 644 370 644 329.5 591.5 c 128,-1,11
 289 539 289 539 289 430 c 0,12,13
 289 266 289 266 405 63 c 1,14,-1
 45 63 l 1,15,-1
 45 711 l 1,16,-1
 116 711 l 1,17,-1
 116 444 l 1,18,-1
 210 444 l 1,19,20
 210 530 210 530 239 593.5 c 128,-1,21
 268 657 268 657 320 692 c 128,-1,22
 372 727 372 727 439 727 c 0,23,24
 513 727 513 727 561.5 688.5 c 128,-1,25
 610 650 610 650 636.5 586 c 128,-1,26
 663 522 663 522 670 444 c 1,27,-1
 1108 444 l 1,28,-1
 1108 364 l 1,29,-1
 673 364 l 1,30,-1
 673 263 l 2,31,32
 673 119 673 119 810 119 c 2,33,-1
 851 119 l 2,34,35
 925 119 925 119 956 92 c 1,36,-1
 956 9 l 1,0,1
116 146 m 1,37,-1
 276 146 l 1,38,39
 225 257 225 257 213 364 c 1,40,-1
 116 364 l 1,41,-1
 116 146 l 1,37,-1
EndSplineSet
Ligature2: "'rlig' Required Ligatures in +BBwEPgQ9BDMEPgQ7BEwEQQQ6BDgEOQAA lookup 25 subtable" u184C.ini u1844.med
EndChar

StartChar: u184C_1845
Encoding: 467 -1 286
Width: 1388
VWidth: 1750
GlyphClass: 2
Flags: W
LayerCount: 2
Fore
SplineSet
1016 9 m 1,0,1
 986 36 986 36 911 36 c 2,2,-1
 770 36 l 2,3,4
 594 36 594 36 594 223 c 2,5,-1
 594 374 l 2,6,7
 594 644 594 644 439 644 c 0,8,9
 370 644 370 644 329.5 591.5 c 128,-1,10
 289 539 289 539 289 430 c 0,11,12
 289 266 289 266 405 63 c 1,13,-1
 45 63 l 1,14,-1
 45 711 l 1,15,-1
 116 711 l 1,16,-1
 116 444 l 1,17,-1
 210 444 l 1,18,19
 210 530 210 530 239 593.5 c 128,-1,20
 268 657 268 657 320 692 c 128,-1,21
 372 727 372 727 439 727 c 0,22,23
 501 727 501 727 545.5 699.5 c 128,-1,24
 590 672 590 672 618 623 c 128,-1,25
 646 574 646 574 659.5 510 c 128,-1,26
 673 446 673 446 673 374 c 2,27,-1
 673 223 l 2,28,29
 673 119 673 119 770 119 c 2,30,-1
 803 119 l 1,31,-1
 803 444 l 1,32,-1
 1168 444 l 2,33,34
 1343 444 1343 444 1343 279 c 0,35,36
 1343 247 1343 247 1336.5 217.5 c 128,-1,37
 1330 188 1330 188 1318 162 c 1,38,-1
 1244 162 l 1,39,40
 1266 213 1266 213 1266 279 c 0,41,42
 1266 320 1266 320 1243.5 342 c 128,-1,43
 1221 364 1221 364 1168 364 c 2,44,-1
 882 364 l 1,45,-1
 882 119 l 1,46,-1
 911 119 l 2,47,48
 985 119 985 119 1016 92 c 1,49,-1
 1016 9 l 1,0,1
116 146 m 1,50,-1
 276 146 l 1,51,52
 225 257 225 257 213 364 c 1,53,-1
 116 364 l 1,54,-1
 116 146 l 1,50,-1
EndSplineSet
Ligature2: "'rlig' Required Ligatures in +BBwEPgQ9BDMEPgQ7BEwEQQQ6BDgEOQAA lookup 25 subtable" u184C.ini u1845.fin
EndChar

StartChar: u184C_1845.ini
Encoding: 468 -1 287
Width: 1138
VWidth: 1750
GlyphClass: 2
Flags: W
LayerCount: 2
Fore
SplineSet
1016 9 m 1,0,1
 986 36 986 36 911 36 c 2,2,-1
 770 36 l 2,3,4
 594 36 594 36 594 223 c 2,5,-1
 594 374 l 2,6,7
 594 644 594 644 439 644 c 0,8,9
 370 644 370 644 329.5 591.5 c 128,-1,10
 289 539 289 539 289 430 c 0,11,12
 289 266 289 266 405 63 c 1,13,-1
 45 63 l 1,14,-1
 45 711 l 1,15,-1
 116 711 l 1,16,-1
 116 444 l 1,17,-1
 210 444 l 1,18,19
 210 530 210 530 239 593.5 c 128,-1,20
 268 657 268 657 320 692 c 128,-1,21
 372 727 372 727 439 727 c 0,22,23
 501 727 501 727 545.5 699.5 c 128,-1,24
 590 672 590 672 618 623 c 128,-1,25
 646 574 646 574 659.5 510 c 128,-1,26
 673 446 673 446 673 374 c 2,27,-1
 673 223 l 2,28,29
 673 119 673 119 770 119 c 2,30,-1
 803 119 l 1,31,-1
 803 444 l 1,32,-1
 1168 444 l 1,33,-1
 1168 364 l 1,34,-1
 882 364 l 1,35,-1
 882 119 l 1,36,-1
 911 119 l 2,37,38
 985 119 985 119 1016 92 c 1,39,-1
 1016 9 l 1,0,1
116 146 m 1,40,-1
 276 146 l 1,41,42
 225 257 225 257 213 364 c 1,43,-1
 116 364 l 1,44,-1
 116 146 l 1,40,-1
EndSplineSet
Ligature2: "'rlig' Required Ligatures in +BBwEPgQ9BDMEPgQ7BEwEQQQ6BDgEOQAA lookup 25 subtable" u184C.ini u1845.med
EndChar

StartChar: u184C_1820.ini
Encoding: 471 -1 290
Width: 879
VWidth: 1750
GlyphClass: 2
Flags: W
LayerCount: 2
Fore
SplineSet
45 63 m 1,0,-1
 45 711 l 1,1,-1
 116 711 l 1,2,-1
 116 444 l 1,3,-1
 210 444 l 1,4,5
 210 530 210 530 239 593.5 c 128,-1,6
 268 657 268 657 320 692 c 128,-1,7
 372 727 372 727 439 727 c 0,8,9
 514 727 514 727 560.5 691.5 c 128,-1,10
 607 656 607 656 632.5 592.5 c 128,-1,11
 658 529 658 529 668 444 c 1,12,-1
 909 444 l 1,13,-1
 909 364 l 1,14,-1
 699 364 l 1,15,-1
 680 96 l 1,16,-1
 614 96 l 1,17,-1
 595 361 l 2,18,19
 589 444 589 444 576 507.5 c 128,-1,20
 563 571 563 571 532 607.5 c 128,-1,21
 501 644 501 644 441 644 c 0,22,23
 371 644 371 644 330 591.5 c 128,-1,24
 289 539 289 539 289 430 c 0,25,26
 289 266 289 266 405 63 c 1,27,-1
 45 63 l 1,0,-1
116 146 m 1,28,-1
 276 146 l 1,29,30
 225 257 225 257 213 364 c 1,31,-1
 116 364 l 1,32,-1
 116 146 l 1,28,-1
EndSplineSet
Ligature2: "'rlig' Required Ligatures in +BBwEPgQ9BDMEPgQ7BEwEQQQ6BDgEOQAA lookup 25 subtable" u184C.ini u1820.med
EndChar

StartChar: u184C_1820
Encoding: 474 -1 293
Width: 1186
VWidth: 1750
GlyphClass: 2
Flags: W
LayerCount: 2
Fore
SplineSet
880 -264 m 1,0,1
 861 -232 861 -232 861 -187 c 0,2,3
 861 -128 861 -128 888.5 -77 c 128,-1,4
 916 -26 916 -26 956 28 c 0,5,6
 1005 93 1005 93 1034 141.5 c 128,-1,7
 1063 190 1063 190 1063 242 c 0,8,9
 1063 305 1063 305 1026 334.5 c 128,-1,10
 989 364 989 364 909 364 c 2,11,-1
 699 364 l 1,12,-1
 680 96 l 1,13,-1
 614 96 l 1,14,-1
 595 364 l 2,15,16
 589 449 589 449 575.5 512 c 128,-1,17
 562 575 562 575 530.5 609.5 c 128,-1,18
 499 644 499 644 439 644 c 0,19,20
 370 644 370 644 329.5 591.5 c 128,-1,21
 289 539 289 539 289 430 c 0,22,23
 289 266 289 266 405 63 c 1,24,-1
 45 63 l 1,25,-1
 45 711 l 1,26,-1
 116 711 l 1,27,-1
 116 444 l 1,28,-1
 210 444 l 1,29,30
 210 530 210 530 239.5 593.5 c 128,-1,31
 269 657 269 657 321 692 c 128,-1,32
 373 727 373 727 439 727 c 0,33,34
 514 727 514 727 560.5 691.5 c 128,-1,35
 607 656 607 656 632.5 592.5 c 128,-1,36
 658 529 658 529 668 444 c 1,37,-1
 910 444 l 2,38,39
 1025 444 1025 444 1083 392.5 c 128,-1,40
 1141 341 1141 341 1141 245 c 0,41,42
 1141 178 1141 178 1102.5 109 c 128,-1,43
 1064 40 1064 40 1008 -31 c 0,44,45
 985 -61 985 -61 970 -85 c 128,-1,46
 955 -109 955 -109 948 -132.5 c 128,-1,47
 941 -156 941 -156 941 -187 c 0,48,49
 941 -225 941 -225 962 -264 c 1,50,-1
 880 -264 l 1,0,1
116 146 m 1,51,-1
 276 146 l 1,52,53
 225 257 225 257 213 364 c 1,54,-1
 116 364 l 1,55,-1
 116 146 l 1,51,-1
EndSplineSet
Ligature2: "'rlig' Required Ligatures in +BBwEPgQ9BDMEPgQ7BEwEQQQ6BDgEOQAA lookup 25 subtable" u184C.ini u1820.fin
EndChar

StartChar: u184C_1847
Encoding: 479 -1 298
Width: 914
VWidth: 1750
GlyphClass: 2
Flags: W
LayerCount: 2
Fore
SplineSet
752 -121 m 1,0,1
 729 -78 729 -78 709 -37.5 c 128,-1,2
 689 3 689 3 672 40 c 1,3,4
 574 40 574 40 524 104.5 c 128,-1,5
 474 169 474 169 474 275 c 0,6,7
 474 316 474 316 484 362.5 c 128,-1,8
 494 409 494 409 512 444 c 1,9,-1
 779 444 l 1,10,11
 737 677 737 677 530 677 c 0,12,13
 453 677 453 677 399 643 c 128,-1,14
 345 609 345 609 317 547.5 c 128,-1,15
 289 486 289 486 289 405 c 0,16,17
 289 251 289 251 405 63 c 1,18,-1
 45 63 l 1,19,-1
 45 711 l 1,20,-1
 116 711 l 1,21,-1
 116 444 l 1,22,-1
 211 444 l 1,23,24
 219 540 219 540 260 611 c 128,-1,25
 301 682 301 682 370 721 c 128,-1,26
 439 760 439 760 530 760 c 256,27,28
 621 760 621 760 685.5 725.5 c 128,-1,29
 750 691 750 691 790.5 629 c 128,-1,30
 831 567 831 567 850 483.5 c 128,-1,31
 869 400 869 400 869 303 c 0,32,33
 869 223 869 223 840 156 c 128,-1,34
 811 89 811 89 752 59 c 1,35,36
 769 21 769 21 787 -14 c 128,-1,37
 805 -49 805 -49 823 -81 c 1,38,-1
 752 -121 l 1,0,1
116 146 m 1,39,-1
 273 146 l 1,40,41
 220 257 220 257 211 364 c 1,42,-1
 116 364 l 1,43,-1
 116 146 l 1,39,-1
667 123 m 0,44,45
 709 123 709 123 736 147.5 c 128,-1,46
 763 172 763 172 776.5 213 c 128,-1,47
 790 254 790 254 790 303 c 0,48,49
 790 319 790 319 790 334 c 128,-1,50
 790 349 790 349 788 364 c 1,51,-1
 569 364 l 1,52,53
 562 347 562 347 557.5 324.5 c 128,-1,54
 553 302 553 302 553 275 c 0,55,56
 553 123 553 123 667 123 c 0,44,45
EndSplineSet
Ligature2: "'rlig' Required Ligatures in +BBwEPgQ9BDMEPgQ7BEwEQQQ6BDgEOQAA lookup 25 subtable" u184C.ini u1847.fin
EndChar

StartChar: u184C_1847.ini
Encoding: 480 -1 299
Width: 1050
VWidth: 1750
GlyphClass: 2
Flags: W
LayerCount: 2
Fore
SplineSet
752 -121 m 1,0,1
 729 -78 729 -78 709 -37.5 c 128,-1,2
 689 3 689 3 672 40 c 1,3,4
 574 40 574 40 524 104.5 c 128,-1,5
 474 169 474 169 474 275 c 0,6,7
 474 316 474 316 484 362.5 c 128,-1,8
 494 409 494 409 512 444 c 1,9,-1
 779 444 l 1,10,11
 737 677 737 677 530 677 c 0,12,13
 453 677 453 677 399 643 c 128,-1,14
 345 609 345 609 317 547.5 c 128,-1,15
 289 486 289 486 289 405 c 0,16,17
 289 251 289 251 405 63 c 1,18,-1
 45 63 l 1,19,-1
 45 711 l 1,20,-1
 116 711 l 1,21,-1
 116 444 l 1,22,-1
 211 444 l 1,23,24
 219 540 219 540 260 611 c 128,-1,25
 301 682 301 682 370 721 c 128,-1,26
 439 760 439 760 530 760 c 0,27,28
 666 760 666 760 749 679 c 128,-1,29
 832 598 832 598 858 444 c 1,30,-1
 1080 444 l 1,31,-1
 1080 364 l 1,32,-1
 867 364 l 1,33,34
 869 349 869 349 869 334 c 128,-1,35
 869 319 869 319 869 303 c 0,36,37
 869 223 869 223 840 156 c 128,-1,38
 811 89 811 89 752 59 c 1,39,40
 769 21 769 21 787 -14 c 128,-1,41
 805 -49 805 -49 823 -81 c 1,42,-1
 752 -121 l 1,0,1
116 146 m 1,43,-1
 273 146 l 1,44,45
 220 257 220 257 211 364 c 1,46,-1
 116 364 l 1,47,-1
 116 146 l 1,43,-1
667 123 m 0,48,49
 709 123 709 123 736 147.5 c 128,-1,50
 763 172 763 172 776.5 213 c 128,-1,51
 790 254 790 254 790 303 c 0,52,53
 790 319 790 319 790 334 c 128,-1,54
 790 349 790 349 788 364 c 1,55,-1
 569 364 l 1,56,57
 562 347 562 347 557.5 324.5 c 128,-1,58
 553 302 553 302 553 275 c 0,59,60
 553 123 553 123 667 123 c 0,48,49
EndSplineSet
Ligature2: "'rlig' Required Ligatures in +BBwEPgQ9BDMEPgQ7BEwEQQQ6BDgEOQAA lookup 25 subtable" u184C.ini u1847.med
EndChar

StartChar: u184C_1848
Encoding: 483 -1 302
Width: 914
VWidth: 1750
GlyphClass: 2
Flags: W
LayerCount: 2
Fore
SplineSet
674 40 m 0,0,1
 574 40 574 40 524 104 c 128,-1,2
 474 168 474 168 474 275 c 0,3,4
 474 316 474 316 484 362.5 c 128,-1,5
 494 409 494 409 512 444 c 1,6,-1
 779 444 l 1,7,8
 737 677 737 677 530 677 c 0,9,10
 453 677 453 677 399 643 c 128,-1,11
 345 609 345 609 317 547.5 c 128,-1,12
 289 486 289 486 289 405 c 0,13,14
 289 251 289 251 405 63 c 1,15,-1
 45 63 l 1,16,-1
 45 711 l 1,17,-1
 116 711 l 1,18,-1
 116 444 l 1,19,-1
 211 444 l 1,20,21
 218 535 218 535 256.5 604.5 c 128,-1,22
 295 674 295 674 359 714.5 c 128,-1,23
 423 755 423 755 507 759 c 1,24,25
 494 790 494 790 474.5 828.5 c 128,-1,26
 455 867 455 867 430 913 c 1,27,-1
 501 953 l 1,28,29
 529 902 529 902 553 852.5 c 128,-1,30
 577 803 577 803 596 754 c 1,31,32
 694 737 694 737 754 673.5 c 128,-1,33
 814 610 814 610 841.5 514 c 128,-1,34
 869 418 869 418 869 302 c 0,35,36
 869 224 869 224 844 165 c 128,-1,37
 819 106 819 106 775 73 c 128,-1,38
 731 40 731 40 674 40 c 0,0,1
116 146 m 1,39,-1
 273 146 l 1,40,41
 220 257 220 257 211 364 c 1,42,-1
 116 364 l 1,43,-1
 116 146 l 1,39,-1
667 123 m 0,44,45
 709 123 709 123 736 147 c 128,-1,46
 763 171 763 171 776.5 212 c 128,-1,47
 790 253 790 253 790 302 c 0,48,49
 790 318 790 318 790 333.5 c 128,-1,50
 790 349 790 349 788 364 c 1,51,-1
 569 364 l 1,52,53
 562 347 562 347 557.5 324.5 c 128,-1,54
 553 302 553 302 553 275 c 0,55,56
 553 123 553 123 667 123 c 0,44,45
EndSplineSet
Ligature2: "'rlig' Required Ligatures in +BBwEPgQ9BDMEPgQ7BEwEQQQ6BDgEOQAA lookup 25 subtable" u184C.ini u1848.fin
EndChar

StartChar: u184C_1848.ini
Encoding: 484 -1 303
Width: 1050
VWidth: 1750
GlyphClass: 2
Flags: W
LayerCount: 2
Fore
SplineSet
674 40 m 0,0,1
 574 40 574 40 524 104 c 128,-1,2
 474 168 474 168 474 275 c 0,3,4
 474 317 474 317 484 363 c 128,-1,5
 494 409 494 409 512 444 c 1,6,-1
 779 444 l 1,7,8
 737 677 737 677 530 677 c 0,9,10
 453 677 453 677 399 643 c 128,-1,11
 345 609 345 609 317 547.5 c 128,-1,12
 289 486 289 486 289 405 c 0,13,14
 289 251 289 251 405 63 c 1,15,-1
 45 63 l 1,16,-1
 45 711 l 1,17,-1
 116 711 l 1,18,-1
 116 444 l 1,19,-1
 211 444 l 1,20,21
 218 535 218 535 256.5 604.5 c 128,-1,22
 295 674 295 674 359 714.5 c 128,-1,23
 423 755 423 755 507 759 c 1,24,25
 494 790 494 790 474.5 828.5 c 128,-1,26
 455 867 455 867 430 913 c 1,27,-1
 501 953 l 1,28,29
 529 902 529 902 553 852.5 c 128,-1,30
 577 803 577 803 596 754 c 1,31,32
 709 733 709 733 774 650 c 128,-1,33
 839 567 839 567 858 444 c 1,34,-1
 1080 444 l 1,35,-1
 1080 364 l 1,36,-1
 867 364 l 1,37,38
 869 349 869 349 869 333.5 c 128,-1,39
 869 318 869 318 869 302 c 0,40,41
 869 224 869 224 844 165 c 128,-1,42
 819 106 819 106 775 73 c 128,-1,43
 731 40 731 40 674 40 c 0,0,1
116 146 m 1,44,-1
 273 146 l 1,45,46
 220 257 220 257 211 364 c 1,47,-1
 116 364 l 1,48,-1
 116 146 l 1,44,-1
667 123 m 0,49,50
 709 123 709 123 736 147 c 128,-1,51
 763 171 763 171 776.5 211.5 c 128,-1,52
 790 252 790 252 790 301 c 0,53,54
 790 317 790 317 790 333 c 128,-1,55
 790 349 790 349 788 364 c 1,56,-1
 569 364 l 1,57,58
 562 347 562 347 557.5 324.5 c 128,-1,59
 553 302 553 302 553 275 c 0,60,61
 553 123 553 123 667 123 c 0,49,50
EndSplineSet
Ligature2: "'rlig' Required Ligatures in +BBwEPgQ9BDMEPgQ7BEwEQQQ6BDgEOQAA lookup 25 subtable" u184C.ini u1848.med
EndChar

StartChar: u184D
Encoding: 80 6221 310
Width: 861
VWidth: 1750
GlyphClass: 2
Flags: W
LayerCount: 2
Fore
SplineSet
226 74 m 1,0,-1
 200 437 l 2,1,2
 196 499 196 499 180 537 c 128,-1,3
 164 575 164 575 118 575 c 256,4,5
 72 575 72 575 10 550 c 1,6,-1
 10 623 l 1,7,8
 81 653 81 653 139 653 c 0,9,10
 194 653 194 653 223 628 c 128,-1,11
 252 603 252 603 264 556.5 c 128,-1,12
 276 510 276 510 278 445 c 2,13,-1
 281 361 l 1,14,-1
 285 361 l 1,15,16
 318 444 318 444 444 444 c 2,17,-1
 816 444 l 1,18,-1
 816 364 l 1,19,-1
 606 364 l 1,20,-1
 587 96 l 1,21,-1
 521 96 l 1,22,-1
 502 364 l 1,23,-1
 445 364 l 2,24,25
 390 364 390 364 360.5 350 c 128,-1,26
 331 336 331 336 318.5 304.5 c 128,-1,27
 306 273 306 273 302 219 c 2,28,-1
 292 74 l 1,29,-1
 226 74 l 1,0,-1
262 -163 m 1,30,-1
 219 -124 l 1,31,32
 281 -37 281 -37 340 22 c 1,33,-1
 401 -47 l 1,34,35
 356 -79 356 -79 321.5 -108 c 128,-1,36
 287 -137 287 -137 262 -163 c 1,30,-1
547 -163 m 1,37,-1
 504 -124 l 1,38,39
 566 -37 566 -37 625 22 c 1,40,-1
 686 -47 l 1,41,42
 641 -79 641 -79 606.5 -108 c 128,-1,43
 572 -137 572 -137 547 -163 c 1,37,-1
EndSplineSet
Substitution2: "'init' +BB0EMARHBDAEOwRMBD0ESwQ1 +BEQEPgRABDwESwAA in +BBwEPgQ9BDMEPgQ7BEwEQQQ6BDgEOQAA lookup 8 subtable" u184D.ini
Substitution2: "'medi' Medial Forms in +BBwEPgQ9BDMEPgQ7BEwEQQQ6BDgEOQAA lookup 6 subtable" u184D.med
Substitution2: "'fina' Terminal Forms in +BBwEPgQ9BDMEPgQ7BEwEQQQ6BDgEOQAA lookup 4 subtable" u184D.finFem
EndChar

StartChar: u184D.ini
Encoding: 491 -1 311
Width: 786
VWidth: 1750
GlyphClass: 2
Flags: W
LayerCount: 2
Fore
SplineSet
226 74 m 1,0,-1
 200 437 l 2,1,2
 196 499 196 499 180 537 c 128,-1,3
 164 575 164 575 118 575 c 256,4,5
 72 575 72 575 10 550 c 1,6,-1
 10 623 l 1,7,8
 81 653 81 653 139 653 c 0,9,10
 194 653 194 653 223 628 c 128,-1,11
 252 603 252 603 264 556.5 c 128,-1,12
 276 510 276 510 278 445 c 2,13,-1
 281 361 l 1,14,-1
 285 361 l 1,15,16
 318 444 318 444 444 444 c 2,17,-1
 816 444 l 1,18,-1
 816 364 l 1,19,-1
 606 364 l 1,20,-1
 587 96 l 1,21,-1
 521 96 l 1,22,-1
 502 364 l 1,23,-1
 445 364 l 2,24,25
 390 364 390 364 360.5 350 c 128,-1,26
 331 336 331 336 318.5 304.5 c 128,-1,27
 306 273 306 273 302 219 c 2,28,-1
 292 74 l 1,29,-1
 226 74 l 1,0,-1
262 -163 m 1,30,-1
 219 -124 l 1,31,32
 281 -37 281 -37 340 22 c 1,33,-1
 401 -47 l 1,34,35
 356 -79 356 -79 321.5 -108 c 128,-1,36
 287 -137 287 -137 262 -163 c 1,30,-1
547 -163 m 1,37,-1
 504 -124 l 1,38,39
 566 -37 566 -37 625 22 c 1,40,-1
 686 -47 l 1,41,42
 641 -79 641 -79 606.5 -108 c 128,-1,43
 572 -137 572 -137 547 -163 c 1,37,-1
EndSplineSet
EndChar

StartChar: u184D.med
Encoding: 492 -1 312
Width: 568
VWidth: 1750
GlyphClass: 2
Flags: W
LayerCount: 2
Fore
SplineSet
19 96 m 1,0,-1
 0 364 l 1,1,-1
 0 444 l 1,2,-1
 598 444 l 1,3,-1
 598 364 l 1,4,-1
 388 364 l 1,5,-1
 369 96 l 1,6,-1
 303 96 l 1,7,-1
 284 364 l 1,8,-1
 104 364 l 1,9,-1
 85 96 l 1,10,-1
 19 96 l 1,0,-1
45 -163 m 1,11,-1
 2 -124 l 1,12,13
 64 -37 64 -37 123 22 c 1,14,-1
 184 -47 l 1,15,16
 139 -79 139 -79 104.5 -108 c 128,-1,17
 70 -137 70 -137 45 -163 c 1,11,-1
328 -163 m 1,18,-1
 285 -124 l 1,19,20
 347 -37 347 -37 406 22 c 1,21,-1
 467 -47 l 1,22,23
 422 -79 422 -79 387.5 -108 c 128,-1,24
 353 -137 353 -137 328 -163 c 1,18,-1
EndSplineSet
EndChar

StartChar: u183B.ini
Encoding: 493 -1 313
Width: 428
VWidth: 1750
GlyphClass: 2
Flags: W
LayerCount: 2
Fore
SplineSet
174 42 m 1,0,1
 45 234 45 234 45 407 c 0,2,3
 45 504 45 504 73 576 c 128,-1,4
 101 648 101 648 152 687.5 c 128,-1,5
 203 727 203 727 273 727 c 0,6,7
 384 727 384 727 439.5 638 c 128,-1,8
 495 549 495 549 502 364 c 1,9,-1
 428 364 l 1,10,11
 423 447 423 447 409.5 510 c 128,-1,12
 396 573 396 573 364.5 608.5 c 128,-1,13
 333 644 333 644 273 644 c 0,14,15
 209 644 209 644 170 593.5 c 128,-1,16
 131 543 131 543 125 444 c 1,17,-1
 285 444 l 1,18,-1
 285 364 l 1,19,-1
 125 364 l 1,20,21
 133 293 133 293 163 225 c 128,-1,22
 193 157 193 157 245 85 c 1,23,-1
 174 42 l 1,0,1
EndSplineSet
EndChar

StartChar: u183B.fin
Encoding: 494 -1 314
Width: 620
VWidth: 1750
GlyphClass: 2
Flags: W
LayerCount: 2
Fore
SplineSet
259 -264 m 1,0,1
 240 -226 240 -226 240 -187 c 0,2,3
 240 -120 240 -120 269 -67 c 128,-1,4
 298 -14 298 -14 350 50 c 0,5,6
 379 86 379 86 401 117.5 c 128,-1,7
 423 149 423 149 438 174 c 0,8,9
 469 227 469 227 483 277 c 128,-1,10
 497 327 497 327 497 388 c 0,11,12
 497 504 497 504 442.5 574 c 128,-1,13
 388 644 388 644 284 644 c 0,14,15
 196 644 196 644 141.5 594.5 c 128,-1,16
 87 545 87 545 78 444 c 1,17,-1
 238 444 l 1,18,-1
 238 364 l 1,19,-1
 79 364 l 1,20,21
 85 294 85 294 114.5 227 c 128,-1,22
 144 160 144 160 198 85 c 1,23,-1
 127 42 l 1,24,25
 -2 234 -2 234 -2 407 c 0,26,27
 -2 504 -2 504 32 576 c 128,-1,28
 66 648 66 648 130 687.5 c 128,-1,29
 194 727 194 727 284 727 c 0,30,31
 380 727 380 727 444.5 684 c 128,-1,32
 509 641 509 641 542 564.5 c 128,-1,33
 575 488 575 488 575 388 c 0,34,35
 575 325 575 325 561 270.5 c 128,-1,36
 547 216 547 216 518 163 c 0,37,38
 496 122 496 122 467 79.5 c 128,-1,39
 438 37 438 37 403 -7 c 0,40,41
 362 -59 362 -59 341 -98 c 128,-1,42
 320 -137 320 -137 320 -187 c 0,43,44
 320 -225 320 -225 341 -264 c 1,45,-1
 259 -264 l 1,0,1
EndSplineSet
EndChar

StartChar: u1854.fin
Encoding: 502 -1 323
Width: 780
VWidth: 1750
GlyphClass: 2
Flags: W
LayerCount: 2
Fore
SplineSet
0 5 m 1,0,-1
 0 100 l 1,1,2
 17 117 17 117 45.5 136.5 c 128,-1,3
 74 156 74 156 114 178 c 2,4,-1
 196 222 l 2,5,6
 240 246 240 246 257 278.5 c 128,-1,7
 274 311 274 311 274 364 c 1,8,-1
 0 364 l 1,9,-1
 0 444 l 1,10,-1
 560 444 l 2,11,12
 735 444 735 444 735 279 c 0,13,14
 735 213 735 213 710 162 c 1,15,-1
 636 162 l 1,16,17
 658 213 658 213 658 279 c 0,18,19
 658 320 658 320 635.5 342 c 128,-1,20
 613 364 613 364 560 364 c 2,21,-1
 351 364 l 1,22,23
 351 288 351 288 326 239.5 c 128,-1,24
 301 191 301 191 245 161 c 2,25,-1
 137 103 l 2,26,27
 65 64 65 64 0 5 c 1,0,-1
EndSplineSet
EndChar

StartChar: u185C
Encoding: 95 6236 324
Width: 727
VWidth: 1750
GlyphClass: 2
Flags: W
LayerCount: 2
Fore
SplineSet
168 -164 m 1,0,-1
 168 -80 l 1,1,2
 206 -50 206 -50 253 -44 c 128,-1,3
 300 -38 300 -38 359 -38 c 2,4,-1
 395 -38 l 1,5,6
 388 -5 388 -5 383 27 c 128,-1,7
 378 59 378 59 376 90 c 1,8,-1
 337 90 l 2,9,10
 261 90 261 90 206 82 c 128,-1,11
 151 74 151 74 102 43 c 1,12,-1
 102 128 l 1,13,14
 146 157 146 157 205 163.5 c 128,-1,15
 264 170 264 170 337 170 c 2,16,-1
 374 170 l 1,17,18
 375 221 375 221 382.5 269.5 c 128,-1,19
 390 318 390 318 403 364 c 1,20,-1
 45 364 l 1,21,-1
 63 444 l 1,22,-1
 682 444 l 1,23,-1
 682 364 l 1,24,-1
 477 364 l 1,25,26
 447 258 447 258 447 151 c 0,27,28
 447 46 447 46 480 -52 c 1,29,-1
 480 -118 l 1,30,-1
 359 -118 l 2,31,32
 295 -118 295 -118 252 -126 c 128,-1,33
 209 -134 209 -134 168 -164 c 1,0,-1
EndSplineSet
Substitution2: "'init' +BB0EMARHBDAEOwRMBD0ESwQ1 +BEQEPgRABDwESwAA in +BBwEPgQ9BDMEPgQ7BEwEQQQ6BDgEOQAA lookup 8 subtable" u185C.ini
Substitution2: "'medi' Medial Forms in +BBwEPgQ9BDMEPgQ7BEwEQQQ6BDgEOQAA lookup 6 subtable" u185C.med
Substitution2: "'fina' Terminal Forms in +BBwEPgQ9BDMEPgQ7BEwEQQQ6BDgEOQAA lookup 4 subtable" u185C.fin
EndChar

